<?xml version="1.0" encoding="utf-8"?>
<svg xmlns="http://www.w3.org/2000/svg" width="734" height="734" viewBox="145 145 734 734" role="img" shape-rendering="geometricPrecision" aria-label="Noodle Gallery camera mark light, 1:1, transparent background">
  <g transform="matrix(1.975276, 0, 0, 1.975276, 15.218029, -12.468378)" style="">
    <g>
      <g transform="matrix(1, 0, 0, 1, -20.332947, -27.285006)">
        <title>Frame_TopRight</title>
        <path d="M 345.332 139.968 L 366.332 172.635 L 268.333 172.635 L 268.333 107.302 L 314.999 107.302 C 324.332 107.302 331.332 118.968 331.332 118.968 L 345.332 139.968 Z" style="fill: rgb(144, 179, 71);">
          <title>GreenTop</title>
        </path>
        <path d="M 410.666 140 C 410.666 140 412.583 140 373.333 140 L 345.333 139.968 L 366.333 172.635 C 366.333 172.635 369.216 172.667 382.666 172.667 C 405.666 172.667 410.666 172.667 410.666 172.667 C 420 172.667 424.666 175 424.666 186.667 L 424.666 231 L 424.666 326.635 L 457.333 326.635 L 457.333 231 L 457.333 186.667 L 457.333 172.667 C 457.333 147 448 140 424.666 140 L 410.666 140 Z" style="stroke-width: 1; transform-origin: 392px 193.699px; fill: rgb(231, 200, 88);">
          <title>YellowRight</title>
        </path>
      </g>
      <g transform="matrix(1, 0, 0, 1, -4, -27.317019)">
        <title>Frame_TopLeft</title>
        <path d="M 161 172.666 L 182 139.999 L 196 118.999 C 196 118.999 203 107.333 210 107.333 L 259 107.334 L 259.001 172.666 L 161 172.666 Z" style="fill: rgb(144, 179, 71);">
          <title>GreenTop</title>
        </path>
        <path d="M 116.667 140 C 116.667 140 114.75 140 154 140 L 182 140 L 161 172.667 C 161 172.667 158.117 172.667 144.667 172.667 C 121.667 172.667 116.667 172.667 116.667 172.667 C 107.333 172.667 102.667 175 102.667 186.667 L 102.667 231 L 102.667 324.334 L 70 324.334 L 70 231 L 70 186.667 L 70 172.667 C 70 147 79.333 140 102.667 140 L 116.667 140 Z" style="fill: rgb(228, 90, 69);">
          <title>RedLeft</title>
        </path>
      </g>
      <g transform="matrix(1, 0, 0, 1, -3.499985, 26.317017)">
        <title>Frame_Bottom</title>
        <path d="M 393.833 424.668 C 393.833 424.668 395.75 424.668 356.5 424.668 L 237.5 424.7 L 237.5 392.033 C 237.5 392.033 352.383 392.001 365.833 392.001 C 388.833 392.001 393.833 392.001 393.833 392.001 C 403.167 392.001 407.833 389.668 407.833 378.001 L 407.833 333.668 L 407.833 270.7 L 440.5 270.7 L 440.5 333.668 L 440.5 378.001 L 440.5 392.001 C 440.5 417.668 431.167 424.668 407.833 424.668 L 393.833 424.668 Z" style="stroke-width: 1; fill: rgb(80, 127, 222);">
          <title>BlueBottomRight</title>
        </path>
        <path d="M 116.167 424.667 C 116.167 424.667 114.25 424.667 153.5 424.667 L 244.5 424.7 L 244.5 392.033 C 244.5 392.033 157.617 392 144.167 392 C 121.167 392 116.167 392 116.167 392 C 106.833 392 102.167 389.667 102.167 378 L 102.167 333.667 L 102.167 268.367 L 69.5 268.367 L 69.5 333.667 L 69.5 378 L 69.5 392 C 69.5 417.667 78.833 424.667 102.167 424.667 L 116.167 424.667 Z" style="fill: rgb(80, 127, 222);">
          <title>BlueBottomLeft</title>
        </path>
      </g>
      <g transform="matrix(1, 0, 0, 1, -4.324997, -3.067994)">
        <title>Lens</title>
        <path d="M 168.574 282.334 C 168.574 258.058 178.432 236.085 194.362 220.198 L 217.344 241.507 C 206.582 251.786 199.877 266.277 199.877 282.334 C 199.877 297.989 206.25 312.157 216.544 322.382 L 194.426 344.534 C 178.458 328.643 168.574 306.643 168.574 282.334 Z" style="fill: rgb(228, 90, 69);"/>
        <path d="M 256.325 370.085 C 232.17 370.085 210.294 360.325 194.426 344.534 L 216.544 322.382 C 226.748 332.519 240.805 338.782 256.325 338.782 C 273.914 338.782 289.624 330.737 299.977 318.126 L 322.958 339.435 C 306.864 358.198 282.983 370.085 256.325 370.085 Z" style="fill: rgb(80, 127, 222);"/>
        <path d="M 344.076 282.334 C 344.076 304.14 336.122 324.088 322.958 339.435 L 299.977 318.126 C 307.973 308.385 312.773 295.92 312.773 282.334 C 312.773 266.784 306.485 252.702 296.313 242.493 L 318.431 220.341 C 334.277 236.216 344.076 258.131 344.076 282.334 Z" style="fill: rgb(231, 200, 88);"/>
        <path d="M 194.362 220.198 C 210.235 204.369 232.137 194.583 256.325 194.583 C 280.586 194.583 302.547 204.428 318.431 220.341 L 296.313 242.493 C 286.092 232.235 271.95 225.886 256.325 225.886 C 241.207 225.886 227.477 231.829 217.344 241.507 Z" style="fill: rgb(54, 179, 72);"/>
        <path d="M 194.362 220.199 C 210.234 204.37 232.136 194.584 256.323 194.584 C 280.583 194.584 302.544 204.429 318.427 220.342 L 296.31 242.493 C 286.089 232.235 271.948 225.887 256.323 225.887 C 241.206 225.887 227.476 231.829 217.343 241.507 L 194.362 220.199 Z" style="fill: rgb(144, 179, 71);"/>
      </g>
      <rect x="79.5" y="84.183" width="91" height="21" style="fill: rgb(228, 90, 69);" rx="10.5" ry="10.5"/>
    </g>
  </g>
</svg>