<?xml version="1.0" encoding="utf-8"?>
<!-- Generator: Adobe Illustrator 25.2.1, SVG Export Plug-In . SVG Version: 6.00 Build 0)  -->
<svg version="1.1" id="Layer_1" xmlns="http://www.w3.org/2000/svg" xmlns:xlink="http://www.w3.org/1999/xlink" x="0px" y="0px"
	 viewBox="0 0 512 512" style="enable-background:new 0 0 512 512;" xml:space="preserve">
<style type="text/css">
	.st0{fill:#FA2921;}
	.st1{fill:#ED79B5;}
	.st2{fill:#FFB400;}
	.st3{fill:#1E83F7;}
	.st4{fill:#18C249;}
</style>
<g>
	<path class="st0" d="M241.9,173.5c27.5,24.3,49.7,50.4,63.9,75c24.5-43.8,40.9-95.9,41.1-129c0-0.2,0-0.4,0-0.6
		c0-49.1-48.9-68.2-91.1-68.2c-42.2,0-91.1,19.1-91.1,68.2c0,0.7,0,1.6,0,2.6C188.2,132,216,150.6,241.9,173.5z"/>
	<path class="st1" d="M91.9,307.3c17.2-19.1,43.6-39.8,73.3-57.4c31.7-18.6,63.3-31.6,91.1-37.6c-34.1-36.8-78.5-68.5-110-78.9
		c-0.2-0.1-0.4-0.1-0.6-0.2c-46.7-15.2-79.9,25.5-93,65.6s-10,92.5,36.7,107.7C90,306.7,90.8,307,91.9,307.3z"/>
	<path class="st2" d="M459.3,198.1c-13-40.1-46.3-80.7-93-65.6c-0.6,0.2-1.5,0.5-2.5,0.8c-2.7,25.6-11.8,57.8-25.6,89.5
		c-14.7,33.7-32.6,62.8-51.6,84c49.2,9.8,103.8,9.2,135.4-0.8c0.2-0.1,0.4-0.1,0.6-0.2C469.3,290.7,472.4,238.2,459.3,198.1z"/>
	<path class="st3" d="M214.1,346.5c-7.9-35.9-10.5-70-7.6-98.3c-45.6,21-89.4,53.5-109.1,80.2c-0.1,0.2-0.3,0.4-0.4,0.5
		c-28.8,39.7-0.5,83.9,33.6,108.7c34.1,24.8,84.9,38.1,113.8-1.6c0.4-0.5,0.9-1.3,1.6-2.1C233.2,411.7,221.6,380.2,214.1,346.5z"/>
	<path class="st4" d="M414.1,326.5c-25.1,5.4-58.7,6.6-93,3.3c-36.6-3.5-69.8-11.6-95.8-23.1c5.9,49.8,23.3,101.6,42.6,128.5
		c0.1,0.2,0.3,0.4,0.4,0.5c28.8,39.7,79.7,26.4,113.8,1.6c34.1-24.8,62.5-69,33.6-108.7C415.3,328.1,414.8,327.3,414.1,326.5z"/>
</g>
</svg>
