<?xml version="1.0" encoding="utf-8"?>
<!-- Generator: Adobe Illustrator 26.0.1, SVG Export Plug-In . SVG Version: 6.00 Build 0)  -->
<svg version="1.1" id="svg2781" xmlns:svg="http://www.w3.org/2000/svg"
	 xmlns="http://www.w3.org/2000/svg" xmlns:xlink="http://www.w3.org/1999/xlink" x="0px" y="0px" viewBox="0 0 564.2 553.5"
	 style="enable-background:new 0 0 564.2 553.5;" xml:space="preserve">
<style type="text/css">
	.st0{fill:#4081EF;stroke:#512D8C;stroke-miterlimit:10;}
	.st1{fill:#31A452;stroke:#512D8C;stroke-miterlimit:10;}
	.st2{fill:#DE7FB3;stroke:#512D8C;stroke-miterlimit:10;}
	.st3{fill:#FFB800;stroke:#512D8C;stroke-miterlimit:10;}
	.st4{fill:#E64132;stroke:#512D8C;stroke-miterlimit:10;}
	.st5{fill:#F2F5FB;stroke:#512D8C;stroke-miterlimit:10;}
</style>
<path class="st0" d="M210.5,549.6c-2.2-0.2-5.5-1-9.7-2.2c-52.4-15.7-99-46.5-133.8-88.5c-8.8-10.7-17.2-22.4-19.4-27.5
	c-8.1-18.1-6.3-38.7,4.8-55.4c5-7.5,13.2-15,20.5-18.7c1.2-0.6,54.1-20,55.8-20.4c0.5-0.1,0.5,0.2-0.3,2.1c-0.7,1.7-1,3.1-1.1,5.5
	l-0.1,3.2l2.8,5.8c8.7,17.9,19.2,32.7,33.2,46.4c6.3,6.2,7.8,7.6,13.8,12.3c22.7,18.1,52,30.7,79.9,34.3c2.5,0.3,5,0.8,5.7,1
	c2.8,0.9,7.7-0.8,11-3.7l1.8-1.6l-0.2,4.8c-0.1,2.7-0.6,15.4-1,28.3c-0.6,20.3-0.8,24-1.5,27.5c-3.9,20.7-18.6,37.5-38.4,44.1
	c-4.6,1.5-8,2.2-13.1,2.7C216.6,550.1,215.3,550,210.5,549.6z"/>
<path class="st1" d="M339.8,549.4c-4-0.4-9.4-1.6-13.2-2.9c-3.4-1.2-10-4.4-12.5-6.1c-10.9-7.4-19-17.9-23.1-30
	c-2.2-6.7-2.3-7.5-3.3-36.9c-0.5-14.9-0.9-27.9-0.9-28.9l0-1.9l2.3,1.8c2.6,2,6.6,3.4,8.5,3.1c0.6-0.1,3-0.5,5.3-0.8
	c37.7-5.3,71.2-22.2,97.4-49.1c12.2-12.5,21.4-25.5,29.9-42.4l3.5-7l0-3.6c0-3.1-0.1-3.8-1-5.7c-0.5-1.2-0.9-2.1-0.9-2.2
	c0.2-0.2,55.3,20.1,56.9,20.9c2.6,1.3,6.6,4.1,9.9,7c9.2,7.7,16.1,19.4,18.8,31.8c0.7,3.1,0.8,4.8,0.8,11.3c0,8.6-0.5,11.7-2.9,18.7
	c-1.7,5-2.9,7.2-7.1,13.1c-7.6,11-15.3,20.5-25.2,31.2c-32.8,35.4-76.5,62.5-123.4,76.3C351.6,549.6,347.2,550.1,339.8,549.4z"/>
<path class="st2" d="M255.6,438c-25.9-4.2-50.7-14.9-71.7-31c-5.2-4-8.7-7.1-14.1-12.4c-12.7-12.5-21.9-24.9-30.5-41.4
	c-2.3-4.4-2.4-4.7-2.4-7.1c0-8.8,8.5-15.2,16.9-12.7c5.6,1.7,9.6,6.8,9.7,12.2c0,2.6-0.8,4.6-2.6,6.2c-1.2,1.1-3.2,1.9-4.6,1.9
	c-1.2,0-3.3-0.8-4.3-1.6c-2.1-1.8-2-1,0.4,3.2c19.3,33.8,52.3,59.1,90,69.1c5.7,1.5,11.5,2.7,11.8,2.4c0.1-0.1-0.4-0.8-1.3-1.6
	c-5.1-4.5-2.3-11.7,5-12.8c5.4-0.8,11.4,2.7,13.9,8c0.8,1.7,1,2.5,1,5.3s-0.1,3.5-1,5.3c-2,4.3-6.8,7.9-10.3,7.8
	C260.6,438.7,257.9,438.3,255.6,438z"/>
<path class="st0" d="M297.6,438.2c-3.4-1.3-6.4-4.3-7.8-8.1c-1.1-2.9-0.9-7.3,0.5-10.2c2.6-5.3,8.7-8.5,14.4-7.5
	c2.9,0.5,4.7,1.9,6,4.3c0.8,1.6,1,2.2,0.8,3.6c-0.3,2.2-0.9,3.3-2.7,4.8c-0.8,0.7-1.4,1.4-1.3,1.5c0.5,0.5,13.4-2.7,21.3-5.4
	c33.6-11.3,62.5-35.1,80.4-66.1c2.5-4.4,2.6-5,0.5-3.2c-2.8,2.4-7,1.9-9.6-1c-4-4.6-0.7-13.8,6.1-16.9c2-0.9,2.7-1,5.5-1
	c2.9,0,3.5,0.1,5.6,1.1c4.4,2.1,7.4,6.4,7.8,11c0.2,2.2,0.1,2.3-2.2,6.9c-23,45.9-67,78.1-117.2,85.9
	C300.2,438.8,299.4,438.9,297.6,438.2z"/>
<path class="st1" d="M211.1,398.5c-4.7-0.9-8.7-2.7-12.9-5.9c-10.8-8.1-13.5-22.3-6.6-33.7c0.7-1.2,1.1-2.2,1-2.4
	c-0.2-0.2-1.2-0.6-2.3-1.1c-7.6-3-13-10.6-13.5-19.1c-0.5-7.4,3.1-15,9-19.4c1-0.7,2.2-1.5,2.6-1.8c0.8-0.4,68.9-22.7,69.4-22.7
	c0.2,0,0.7,0.7,1.2,1.5c0.5,0.8,1.6,2.3,2.4,3.3c1.2,1.4,1.5,1.9,1.2,2.3c-0.2,0.3-6.9,9.5-14.8,20.5
	c-15.9,21.9-15.5,21.3-13.4,23.4c1.3,1.3,2.9,1.4,4.4,0.3c0.6-0.4,7.5-9.7,15.5-20.7c11.2-15.4,14.6-19.9,15-19.7
	c0.9,0.4,5.5,1.9,6.6,2.1l1,0.2l0,35.3c0,39.7,0,38.8-2.5,44c-2.6,5.3-7.2,9.3-12.7,11.2c-3.7,1.3-6.8,1.6-10.2,1
	c-5.5-0.9-9.8-3.2-13.7-7.4l-2.2-2.4l-0.6,0.9c-3,4.3-8.6,8.1-14,9.5C218.2,398.6,213.2,398.9,211.1,398.5z"/>
<path class="st3" d="M342.9,398.5c-5.5-0.9-9.9-3.2-14.3-7.6l-3.2-3.2l-0.7,1c-2.3,3.3-6.8,6.5-11.1,7.9c-3.7,1.2-9.2,1.4-12.6,0.3
	c-7.1-2.1-12.7-7.4-15.2-14.3l-0.9-2.6v-37.1v-37.1l1.8-0.4c1-0.2,2.7-0.8,3.9-1.2c1.1-0.5,2.1-0.8,2.2-0.7c0.1,0.1,6.5,9,14.4,19.9
	c7.8,10.9,14.7,20.1,15.2,20.5c2.2,1.9,5.4,0.4,5.4-2.6c0-1.4-1-2.9-13.8-20.5c-7.6-10.5-14.2-19.6-14.7-20.4l-0.9-1.3l1.4-1.7
	c0.8-0.9,1.9-2.5,2.5-3.4l1-1.6l34.4,11.2c18.9,6.2,35.1,11.6,35.9,12.1c6.8,4,11.1,11.3,11.1,19.1c0,4.1-0.5,6.4-2.4,10.2
	c-2,4.1-5.5,7.6-9.6,9.7c-1.6,0.8-3.2,1.5-3.4,1.5c-1,0-0.9,0.7,0.3,2.6c2.8,4.3,4,8.5,3.9,13.7c0,8.1-3.7,15.2-10.6,20.3
	C356.4,397.6,349.5,399.5,342.9,398.5z"/>
<path class="st2" d="M53.9,341.9c-0.5-0.1-2.3-0.4-3.9-0.7c-15.6-2.6-30.4-12.6-38.8-26.2c-3.5-5.7-6.4-13.2-7.8-19.9
	c-1.2-6.1-0.8-28.1,0.8-43.1c4.5-43,19-84.3,42.2-120.7c6.5-10.2,14.9-21.5,18.2-24.6c17.8-16.6,43.1-20.5,64.8-10
	c4.3,2.1,8.8,5.1,12.7,8.6c2.8,2.4,5.8,6.1,20.9,25.5c9.7,12.5,17.8,22.8,17.9,23c0.2,0.2-0.9,0.4-3.2,0.4c-2.5,0-4.1,0.2-5.7,0.7
	c-2.1,0.7-2.6,1.1-7.9,6.3c-8.2,8.1-14.4,15.3-20.3,23.9c-15.5,22.2-25.4,47.7-28.8,74.8c-2.2,16.9-1.6,37.5,1.6,52.3
	c0.3,1.4,0.5,2.8,0.4,3c-0.1,0.2,0.2,1.3,0.8,2.4c1.1,2.4,4.3,5.7,6.5,6.8l1.5,0.8l-1.2,0.4c-0.7,0.2-13.1,3.8-27.6,8
	c-16.4,4.7-27.7,7.8-29.8,8.1C64.1,342.1,56.1,342.3,53.9,341.9z"/>
<path class="st3" d="M494.7,341.7c-2.1-0.3-33.8-9.1-56.5-15.8l-2.5-0.7l1.6-0.8c3.4-1.7,7.2-6.6,7.3-9.6c0-0.7,0.4-3.3,0.8-5.8
	c3.9-22.7,3.1-46.1-2.5-68.4c-6.4-25.5-18.6-49.2-35.8-69.1c-4.6-5.3-14.8-15.4-16.4-16.1c-2.4-1.1-5.1-1.6-8-1.4l-2.7,0.2l1.2-1.5
	c0.7-0.8,8.5-10.8,17.5-22.3c8.9-11.5,17.2-21.8,18.5-23.1c2.6-2.7,7-6.2,10.3-8.2c19.3-11.6,43-11.1,61.6,1.2
	c5.4,3.6,8.2,6.2,12.3,11.7c26.4,34.5,44,73.7,52.3,116.2c3.4,17.6,4.9,33.3,5,52.4c0,13-0.2,14.8-2.5,21.8
	C547.8,328.6,521.7,345.2,494.7,341.7z"/>
<path class="st4" d="M133.9,318.5c-2-0.5-4.6-1.9-6-3.3c-2.5-2.4-3.1-3.5-3.7-7.3c-4.4-27.3-2.2-54,6.7-79.3
	c5.3-15.1,13.5-30.5,23-43.1c5.8-7.8,16.6-19.5,19-20.7c4.7-2.4,11.3-1.2,15.2,2.7c5.4,5.4,5.2,13.9-0.3,19.1
	c-4.3,4-9.4,4.4-12.6,0.9c-1.7-1.9-2.2-3.9-1.7-6.4c0.2-1.1,0.3-2,0.2-2.2c-0.3-0.3-3.6,3.3-8.3,9.1c-17.6,21.8-28.5,48-31.9,76.5
	c-1.1,9.3-1,26.4,0.1,34.6c0.3,1.8,0.8,1.9,1.4,0.1c0.9-2.6,4-4.7,6.8-4.7c3,0,5.9,2.2,7.5,5.7c0.6,1.3,0.8,2.3,0.8,5.2
	c0,3.3-0.1,3.8-1.1,5.7c-1.4,2.7-4.6,5.7-7.1,6.6C139.4,318.6,135.8,318.9,133.9,318.5z"/>
<path class="st1" d="M422.6,318.5c-3.7-0.6-7.7-3.6-9.4-7.1c-3.8-7.5,0.1-16.9,6.9-16.9c3.1,0,5.8,2,6.9,5.2
	c0.4,1.2,0.5,1.3,0.7,0.7c1.3-3.7,1.7-26.4,0.6-35.7c-3.6-29.6-14.5-55.3-33-77.9c-5.5-6.7-8.4-9.4-7.1-6.6c0.7,1.4,0.5,4.3-0.3,5.9
	c-0.9,1.7-3.2,3.5-5,3.8c-3.2,0.6-7.9-1.6-10.2-4.8c-6.5-8.8-0.5-21.2,10.4-21.4c4.6-0.1,5.2,0.3,11.2,6.4
	c12.1,12.3,21.1,24.9,28.8,40.3c13.2,26.3,18.6,54.9,16.1,84.5c-0.5,5.6-2,15.7-2.6,17.1c-1.3,2.8-4.8,5.5-8.4,6.5
	C425.9,318.9,425.1,318.9,422.6,318.5z"/>
<path class="st0" d="M178.2,307.2c-6-1.3-12.2-6.2-14.9-11.7c-3.4-7-3.1-15.1,0.9-21.6c0.7-1.2,1.2-2.3,1.1-2.4
	c-0.1-0.1-1.1-0.6-2.1-1c-3.9-1.5-8.1-4.8-10.7-8.3c-4.6-6.2-6.1-14.6-3.9-22.1c2.9-10.3,9.4-16.8,19.1-19.3c2.8-0.7,9-0.8,11.7,0
	c1.1,0.3,2.2,0.5,2.4,0.5c0.2,0,0.3-0.7,0.3-1.5c0-2.9,0.8-5.8,2.4-9.2c5.2-10.8,18.1-15.5,29-10.5c2.7,1.2,6.2,3.8,7.8,5.8
	c0.7,0.8,10.3,14,21.5,29.4l20.3,27.9l-1.5,1.8c-0.8,1-1.9,2.6-2.5,3.5c-0.6,1-1.2,1.7-1.5,1.6c-4.5-1.7-46.7-15-47.7-15
	c-1.9,0-3.1,1.3-3.1,3.2c0,1,0.2,1.7,0.8,2.3c0.6,0.6,7.8,3.1,24.5,8.5l23.7,7.7l-0.1,4.3l-0.1,4.3L223,295.9
	c-18,5.9-33.9,10.9-35.2,11.2C184.7,307.8,181.2,307.8,178.2,307.2z"/>
<path class="st4" d="M372.5,306.8c-1.8-0.5-17.5-5.6-35-11.3l-31.8-10.4l1-4.3v-4.3l22.6-7.7c15-4.9,24-8,24.6-8.5
	c0.7-0.6,0.9-1.1,0.9-2.2c0-2-1.2-3.3-3.1-3.3c-0.9,0-10.5,2.9-24.7,7.5c-12.8,4.1-23.4,7.5-23.6,7.5c-0.1,0-0.7-0.8-1.3-1.9
	c-0.6-1-1.6-2.5-2.2-3.2c-0.7-0.7-1.2-1.5-1.2-1.6c0-0.2,9.6-13.5,21.4-29.6c18.9-26,21.6-29.6,23.6-31.1c5.7-4.4,13.1-5.8,19.7-3.9
	c9,2.7,16.1,11.6,16.1,20.3c0,2.3-0.1,2.3,3.1,1.5c4.7-1.1,11.5-0.5,16,1.5c4.6,2,9,6,11.5,10.2c2.1,3.6,3.9,9.4,4.2,13.2
	c0.3,5.2-1.1,10.7-4,15.3c-2.6,4.1-7.8,8.3-12.1,9.8c-0.9,0.3-1.7,0.8-1.7,1c0,0.2,0.4,1,0.9,1.7c2.4,3.6,3.6,7.7,3.5,12.7
	c0,5.8-2.1,10.7-6.4,15.1c-4,4.1-8.9,6.3-14.9,6.5C376.3,307.7,375.3,307.6,372.5,306.8z"/>
<path class="st5" d="M276.2,298.9c-6.1-1.6-11.4-6.8-13.2-12.9c-0.7-2.4-0.7-7.5,0-9.9c1.7-5.8,6.6-10.8,12.3-12.5
	c2.7-0.8,7.2-0.9,10-0.2c6.2,1.6,11.6,7.1,13.2,13.3c1.6,6-0.3,12.6-5,17.3C288.9,298.6,282.2,300.5,276.2,298.9z"/>
<path class="st2" d="M248.3,229.8c-13.3-18.3-21.2-29.6-22-31.1c-1.4-3-1.9-5.5-1.9-9.4c0-14.1,13.1-24.4,27.1-21.4
	c1.4,0.3,2.6,0.5,2.7,0.5s0.3-1.3,0.4-2.8c0.8-10.7,8.4-19.6,18.9-22.4c3.9-1,10.6-1,14.5,0c8.9,2.3,15.9,9.3,18.2,18.2
	c0.4,1.5,0.7,3.7,0.7,4.9c0,1.2,0.1,2.1,0.3,2.1s1.5-0.3,3-0.6c7.4-1.6,15.2,0.7,20.5,6c4.3,4.3,6.6,9.6,6.6,15.6
	c0,4-0.6,6.5-2.4,10c-0.6,1.2-10.4,15-21.7,30.7c-17.8,24.5-20.8,28.5-21.4,28.3c-0.4-0.1-1.9-0.6-3.4-1.1c-1.5-0.5-2.9-0.9-3.3-0.9
	c-0.7,0-0.7-0.8-0.3-25.5v-25.5l-1.4-0.9c-1-1.1-2.5-1.5-3.8-0.9c-2,0.8-2-0.5-1.8,27.2v25.8h-1.2c-0.5-0.2-2.4,0.3-4,0.9
	s-3.1,1.1-3.2,1.1C269.2,258.5,259.8,245.6,248.3,229.8z"/>
<path class="st3" d="M210.9,164.8c-4.1-0.9-7.7-3.6-9.6-7.4c-1.4-2.8-1.7-7.3-0.5-10.3c1.7-4.5,3.9-6.1,15.6-11.2
	c15.8-7,31.4-11.1,49.2-12.9c7.3-0.8,23.2-0.8,30.6,0c17.4,1.8,33.3,6,49.1,13c7.3,3.2,12.5,6.1,13.6,7.5c4.3,5.6,3.8,12.7-1.1,17.6
	c-5.1,5.1-12.9,5.4-18.1,0.7c-2-1.8-3-3.5-3.4-5.6c-0.7-4,2.9-8.1,7.3-8.2c1.4,0,1.5-0.1,1.1-0.5c-0.3-0.3-2.2-1.2-4.3-2.1
	c-33.2-14.5-70.5-16.4-105-5.4c-7.5,2.4-19,7.2-18.6,7.7c0.1,0.2,0.8,0.3,1.6,0.3c5.6,0,9.1,6.2,6.1,10.8
	C221.6,163.3,215.9,165.9,210.9,164.8z"/>
<path class="st4" d="M174.7,123.4c-8.9-13.1-16.8-25.1-17.5-26.6c-1.6-3.3-3.6-9.2-4.4-13c-2.6-12.5-0.9-25.8,5-37.5
	c4.2-8.3,11.2-16.3,18.6-21.3c5-3.4,6.1-3.9,12.8-6.3c23.1-8.2,47.2-13.1,73.4-15c7.5-0.6,28.5-0.6,36.3,0
	c25.5,1.8,50.6,6.9,73,14.8c6.4,2.2,8.2,3.1,13.1,6.5c9.8,6.6,18.1,17.5,22,29.2c2.2,6.5,2.7,10,2.7,17.9c0,7.9-0.5,11.3-2.7,17.9
	c-2.3,6.8-3.7,9.1-20.3,33.6l-16.1,23.8l-0.4-2.2c-0.2-1.2-0.9-3-1.4-4c-1-1.8-4.4-5.6-4.7-5.2c-0.1,0.1-1.2-0.4-2.4-1.1
	c-9.1-5.2-21.9-10.5-33.2-13.9c-37-11-77.2-8.8-113,6.1c-4.9,2.1-17.7,8.4-19.2,9.5c-2.2,1.6-5.1,6.8-5.1,9c0,0.4-0.1,1-0.3,1.2
	C191,147,184.7,138,174.7,123.4z"/>
</svg>
