<svg width="1072" height="142" viewBox="0 0 1072 142" fill="none" xmlns="http://www.w3.org/2000/svg">
<path d="M0 3.21704H62.449C95.377 3.21704 113.922 17.221 113.922 42.011C113.922 64.909 97.837 79.859 70.586 82.887L118.463 138.334V138.523H95.187L48.634 83.644H18.545V138.523H0V3.21704ZM59.421 68.127C82.697 68.127 95.566 59.233 95.566 42.958C95.566 27.63 84.212 19.303 63.206 19.303H18.545V68.127H59.421Z" fill="black"/>
<path d="M141.307 3.21704H247.471V20.059H159.853V60.935H233.846V76.831H159.853V138.523H141.308V3.21704H141.307Z" fill="black"/>
<path d="M319.846 106.921L336.12 97.27C344.068 115.437 360.911 125.845 383.241 125.845C403.868 125.845 418.25 116.762 418.25 102.947C418.25 90.646 407.463 82.509 386.647 78.724L364.695 74.561C338.391 69.641 324.198 56.772 324.198 37.659C324.198 14.95 344.825 0 376.239 0C402.922 0 423.738 10.976 433.389 30.278L418.06 40.308C411.248 24.601 396.108 15.896 375.292 15.896C355.043 15.896 342.932 23.655 342.932 36.712C342.932 48.256 352.015 54.879 373.021 58.853L393.081 62.449C421.467 67.748 436.984 81.941 436.984 102.189C436.984 126.222 415.222 141.74 381.916 141.74C352.206 141.741 329.308 128.872 319.846 106.921Z" fill="black"/>
<path d="M501.706 19.681H450.422V3.21704H571.346V19.681H520.062V138.524H501.706V19.681Z" fill="black"/>
<path d="M592.848 89.1321V3.21706H611.393V85.7251C611.393 113.354 628.425 125.276 652.647 125.276C677.248 125.276 694.09 113.922 694.09 85.9141V3.21606H712.636V88.9411C712.636 120.733 691.441 141.739 652.079 141.739C612.907 141.741 592.848 120.546 592.848 89.1321Z" fill="black"/>
<path d="M739.511 3.21704H789.47C827.318 3.21704 864.22 22.519 864.22 70.586C864.22 118.464 827.697 138.523 788.146 138.523H739.511V3.21704ZM787.957 121.681C821.642 121.681 845.486 105.974 845.486 70.586C845.486 35.388 822.21 20.059 788.147 20.059H758.058V121.681H787.957Z" fill="black"/>
<path d="M887.122 3.21704H905.667V138.524H887.122V3.21704Z" fill="black"/>
<path d="M928.564 70.776C928.564 26.494 961.871 0 1001.04 0C1039.46 0 1072.01 26.115 1072.01 71.154C1072.01 116.004 1039.46 141.74 1001.04 141.74C962.249 141.741 928.564 116.004 928.564 70.776ZM1052.9 71.154C1052.9 37.659 1030.75 16.464 1000.85 16.464C971.144 16.464 947.678 37.28 947.678 70.776C947.678 104.271 970.765 125.277 1001.04 125.277C1031.89 125.277 1052.9 103.704 1052.9 71.154Z" fill="black"/>
</svg>
