<svg width="1131" height="204" viewBox="106 48 1131 204" xmlns="http://www.w3.org/2000/svg" xmlns:xlink="http://www.w3.org/1999/xlink" overflow="visible"><defs><linearGradient x1="268.518" y1="66.9734" x2="128.482" y2="233.657" gradientUnits="userSpaceOnUse" spreadMethod="reflect" id="fill0"><stop offset="0" stop-color="#FA2921"/><stop offset="0.11" stop-color="#FA2921"/><stop offset="0.32" stop-color="#FFB400"/><stop offset="0.52" stop-color="#18C249"/><stop offset="0.74" stop-color="#1E83F7"/><stop offset="0.93" stop-color="#ED79B5"/><stop offset="1" stop-color="#ED79B5"/></linearGradient><linearGradient x1="268.921" y1="66.7693" x2="128.648" y2="233.734" gradientUnits="userSpaceOnUse" spreadMethod="reflect" id="fill1"><stop offset="0" stop-color="#FA2921"/><stop offset="0.06" stop-color="#FA2921"/><stop offset="0.32" stop-color="#FFB400"/><stop offset="0.52" stop-color="#18C249"/><stop offset="0.74" stop-color="#1E83F7"/><stop offset="0.93" stop-color="#ED79B5"/><stop offset="1" stop-color="#ED79B5"/></linearGradient><linearGradient x1="269.007" y1="65.9342" x2="128.88" y2="232.727" gradientUnits="userSpaceOnUse" spreadMethod="reflect" id="fill2"><stop offset="0" stop-color="#FA2921"/><stop offset="0.11" stop-color="#FA2921"/><stop offset="0.32" stop-color="#FFB400"/><stop offset="0.52" stop-color="#18C249"/><stop offset="0.74" stop-color="#1E83F7"/><stop offset="0.93" stop-color="#ED79B5"/><stop offset="1" stop-color="#ED79B5"/></linearGradient></defs><g><rect x="0" y="0" width="1323" height="301.629" fill="#FFFFFF" fill-opacity="0"/><path d="M703.363 82.898C707.148 82.898 710.2 84.1374 712.52 86.6163 714.84 89.0953 716 92.8136 716 97.7715L716 203.857C716 208.815 714.825 212.534 712.474 215.013 710.124 217.491 707.087 218.731 703.363 218.731 699.7 218.731 696.723 217.447 694.434 214.878 692.145 212.31 691 208.636 691 203.857L691 97.7715C691 92.8734 692.114 89.17 694.343 86.6611 696.571 84.1524 699.577 82.898 703.363 82.898Z" fill="#3948AC" fill-rule="evenodd"/><path d="M756.114 82.898C760.218 82.898 763.474 84.2419 765.883 86.9299 768.292 89.6179 769.496 93.6499 769.496 99.0259L769.496 163.627C769.496 170.974 770.314 177.112 771.95 182.04 773.585 186.968 776.485 190.791 780.648 193.509 784.811 196.226 790.64 197.585 798.134 197.585 808.482 197.585 815.798 194.823 820.08 189.297 824.362 183.772 826.504 175.395 826.504 164.165L826.504 99.0259C826.504 93.5901 827.693 89.5432 830.072 86.8851 832.451 84.227 835.633 82.898 839.618 82.898 843.603 82.898 846.829 84.227 849.298 86.8851 851.766 89.5432 853 93.5901 853 99.0259L853 162.194C853 172.468 852.004 181.039 850.011 187.909 848.019 194.778 844.257 200.811 838.726 206.008 833.968 210.428 828.437 213.654 822.132 215.685 815.828 217.715 808.453 218.731 800.007 218.731 789.956 218.731 781.302 217.641 774.046 215.461 766.79 213.28 760.872 209.905 756.293 205.336 751.713 200.766 748.353 194.912 746.212 187.774 744.07 180.636 743 172.109 743 162.194L743 99.0259C743 93.6499 744.204 89.6179 746.613 86.9299 749.022 84.2419 752.189 82.898 756.114 82.898Z" fill="#3948AC" fill-rule="evenodd"/><path d="M451.637 83.8968C454.873 83.8968 457.742 84.9142 460.245 86.9491 462.748 88.9842 464 91.9468 464 95.8371 464 99.6078 462.779 102.555 460.337 104.68 457.895 106.805 454.995 107.867 451.637 107.867 448.157 107.867 445.181 106.82 442.709 104.725 440.236 102.63 439 99.6676 439 95.8371 439 92.3658 440.267 89.5079 442.8 87.2634 445.334 85.0189 448.28 83.8968 451.637 83.8968Z" fill="#3948AC" fill-rule="evenodd"/><path d="M1003.13 83.8968C1006.24 83.8968 1008.99 84.9142 1011.4 86.9491 1013.8 88.9842 1015 91.9468 1015 95.8371 1015 99.6078 1013.83 102.555 1011.48 104.68 1009.14 106.805 1006.36 107.867 1003.13 107.867 999.791 107.867 996.934 106.82 994.561 104.725 992.187 102.63 991 99.6676 991 95.8371 991 92.3658 992.216 89.5079 994.648 87.2634 997.081 85.0189 999.909 83.8968 1003.13 83.8968Z" fill="#3948AC" fill-rule="evenodd"/><path d="M334.984 84.8956 369.403 84.8956C379.582 84.8956 387.411 85.6735 392.892 87.2294 398.312 88.7254 402.995 91.2088 406.94 94.6797 410.884 98.1504 413.881 102.399 415.928 107.426 417.976 112.453 419 118.108 419 124.391 419 137.795 414.844 147.953 406.533 154.865 398.222 161.777 385.845 165.233 369.403 165.233L344.831 165.233 344.831 202.484C344.831 207.81 343.566 211.849 341.037 214.602 338.507 217.355 335.315 218.731 331.461 218.731 327.425 218.731 324.173 217.369 321.704 214.647 319.235 211.924 318 207.93 318 202.663L318 101.232C318 95.3678 319.355 91.1789 322.065 88.6656 324.775 86.1522 329.082 84.8956 334.984 84.8956ZM344.831 104.913 344.831 145.126 362.899 145.126C369.223 145.126 374.508 144.468 378.754 143.151 383 141.835 386.237 139.68 388.465 136.688 390.693 133.696 391.808 129.777 391.808 124.93 391.808 119.125 390.091 114.397 386.658 110.747 382.804 106.857 374.884 104.913 362.899 104.913L344.831 104.913Z" fill="#3948AC" fill-rule="evenodd"/><path d="M625.449 118.854C635.109 118.854 643.395 120.875 650.307 124.916 657.22 128.958 662.397 134.183 665.838 140.59 669.279 146.997 671 153.523 671 160.17 671 166.337 669.219 170.334 665.657 172.16 662.095 173.987 657.084 174.9 650.624 174.9L602.266 174.9C602.326 180.469 603.458 185.379 605.662 189.63 607.865 193.881 610.794 197.085 614.446 199.241 618.099 201.396 622.129 202.474 626.536 202.474 629.494 202.474 632.196 202.13 634.641 201.441 637.086 200.752 639.455 199.675 641.75 198.208 644.044 196.741 646.157 195.169 648.089 193.492 650.021 191.816 652.526 189.54 655.605 186.666 656.873 185.588 658.684 185.049 661.039 185.049 663.574 185.049 665.627 185.738 667.197 187.115 668.766 188.492 669.551 190.438 669.551 192.953 669.551 195.169 668.676 197.759 666.925 200.723 665.174 203.686 662.533 206.531 659.001 209.255 655.469 211.98 651.032 214.24 645.689 216.036 640.346 217.833 634.203 218.731 627.26 218.731 611.382 218.731 599.036 214.24 590.222 205.258 581.407 196.277 577 184.091 577 168.703 577 161.457 578.087 154.736 580.26 148.538 582.434 142.341 585.603 137.027 589.769 132.596 593.935 128.165 599.066 124.767 605.164 122.402 611.261 120.036 618.023 118.854 625.449 118.854ZM624.634 135.919C618.476 135.919 613.42 138.03 609.465 142.251 605.511 146.473 603.111 152.715 602.266 160.978L647.093 160.978C646.489 152.595 644.21 146.323 640.255 142.161 636.301 138 631.094 135.919 624.634 135.919Z" fill="#3948AC" fill-rule="evenodd"/><path d="M451.363 119.853C455.026 119.853 458.048 121.07 460.429 123.505 462.81 125.94 464 129.325 464 133.66L464 203.944C464 208.813 462.81 212.495 460.429 214.99 458.048 217.484 455.026 218.731 451.363 218.731 447.7 218.731 444.723 217.454 442.434 214.901 440.145 212.347 439 208.695 439 203.944L439 134.373C439 129.562 440.145 125.94 442.434 123.505 444.723 121.07 447.7 119.853 451.363 119.853Z" fill="#3948AC" fill-rule="evenodd"/><path d="M494.48 119.853C497.355 119.853 499.737 120.654 501.624 122.258 503.511 123.861 505.713 126.385 508.229 129.829L524.135 151.387 539.591 129.829C542.167 126.266 544.399 123.713 546.286 122.169 548.173 120.625 550.525 119.853 553.341 119.853 556.576 119.853 559.257 120.758 561.384 122.569 563.51 124.381 564.574 126.563 564.574 129.117 564.574 130.958 564.139 132.725 563.271 134.417 562.402 136.11 561.069 138.114 559.272 140.43L539.591 166.708 561.788 198.243C565.263 203.172 567 206.883 567 209.378 567 211.931 565.922 214.129 563.765 215.97 561.608 217.81 558.942 218.731 555.767 218.731 552.951 218.731 550.57 217.929 548.623 216.326 546.676 214.722 544.444 212.169 541.928 208.665L524.135 182.743 505.892 208.665C503.256 212.287 501.025 214.871 499.197 216.415 497.37 217.959 495.049 218.731 492.233 218.731 489.118 218.731 486.467 217.766 484.28 215.836 482.093 213.906 481 211.694 481 209.199 481 206.646 482.677 202.993 486.032 198.243L508.229 166.708 488.549 140.43C485.134 136.095 483.426 132.324 483.426 129.117 483.426 126.623 484.445 124.455 486.482 122.614 488.519 120.773 491.185 119.853 494.48 119.853Z" fill="#3948AC" fill-rule="evenodd"/><path d="M890.486 119.853C892.657 119.853 894.616 120.357 896.365 121.367 898.113 122.377 899.515 123.891 900.57 125.91 901.626 127.929 902.153 130.394 902.153 133.304L902.153 136.243C906.494 130.601 911.243 126.459 916.398 123.817 921.553 121.174 927.477 119.853 934.17 119.853 940.681 119.853 946.5 121.248 951.625 124.039 956.75 126.831 960.579 130.78 963.111 135.887 964.739 138.856 965.794 142.063 966.277 145.507 966.759 148.952 967 153.347 967 158.691L967 203.944C967 208.813 965.87 212.495 963.609 214.99 961.347 217.484 958.408 218.731 954.79 218.731 951.112 218.731 948.128 217.454 945.837 214.901 943.545 212.347 942.4 208.695 942.4 203.944L942.4 163.413C942.4 155.395 941.269 149.264 939.008 145.018 936.747 140.771 932.24 138.648 925.487 138.648 921.086 138.648 917.076 139.94 913.458 142.523 909.841 145.107 907.188 148.655 905.5 153.168 904.294 156.791 903.691 163.561 903.691 173.479L903.691 203.944C903.691 208.873 902.53 212.57 900.209 215.034 897.887 217.499 894.888 218.731 891.21 218.731 887.652 218.731 884.728 217.454 882.437 214.901 880.146 212.347 879 208.695 879 203.944L879 133.66C879 129.028 880.025 125.569 882.075 123.282 884.125 120.996 886.929 119.853 890.486 119.853Z" fill="#3948AC" fill-rule="evenodd"/><path d="M1002.87 119.853C1006.38 119.853 1009.29 121.07 1011.57 123.505 1013.86 125.94 1015 129.325 1015 133.66L1015 203.944C1015 208.813 1013.86 212.495 1011.57 214.99 1009.29 217.484 1006.38 218.731 1002.87 218.731 999.352 218.731 996.495 217.454 994.297 214.901 992.099 212.347 991 208.695 991 203.944L991 134.373C991 129.562 992.099 125.94 994.297 123.505 996.495 121.07 999.352 119.853 1002.87 119.853Z" fill="#3948AC" fill-rule="evenodd"/><path d="M1082.86 119.853C1090.32 119.853 1097.08 121.04 1103.15 123.416 1109.22 125.791 1114.42 129.176 1118.75 133.571 1123.07 137.965 1126.37 143.191 1128.62 149.249 1130.87 155.306 1132 161.987 1132 169.292 1132 176.537 1130.86 183.218 1128.57 189.335 1126.29 195.451 1122.98 200.707 1118.66 205.102 1114.33 209.496 1109.16 212.867 1103.15 215.212 1097.14 217.558 1090.38 218.731 1082.86 218.731 1075.41 218.731 1068.71 217.543 1062.76 215.168 1056.81 212.792 1051.66 209.392 1047.3 204.968 1042.94 200.544 1039.63 195.318 1037.38 189.29 1035.13 183.262 1034 176.596 1034 169.292 1034 161.928 1035.14 155.188 1037.43 149.071 1039.71 142.954 1042.99 137.728 1047.25 133.393 1051.52 129.057 1056.69 125.717 1062.76 123.371 1068.83 121.025 1075.53 119.853 1082.86 119.853ZM1082.86 137.847C1078.06 137.847 1073.82 139.079 1070.15 141.543 1066.49 144.008 1063.66 147.645 1061.68 152.456 1059.69 157.266 1058.7 162.878 1058.7 169.292 1058.7 175.646 1059.68 181.199 1061.63 185.95 1063.59 190.701 1066.38 194.338 1070.02 196.862 1073.65 199.386 1077.94 200.648 1082.86 200.648 1090.32 200.648 1096.25 197.871 1100.67 192.319 1105.09 186.766 1107.3 179.091 1107.3 169.292 1107.3 159.374 1105.09 151.654 1100.67 146.131 1096.25 140.608 1090.32 137.847 1082.86 137.847Z" fill="#3948AC" fill-rule="evenodd"/><path d="M1161.36 119.853C1163.5 119.853 1165.44 120.357 1167.17 121.367 1168.9 122.377 1170.28 123.891 1171.33 125.91 1172.37 127.929 1172.89 130.394 1172.89 133.304L1172.89 136.243C1177.18 130.601 1181.88 126.459 1186.97 123.817 1192.07 121.174 1197.93 119.853 1204.54 119.853 1210.98 119.853 1216.73 121.248 1221.8 124.039 1226.87 126.831 1230.65 130.78 1233.16 135.887 1234.76 138.856 1235.81 142.063 1236.28 145.507 1236.76 148.952 1237 153.347 1237 158.691L1237 203.944C1237 208.813 1235.88 212.495 1233.65 214.99 1231.41 217.484 1228.51 218.731 1224.93 218.731 1221.29 218.731 1218.34 217.454 1216.08 214.901 1213.81 212.347 1212.68 208.695 1212.68 203.944L1212.68 163.413C1212.68 155.395 1211.56 149.264 1209.33 145.018 1207.09 140.771 1202.64 138.648 1195.96 138.648 1191.61 138.648 1187.64 139.94 1184.07 142.523 1180.49 145.107 1177.87 148.655 1176.2 153.168 1175.01 156.791 1174.41 163.561 1174.41 173.479L1174.41 203.944C1174.41 208.873 1173.26 212.57 1170.97 215.034 1168.67 217.499 1165.71 218.731 1162.07 218.731 1158.55 218.731 1155.66 217.454 1153.4 214.901 1151.13 212.347 1150 208.695 1150 203.944L1150 133.66C1150 129.028 1151.01 125.569 1153.04 123.282 1155.07 120.996 1157.84 119.853 1161.36 119.853Z" fill="#3948AC" fill-rule="evenodd"/><path d="M198.5 48.9398C201.848 48.9398 205.117 49.6489 208.275 50.9993L211.946 52.9725 208.359 55.3871C207.123 56.6202 206.124 58.0885 205.433 59.719L205.066 61.5345 202.32 60.5223C201.064 60.2142 199.79 60.0563 198.5 60.0563 177.864 60.0563 161.135 100.467 161.135 150.315 161.135 200.164 177.864 240.574 198.5 240.574 219.136 240.574 235.865 200.164 235.865 150.315 235.865 125.391 231.683 102.826 224.921 86.4925L220.714 78.1073 223.324 77.5812C224.957 76.8915 226.428 75.8936 227.663 74.6605L229.185 72.407 232.795 78.6319C241.572 96.9773 247 122.321 247 150.315 247 206.303 225.286 251.69 198.5 251.69 171.714 251.69 150 206.303 150 150.315 150 94.3271 171.714 48.9398 198.5 48.9398Z" fill="url(#fill0)" fill-rule="evenodd"/><path d="M243.812 84.7411C264.111 83.1564 280.014 87.9678 286.709 99.5506 300.1 122.716 271.591 164.195 223.031 192.197 174.471 220.198 124.251 224.119 110.859 200.953 108.349 196.609 107.311 191.622 107.602 186.2L107.88 184.081 111.144 186.279C112.777 186.969 114.573 187.35 116.457 187.351L118.36 186.967 118.327 187.963C118.5 190.668 119.211 193.162 120.501 195.393 130.818 213.24 174.23 207.498 217.465 182.567 260.699 157.636 287.385 122.958 277.068 105.11 266.751 87.2631 223.339 93.0056 180.104 117.936 158.487 130.402 141.007 145.304 130.221 159.321L126.6 164.808 126.108 164.079C124.873 162.846 123.403 161.848 121.77 161.158L117.083 160.213 119.467 156.443C130.99 139.678 150.258 122.307 174.538 108.307 198.817 94.306 223.513 86.3256 243.812 84.7411Z" fill="url(#fill1)" fill-rule="evenodd"/><path d="M153.916 83.9667C174.215 85.5512 198.911 93.5316 223.19 107.532 271.75 135.534 300.26 177.013 286.869 200.179 285.195 203.074 282.945 205.547 280.196 207.602L276.275 209.596 275.108 203.845 272.326 199.739 277.227 194.619C287.544 176.772 260.858 142.093 217.624 117.162 174.389 92.2311 130.977 86.4887 120.66 104.336 110.343 122.183 137.029 156.862 180.263 181.793 201.881 194.258 223.542 201.926 241.089 204.248L246.598 204.574 245.537 209.807 246.587 214.985 243.971 214.988C223.672 213.404 198.977 205.423 174.697 191.422 126.137 163.421 97.6274 121.942 111.019 98.7762 117.714 87.1934 133.617 82.3821 153.916 83.9667Z" fill="url(#fill2)" fill-rule="evenodd"/><path d="M207 64.4208C207 58.6289 211.925 53.9336 218 53.9336 224.075 53.9336 229 58.6289 229 64.4208 229 70.2126 224.075 74.9079 218 74.9079 211.925 74.9079 207 70.2126 207 64.4208Z" fill="#003399" fill-rule="evenodd"/><path d="M250 209.243C250 202.899 255.149 197.757 261.5 197.757 267.851 197.757 273 202.899 273 209.243 273 215.586 267.851 220.729 261.5 220.729 255.149 220.729 250 215.586 250 209.243Z" fill="#003399" fill-rule="evenodd"/><path d="M106 174.286C106 168.494 110.925 163.799 117 163.799 123.075 163.799 128 168.494 128 174.286 128 180.078 123.075 184.773 117 184.773 110.925 184.773 106 180.078 106 174.286Z" fill="#003399" fill-rule="evenodd"/></g></svg>