<?xml version="1.0" encoding="utf-8"?>
<svg xmlns="http://www.w3.org/2000/svg" width="934" height="612" viewBox="133 139 934 612" role="img" shape-rendering="geometricPrecision" aria-label="Noodle Gallery stacked lockup light, 4:3, transparent background">
  <g transform="matrix(0.95, 0, 0, 0.95, 114.074959, -54.893787)">
    <g transform="matrix(1.171334, 0, 0, 1.171334, 216.909439, 110.888733)" style="">
      <g>
        <g transform="matrix(1, 0, 0, 1, -20.332947, -27.285006)">
          <title>Frame_TopRight</title>
          <path d="M 345.332 139.968 L 366.332 172.635 L 268.333 172.635 L 268.333 107.302 L 314.999 107.302 C 324.332 107.302 331.332 118.968 331.332 118.968 L 345.332 139.968 Z" style="fill: rgb(144, 179, 71);">
            <title>GreenTop</title>
          </path>
          <path d="M 410.666 140 C 410.666 140 412.583 140 373.333 140 L 345.333 139.968 L 366.333 172.635 C 366.333 172.635 369.216 172.667 382.666 172.667 C 405.666 172.667 410.666 172.667 410.666 172.667 C 420 172.667 424.666 175 424.666 186.667 L 424.666 231 L 424.666 326.635 L 457.333 326.635 L 457.333 231 L 457.333 186.667 L 457.333 172.667 C 457.333 147 448 140 424.666 140 L 410.666 140 Z" style="stroke-width: 1; transform-origin: 392px 193.699px; fill: rgb(231, 200, 88);">
            <title>YellowRight</title>
          </path>
        </g>
        <g transform="matrix(1, 0, 0, 1, -4, -27.317019)">
          <title>Frame_TopLeft</title>
          <path d="M 161 172.666 L 182 139.999 L 196 118.999 C 196 118.999 203 107.333 210 107.333 L 259 107.334 L 259.001 172.666 L 161 172.666 Z" style="fill: rgb(144, 179, 71);">
            <title>GreenTop</title>
          </path>
          <path d="M 116.667 140 C 116.667 140 114.75 140 154 140 L 182 140 L 161 172.667 C 161 172.667 158.117 172.667 144.667 172.667 C 121.667 172.667 116.667 172.667 116.667 172.667 C 107.333 172.667 102.667 175 102.667 186.667 L 102.667 231 L 102.667 324.334 L 70 324.334 L 70 231 L 70 186.667 L 70 172.667 C 70 147 79.333 140 102.667 140 L 116.667 140 Z" style="fill: rgb(228, 90, 69);">
            <title>RedLeft</title>
          </path>
        </g>
        <g transform="matrix(1, 0, 0, 1, -3.499985, 26.317017)">
          <title>Frame_Bottom</title>
          <path d="M 393.833 424.668 C 393.833 424.668 395.75 424.668 356.5 424.668 L 237.5 424.7 L 237.5 392.033 C 237.5 392.033 352.383 392.001 365.833 392.001 C 388.833 392.001 393.833 392.001 393.833 392.001 C 403.167 392.001 407.833 389.668 407.833 378.001 L 407.833 333.668 L 407.833 270.7 L 440.5 270.7 L 440.5 333.668 L 440.5 378.001 L 440.5 392.001 C 440.5 417.668 431.167 424.668 407.833 424.668 L 393.833 424.668 Z" style="stroke-width: 1; fill: rgb(80, 127, 222);">
            <title>BlueBottomRight</title>
          </path>
          <path d="M 116.167 424.667 C 116.167 424.667 114.25 424.667 153.5 424.667 L 244.5 424.7 L 244.5 392.033 C 244.5 392.033 157.617 392 144.167 392 C 121.167 392 116.167 392 116.167 392 C 106.833 392 102.167 389.667 102.167 378 L 102.167 333.667 L 102.167 268.367 L 69.5 268.367 L 69.5 333.667 L 69.5 378 L 69.5 392 C 69.5 417.667 78.833 424.667 102.167 424.667 L 116.167 424.667 Z" style="fill: rgb(80, 127, 222);">
            <title>BlueBottomLeft</title>
          </path>
        </g>
        <g transform="matrix(1, 0, 0, 1, -4.324997, -3.067994)">
          <title>Lens</title>
          <path d="M 168.574 282.334 C 168.574 258.058 178.432 236.085 194.362 220.198 L 217.344 241.507 C 206.582 251.786 199.877 266.277 199.877 282.334 C 199.877 297.989 206.25 312.157 216.544 322.382 L 194.426 344.534 C 178.458 328.643 168.574 306.643 168.574 282.334 Z" style="fill: rgb(228, 90, 69);"/>
          <path d="M 256.325 370.085 C 232.17 370.085 210.294 360.325 194.426 344.534 L 216.544 322.382 C 226.748 332.519 240.805 338.782 256.325 338.782 C 273.914 338.782 289.624 330.737 299.977 318.126 L 322.958 339.435 C 306.864 358.198 282.983 370.085 256.325 370.085 Z" style="fill: rgb(80, 127, 222);"/>
          <path d="M 344.076 282.334 C 344.076 304.14 336.122 324.088 322.958 339.435 L 299.977 318.126 C 307.973 308.385 312.773 295.92 312.773 282.334 C 312.773 266.784 306.485 252.702 296.313 242.493 L 318.431 220.341 C 334.277 236.216 344.076 258.131 344.076 282.334 Z" style="fill: rgb(231, 200, 88);"/>
          <path d="M 194.362 220.198 C 210.235 204.369 232.137 194.583 256.325 194.583 C 280.586 194.583 302.547 204.428 318.431 220.341 L 296.313 242.493 C 286.092 232.235 271.95 225.886 256.325 225.886 C 241.207 225.886 227.477 231.829 217.344 241.507 Z" style="fill: rgb(54, 179, 72);"/>
          <path d="M 194.362 220.199 C 210.234 204.37 232.136 194.584 256.323 194.584 C 280.583 194.584 302.544 204.429 318.427 220.342 L 296.31 242.493 C 286.089 232.235 271.948 225.887 256.323 225.887 C 241.206 225.887 227.476 231.829 217.343 241.507 L 194.362 220.199 Z" style="fill: rgb(144, 179, 71);"/>
        </g>
        <rect x="79.5" y="84.183" width="91" height="21" style="fill: rgb(228, 90, 69);" rx="10.5" ry="10.5"/>
      </g>
    </g>
  </g>
  <g transform="matrix(1, 0, 0, 1, -17.983002, 0)">
    <path d="M 151.366 721.565 Q 151.366 721.565 151.366 721.565 Q 151.366 721.565 151.366 721.565 L 151.366 623.473 Q 151.366 623.473 151.366 623.473 Q 151.366 623.473 151.366 623.473 L 173.697 623.473 Q 173.697 623.473 173.697 623.473 Q 173.697 623.473 173.697 623.473 L 212.194 684.096 L 212.605 684.096 L 212.126 667.93 L 212.126 623.473 Q 212.126 623.473 212.126 623.473 Q 212.126 623.473 212.126 623.473 L 233.155 623.473 Q 233.155 623.473 233.155 623.473 Q 233.155 623.473 233.155 623.473 L 233.155 721.565 Q 233.155 721.565 233.155 721.565 Q 233.155 721.565 233.155 721.565 L 213.496 721.565 Q 213.496 721.565 213.496 721.565 Q 213.496 721.565 213.496 721.565 L 172.396 658.477 L 171.916 658.477 L 172.396 674.574 L 172.396 721.565 Q 172.396 721.565 172.396 721.565 Q 172.396 721.565 172.396 721.565 Z M 285.478 723.894 Q 268.558 723.894 257.701 713.277 Q 246.844 702.659 246.844 686.356 L 246.844 686.356 Q 246.844 669.848 257.735 659.264 Q 268.627 648.681 285.478 648.681 Q 302.26 648.681 313.186 659.299 Q 324.112 669.916 324.112 686.356 L 324.112 686.356 Q 324.112 702.659 313.255 713.277 Q 302.397 723.894 285.478 723.894 Z M 285.478 705.879 Q 293.081 705.879 298.185 700.364 Q 303.288 694.85 303.288 686.288 L 303.288 686.288 Q 303.288 677.657 298.15 672.211 Q 293.013 666.765 285.478 666.765 Q 277.874 666.765 272.771 672.211 Q 267.668 677.657 267.668 686.288 L 267.668 686.288 Q 267.668 694.85 272.737 700.364 Q 277.806 705.879 285.478 705.879 Z M 370.277 723.894 Q 353.358 723.894 342.501 713.277 Q 331.643 702.659 331.643 686.356 L 331.643 686.356 Q 331.643 669.848 342.535 659.264 Q 353.426 648.681 370.277 648.681 Q 387.06 648.681 397.986 659.299 Q 408.911 669.916 408.911 686.356 L 408.911 686.356 Q 408.911 702.659 398.054 713.277 Q 387.197 723.894 370.277 723.894 Z M 370.277 705.879 Q 377.881 705.879 382.984 700.364 Q 388.087 694.85 388.087 686.288 L 388.087 686.288 Q 388.087 677.657 382.95 672.211 Q 377.812 666.765 370.277 666.765 Q 362.674 666.765 357.571 672.211 Q 352.467 677.657 352.467 686.288 L 352.467 686.288 Q 352.467 694.85 357.536 700.364 Q 362.605 705.879 370.277 705.879 Z M 449.117 723.894 Q 434.938 723.894 425.69 713.688 Q 416.443 703.481 416.443 686.493 L 416.443 686.493 Q 416.443 669.711 425.93 659.23 Q 435.417 648.75 450.076 648.75 Q 456.858 648.75 462.578 651.558 Q 468.297 654.367 471.174 658.956 L 471.517 659.025 L 471.517 623.473 Q 471.517 623.473 471.517 623.473 Q 471.517 623.473 471.517 623.473 L 492.752 623.473 Q 492.752 623.473 492.752 623.473 Q 492.752 623.473 492.752 623.473 L 492.752 721.565 Q 492.752 721.565 492.752 721.565 Q 492.752 721.565 492.752 721.565 L 472.27 721.565 Q 472.27 721.565 472.27 721.565 Q 472.27 721.565 472.27 721.565 L 472.27 710.057 L 474.462 712.866 L 471.791 712.866 Q 468.777 717.866 462.68 720.88 Q 456.584 723.894 449.117 723.894 Z M 454.666 706.016 Q 462.064 706.016 467.03 700.467 Q 471.996 694.919 471.996 686.288 L 471.996 686.288 Q 471.996 677.657 466.996 672.177 Q 461.995 666.697 454.666 666.697 Q 447.268 666.697 442.302 672.142 Q 437.335 677.588 437.335 686.356 L 437.335 686.356 Q 437.335 694.987 442.302 700.501 Q 447.268 706.016 454.666 706.016 Z M 508.909 721.565 Q 508.909 721.565 508.909 721.565 Q 508.909 721.565 508.909 721.565 L 508.909 623.473 Q 508.909 623.473 508.909 623.473 Q 508.909 623.473 508.909 623.473 L 530.349 623.473 Q 530.349 623.473 530.349 623.473 Q 530.349 623.473 530.349 623.473 L 530.349 721.565 Q 530.349 721.565 530.349 721.565 Q 530.349 721.565 530.349 721.565 Z M 579.551 723.894 Q 562.494 723.894 552.425 713.482 Q 542.355 703.07 542.355 686.562 L 542.355 686.562 Q 542.355 670.122 552.699 659.504 Q 563.042 648.887 579.962 648.887 Q 594.895 648.887 604.93 658.853 Q 614.965 668.82 614.965 685.603 Q 614.965 687.521 614.828 689.096 Q 614.691 690.672 614.28 693.069 Q 614.28 693.069 614.28 693.069 Q 614.28 693.069 614.28 693.069 L 552.356 693.138 L 552.356 677.451 L 594.621 677.451 L 594.621 677.451 Q 593.73 672.04 589.928 668.683 Q 586.127 665.327 579.893 665.327 Q 572.495 665.327 567.871 670.67 Q 563.248 676.013 563.248 685.603 L 563.248 685.603 Q 563.248 696.22 568.454 702.282 Q 573.66 708.345 582.496 708.345 Q 588.387 708.345 593.079 705.776 Q 597.772 703.207 601.539 698.412 Q 601.539 698.412 601.539 698.412 Q 601.539 698.412 601.539 698.412 L 613.047 708.756 Q 613.047 708.756 613.047 708.756 Q 613.047 708.756 613.047 708.756 Q 606.814 716.085 599.005 719.99 Q 591.196 723.894 579.551 723.894 Z" style="stroke-miterlimit: 1; text-wrap-mode: nowrap; fill: rgb(255, 255, 255);"/>
    <path d="M 706.162 723.689 Q 684.927 723.346 670.166 708.516 Q 655.404 693.686 655.404 672.245 L 655.404 672.245 Q 655.404 650.668 670.234 636.009 Q 685.064 621.35 706.162 621.35 Q 718.218 621.35 727.397 625.425 Q 736.576 629.501 742.604 636.42 Q 742.604 636.42 742.604 636.42 Q 742.604 636.42 742.604 636.42 L 734.521 644.64 Q 734.521 644.64 734.521 644.64 Q 734.521 644.64 734.521 644.64 Q 727.603 637.173 720.684 634.741 Q 713.766 632.31 706.436 632.31 Q 689.859 632.31 678.488 643.441 Q 667.117 654.572 667.117 672.177 L 667.117 672.177 Q 667.117 689.781 678.488 701.255 Q 689.859 712.729 706.299 712.729 Q 721.78 712.729 731.61 704.132 Q 741.44 695.535 742.673 680.123 L 742.673 680.123 L 706.436 680.123 Q 706.436 680.123 706.436 680.123 Q 706.436 680.123 706.436 680.123 L 706.436 669.368 Q 706.436 669.368 706.436 669.368 Q 706.436 669.368 706.436 669.368 L 753.564 669.368 Q 753.564 669.368 753.564 669.368 Q 753.564 669.368 753.564 669.368 Q 753.907 671.903 754.044 673.478 Q 754.181 675.054 754.181 676.355 Q 754.181 697.316 740.721 710.537 Q 727.26 723.757 706.162 723.689 Z M 788.079 723.689 Q 776.434 723.689 769.105 717.113 Q 761.775 710.537 761.775 700.125 L 761.775 700.125 Q 761.775 689.644 769.995 683.274 Q 778.215 676.903 791.162 676.903 Q 796.984 676.903 802.499 678.205 Q 808.013 679.506 811.232 681.424 L 811.232 677.04 Q 811.232 669.368 805.821 664.573 Q 800.409 659.778 791.915 659.778 Q 785.819 659.778 781.538 662.039 Q 777.256 664.299 773.078 669.3 Q 773.078 669.3 773.078 669.3 Q 773.078 669.3 773.078 669.3 L 764.31 662.792 Q 764.31 662.792 764.31 662.792 Q 764.31 662.792 764.31 662.792 Q 770.749 655.257 776.88 652.346 Q 783.01 649.435 791.984 649.435 Q 805.958 649.435 814.109 656.901 Q 822.261 664.368 822.261 677.177 L 822.261 721.565 Q 822.261 721.565 822.261 721.565 Q 822.261 721.565 822.261 721.565 L 811.232 721.565 Q 811.232 721.565 811.232 721.565 Q 811.232 721.565 811.232 721.565 L 811.232 704.783 L 815.274 711.427 L 810.821 711.427 Q 807.533 716.907 801.368 720.298 Q 795.203 723.689 788.079 723.689 Z M 789.107 713.414 Q 798.217 713.414 804.725 706.975 Q 811.232 700.536 811.232 691.288 L 811.232 691.288 Q 807.807 688.959 802.978 687.658 Q 798.149 686.356 792.874 686.356 Q 783.969 686.356 778.798 689.85 Q 773.626 693.343 773.626 700.33 L 773.626 700.33 Q 773.626 706.153 778.01 709.783 Q 782.394 713.414 789.107 713.414 Z M 838.755 721.565 Q 838.755 721.565 838.755 721.565 Q 838.755 721.565 838.755 721.565 L 838.755 623.473 Q 838.755 623.473 838.755 623.473 Q 838.755 623.473 838.755 623.473 L 850.263 623.473 Q 850.263 623.473 850.263 623.473 Q 850.263 623.473 850.263 623.473 L 850.263 721.565 Q 850.263 721.565 850.263 721.565 Q 850.263 721.565 850.263 721.565 Z M 867.389 721.565 Q 867.389 721.565 867.389 721.565 Q 867.389 721.565 867.389 721.565 L 867.389 623.473 Q 867.389 623.473 867.389 623.473 Q 867.389 623.473 867.389 623.473 L 878.897 623.473 Q 878.897 623.473 878.897 623.473 Q 878.897 623.473 878.897 623.473 L 878.897 721.565 Q 878.897 721.565 878.897 721.565 Q 878.897 721.565 878.897 721.565 Z M 927.122 723.689 Q 911.846 723.689 902.085 713.208 Q 892.324 702.728 892.324 686.425 L 892.324 686.425 Q 892.324 670.464 901.914 659.949 Q 911.504 649.435 926.163 649.435 Q 941.096 649.435 950.241 659.299 Q 959.385 669.163 959.385 684.918 Q 959.385 686.151 959.317 686.836 Q 959.248 687.521 959.111 688.822 Q 959.111 688.822 959.111 688.822 Q 959.111 688.822 959.111 688.822 L 899.105 688.822 L 899.105 679.232 L 947.261 679.232 L 947.261 679.232 Q 946.644 671.081 941.062 665.498 Q 935.479 659.915 926.163 659.915 Q 916.23 659.915 910.031 667.142 Q 903.832 674.369 903.832 686.425 L 903.832 686.425 Q 903.832 698.686 910.682 705.947 Q 917.532 713.208 927.67 713.208 Q 934.451 713.208 939.281 710.297 Q 944.11 707.386 948.22 700.536 Q 948.22 700.536 948.22 700.536 Q 948.22 700.536 948.22 700.536 L 957.947 705.262 Q 957.947 705.262 957.947 705.262 Q 957.947 705.262 957.947 705.262 Q 953.563 714.647 945.822 719.168 Q 938.082 723.689 927.122 723.689 Z M 972.887 721.565 Q 972.887 721.565 972.887 721.565 Q 972.887 721.565 972.887 721.565 L 972.887 651.627 Q 972.887 651.627 972.887 651.627 Q 972.887 651.627 972.887 651.627 L 983.847 651.627 Q 983.847 651.627 983.847 651.627 Q 983.847 651.627 983.847 651.627 L 983.847 664.162 L 982.134 662.861 L 984.258 662.861 Q 986.313 657.175 992.17 653.305 Q 998.026 649.435 1004.328 649.435 Q 1006.041 649.435 1007.959 649.709 Q 1009.877 649.983 1012.822 650.873 Q 1012.822 650.873 1012.822 650.873 Q 1012.822 650.873 1012.822 650.873 L 1012.822 663.066 Q 1012.822 663.066 1012.822 663.066 Q 1012.822 663.066 1012.822 663.066 Q 1008.712 661.833 1006.555 661.559 Q 1004.397 661.285 1003.164 661.285 Q 995.423 661.285 989.909 667.382 Q 984.395 673.478 984.395 682.178 L 984.395 721.565 Q 984.395 721.565 984.395 721.565 Q 984.395 721.565 984.395 721.565 Z M 1029.732 751.02 Q 1029.732 751.02 1029.732 751.02 Q 1029.732 751.02 1029.732 751.02 L 1047.131 712.934 L 1047.542 721.565 L 1016.374 651.627 Q 1016.374 651.627 1016.374 651.627 Q 1016.374 651.627 1016.374 651.627 L 1028.841 651.627 Q 1028.841 651.627 1028.841 651.627 Q 1028.841 651.627 1028.841 651.627 L 1049.186 699.097 L 1050.83 703.755 L 1051.241 703.755 L 1053.022 698.96 L 1072.202 651.627 Q 1072.202 651.627 1072.202 651.627 Q 1072.202 651.627 1072.202 651.627 L 1084.6 651.627 Q 1084.6 651.627 1084.6 651.627 Q 1084.6 651.627 1084.6 651.627 L 1041.719 751.02 Q 1041.719 751.02 1041.719 751.02 Q 1041.719 751.02 1041.719 751.02 Z" style="stroke-miterlimit: 1; text-wrap-mode: nowrap; fill: rgb(255, 255, 255);"/>
  </g>
</svg>