<svg width="502" height="125" viewBox="0 0 502 125" fill="none" xmlns="http://www.w3.org/2000/svg">
<path d="M11.73 4.18066C18.07 4.18066 23.25 9.36066 23.25 15.5307C23.25 21.8707 18.07 26.8807 11.73 26.8807C5.39004 26.8807 0.0400391 21.8707 0.0400391 15.5307C0.0400391 9.36066 5.39004 4.18066 11.73 4.18066ZM1.88004 63.4507C1.88004 60.4407 1.21002 55.6007 1.21002 52.7707C1.21002 46.7607 5.88004 42.0907 11.73 42.0907C17.57 42.0907 22.25 46.7607 22.25 52.7707C22.25 55.6107 21.42 60.4507 21.42 63.4507V102.181C21.42 105.191 22.25 110.031 22.25 112.861C22.25 118.871 17.58 123.541 11.73 123.541C5.89004 123.541 1.21002 118.871 1.21002 112.861C1.21002 110.021 1.88004 105.181 1.88004 102.181V63.4507Z" fill="#4251B0"/>
<path d="M137.28 112.87C137.28 110.03 138.11 105.19 138.11 102.19V73.3C138.11 63.12 132.77 56.44 123.59 56.44C117.58 56.44 112.24 59.44 108.73 65.29C109.06 67.13 109.23 68.96 109.23 70.97V102.19C109.23 105.2 110.06 110.04 110.06 112.87C110.06 118.88 105.39 123.55 99.38 123.55C93.87 123.55 89.03 118.88 89.03 112.87C89.03 110.03 89.86 105.19 89.86 102.19V72.8C89.86 69.63 89.36 66.79 88.19 64.29C86.02 59.45 81.68 56.44 75.67 56.44C69.49 56.44 64.48 59.61 60.81 65.29V102.19C60.81 105.2 61.64 110.04 61.64 112.87C61.64 118.88 56.8 123.55 51.12 123.55C45.28 123.55 40.6 118.88 40.6 112.87C40.6 110.03 41.27 105.19 41.27 102.19V63.62C41.27 60.61 39.77 55.27 39.77 52.77C39.77 46.76 44.11 42.09 49.95 42.09C55.46 42.09 58.63 45.76 59.63 50.6C64.64 43.92 71.65 39.75 80.83 39.75C91.68 39.75 99.53 44.93 104.37 53.27C109.88 44.59 117.89 39.75 127.91 39.75C144.77 39.75 157.63 51.94 157.63 71.47V102.19C157.63 105.2 158.3 110.04 158.3 112.87C158.3 118.88 153.79 123.55 147.78 123.55C142.12 123.55 137.28 118.88 137.28 112.87Z" fill="#4251B0"/>
<path d="M271.5 112.87C271.5 110.03 272.33 105.19 272.33 102.19V73.3C272.33 63.12 266.99 56.44 257.81 56.44C251.8 56.44 246.46 59.44 242.95 65.29C243.28 67.13 243.45 68.96 243.45 70.97V102.19C243.45 105.2 244.29 110.04 244.29 112.87C244.29 118.88 239.62 123.55 233.61 123.55C228.1 123.55 223.26 118.88 223.26 112.87C223.26 110.03 224.1 105.19 224.1 102.19V72.8C224.1 69.63 223.6 66.79 222.43 64.29C220.26 59.45 215.92 56.44 209.91 56.44C203.73 56.44 198.72 59.61 195.05 65.29V102.19C195.05 105.2 195.88 110.04 195.88 112.87C195.88 118.88 191.04 123.55 185.36 123.55C179.52 123.55 174.84 118.88 174.84 112.87C174.84 110.03 175.51 105.19 175.51 102.19V63.62C175.51 60.61 174.01 55.27 174.01 52.77C174.01 46.76 178.35 42.09 184.19 42.09C189.7 42.09 192.87 45.76 193.87 50.6C198.88 43.92 205.89 39.75 215.07 39.75C225.92 39.75 233.77 44.93 238.61 53.27C244.12 44.59 252.13 39.75 262.15 39.75C279.01 39.75 291.87 51.94 291.87 71.47V102.19C291.87 105.2 292.54 110.04 292.54 112.87C292.54 118.88 288.03 123.55 282.02 123.55C276.35 123.55 271.5 118.88 271.5 112.87Z" fill="#4251B0"/>
<path d="M319.92 4.18066C326.26 4.18066 331.44 9.36066 331.44 15.5307C331.44 21.8707 326.26 26.8807 319.92 26.8807C313.58 26.8807 308.23 21.8707 308.23 15.5307C308.23 9.36066 313.57 4.18066 319.92 4.18066ZM310.07 63.4507C310.07 60.4407 309.4 55.6007 309.4 52.7707C309.4 46.7607 314.07 42.0907 319.92 42.0907C325.77 42.0907 330.44 46.7607 330.44 52.7707C330.44 55.6107 329.6 60.4507 329.6 63.4507V102.181C329.6 105.191 330.44 110.031 330.44 112.861C330.44 118.871 325.77 123.541 319.92 123.541C314.07 123.541 309.4 118.871 309.4 112.861C309.4 110.021 310.07 105.181 310.07 102.181V63.4507Z" fill="#4251B0"/>
<path d="M344.79 82.3102C344.79 58.7702 359.48 39.7402 383.86 39.7402C396.72 39.7402 408.57 45.5802 413.91 54.2702C415.91 57.4402 416.25 59.2802 416.25 60.7802C416.25 65.9602 412.24 70.3002 406.4 70.3002C402.56 70.3002 399.06 68.1302 397.55 64.2902C395.21 59.1102 390.7 56.1102 383.86 56.1102C371 56.1102 363.83 67.6302 363.83 82.1502C363.83 96.8402 371.34 108.19 384.36 108.19C391.37 108.19 396.38 105.69 398.72 100.51C400.39 97.0002 403.56 94.0002 407.9 94.0002C413.91 94.0002 417.58 98.1702 417.58 103.35C417.58 105.85 416.58 108.86 414.41 111.7C408.9 119.05 398.55 124.89 384.36 124.89C359.32 124.89 344.79 106.19 344.79 82.3102Z" fill="#4251B0"/>
<path d="M480.69 112.87C480.69 110.03 481.36 105.19 481.36 102.19V73.6403C481.36 63.4603 475.68 56.4403 466 56.4403C459.32 56.4403 453.65 59.6103 449.97 64.7903V102.19C449.97 105.2 450.64 110.04 450.64 112.87C450.64 118.88 445.97 123.55 440.12 123.55C434.27 123.55 429.6 118.88 429.6 112.87C429.6 110.03 430.44 105.19 430.44 102.19V21.3903C430.44 18.3803 429.6 13.5403 429.6 10.7103C429.6 4.70027 434.44 0.0302734 440.12 0.0302734C445.96 0.0302734 450.64 4.70027 450.64 10.7103C450.64 13.5503 449.97 18.3903 449.97 21.3903V48.6003C454.98 43.0903 462.16 39.7503 471.34 39.7503C488.54 39.7503 500.89 52.6103 500.89 70.9703V102.19C500.89 105.2 501.72 110.04 501.72 112.87C501.72 118.88 496.88 123.55 491.2 123.55C485.36 123.55 480.69 118.88 480.69 112.87Z" fill="#4251B0"/>
</svg>
