<svg width="192" height="192" viewBox="0 0 192 192" fill="none" xmlns="http://www.w3.org/2000/svg">
<path d="M90.0492 58.8333C102.552 69.9022 112.627 81.7638 119.111 92.9428C130.248 73.0245 137.69 49.3562 137.784 34.2816C137.784 34.1749 137.784 34.0778 137.784 33.9872C137.784 11.6811 115.533 3 96.3651 3C77.1975 3 54.9464 11.6811 54.9464 33.9872C54.9464 34.2913 54.9464 34.699 54.9464 35.1908C65.6303 39.9407 78.2943 48.4276 90.0492 58.8333Z" fill="#FA2921"/>
<path d="M21.8495 119.662C29.6634 110.968 41.6513 101.546 55.1792 93.5802C69.5711 85.1095 83.9662 79.1916 96.6012 76.4834C81.0995 59.736 60.8901 45.3441 46.5791 40.5975C46.4788 40.5652 46.3849 40.5361 46.3008 40.5069C25.0851 33.6151 9.95223 52.0936 4.03111 70.3229C-1.89001 88.5522 -0.511647 112.398 20.7041 119.29C20.9921 119.384 21.3803 119.51 21.8495 119.662Z" fill="#ED79B5"/>
<path d="M188.925 70.0154C183.004 51.7861 167.871 33.3077 146.656 40.1995C146.365 40.2933 145.976 40.4195 145.51 40.5716C144.297 52.1971 140.139 66.8672 133.875 81.2623C127.213 96.5731 119.043 109.823 110.414 119.442C132.798 123.881 157.608 123.642 171.974 119.073C172.074 119.041 172.168 119.009 172.252 118.983C193.468 112.088 194.847 88.2415 188.925 70.0154Z" fill="#FFB400"/>
<path d="M77.4498 137.484C73.8421 121.18 72.6611 105.659 73.9877 92.8069C53.2703 102.375 33.3391 117.148 24.3992 129.291C24.3377 129.375 24.2794 129.456 24.2277 129.528C11.1171 147.576 24.0141 167.678 39.5223 178.941C55.0272 190.208 78.1325 196.265 91.2463 178.217C91.4275 177.971 91.667 177.641 91.9549 177.243C86.1018 167.125 80.8407 152.811 77.4498 137.484Z" fill="#1E83F7"/>
<path d="M168.379 128.363C156.948 130.802 141.712 131.382 126.084 129.871C109.463 128.266 94.3395 124.59 82.5232 119.355C85.2184 142.014 93.1132 165.536 101.898 177.79C101.959 177.874 102.018 177.955 102.069 178.026C115.18 196.074 138.285 190.017 153.793 178.751C169.298 167.484 182.199 147.382 169.088 129.337C168.907 129.091 168.667 128.761 168.379 128.363Z" fill="#18C249"/>
</svg>
