<svg width="900" height="600" viewBox="0 0 900 600" fill="none" xmlns="http://www.w3.org/2000/svg"><path fill="transparent" d="M0 0h900v600H0z"/><path d="M214.359 475.389c16.42 16.712 47.124 13.189 47.124 13.189s4.064-30.62-12.372-47.322c-16.419-16.712-47.109-13.198-47.109-13.198s-4.063 30.619 12.357 47.331z" fill="url(#a)"/><path d="M639.439 125.517c-17.194 9.808-41.345-.121-41.345-.121s3.743-25.827 20.946-35.623c17.194-9.808 41.335.11 41.335.11s-3.743 25.827-20.936 35.634z" fill="url(#b)"/><path d="M324.812 156.133c-17.672 17.987-50.72 14.194-50.72 14.194s-4.373-32.955 13.316-50.931c17.673-17.987 50.704-14.206 50.704-14.206s4.373 32.956-13.3 50.943z" fill="url(#c)"/><ellipse rx="15.17" ry="15.928" transform="matrix(1 0 0 -1 228.07 341.957)" fill="#E1E4E5"/><circle r="8.5" transform="matrix(1 0 0 -1 478.5 509.5)" fill="#9d9ea3"/><circle r="17.518" transform="matrix(1 0 0 -1 693.518 420.518)" fill="#9d9ea3"/><circle cx="708.183" cy="266.183" r="14.183" fill="#4F4F51"/><circle cx="247.603" cy="225.621" r="12.136" fill="#F8AE9D"/><ellipse cx="316.324" cy="510.867" rx="7.324" ry="6.867" fill="#E1E4E5"/><ellipse cx="664.796" cy="371.388" rx="9.796" ry="9.388" fill="#E1E4E5"/><circle cx="625.378" cy="479.378" r="11.377" fill="#E1E4E5"/><ellipse cx="401.025" cy="114.39" rx="5.309" ry="6.068" fill="#E1E4E5"/><circle cx="661.834" cy="300.834" r="5.58" transform="rotate(105 661.834 300.834)" fill="#E1E4E5"/><circle cx="654.769" cy="226.082" r="7.585" fill="#E1E4E5"/><ellipse cx="254.159" cy="284.946" rx="5.309" ry="4.551" fill="#E1E4E5"/><circle cx="521.363" cy="106.27" r="11.613" transform="rotate(105 521.363 106.27)" fill="#E1E4E5"/><path d="M162.314 308.103h-.149C161.284 320.589 152 320.781 152 320.781s10.238.2 10.238 14.628c0-14.428 10.238-14.628 10.238-14.628s-9.281-.192-10.162-12.678zm531.83-158.512h-.256c-1.518 21.504-17.507 21.835-17.507 21.835s17.632.345 17.632 25.192c0-24.847 17.632-25.192 17.632-25.192s-15.983-.331-17.501-21.835z" fill="#E1E4E5"/><path fill-rule="evenodd" clip-rule="evenodd" d="M553.714 397.505v56.123c0 20.672-16.743 37.416-37.415 37.416H329.22c-20.672 0-37.415-16.744-37.415-37.416V266.55c0-20.672 16.743-37.416 37.415-37.416h56.124" fill="url(#d)"/><path fill-rule="evenodd" clip-rule="evenodd" d="M363.07 155.431h214.049c26.28 0 47.566 21.286 47.566 47.566v214.049c0 26.28-21.286 47.566-47.566 47.566H363.07c-26.28 0-47.566-21.286-47.566-47.566V202.997c0-26.28 21.286-47.566 47.566-47.566z" fill="#9d9ea3"/><path d="m425.113 307.765 33.925 33.924 74.038-74.059" stroke="#fff" stroke-width="32.125" stroke-linecap="round" stroke-linejoin="round"/><defs><linearGradient id="a" x1="279.871" y1="532.474" x2="161.165" y2="346.391" gradientUnits="userSpaceOnUse"><stop stop-color="#fff"/><stop offset="1" stop-color="#EEE"/></linearGradient><linearGradient id="b" x1="573.046" y1="156.85" x2="712.364" y2="32.889" gradientUnits="userSpaceOnUse"><stop stop-color="#fff"/><stop offset="1" stop-color="#EEE"/></linearGradient><linearGradient id="c" x1="254.302" y1="217.573" x2="382.065" y2="17.293" gradientUnits="userSpaceOnUse"><stop stop-color="#fff"/><stop offset="1" stop-color="#EEE"/></linearGradient><linearGradient id="d" x1="417.175" y1="82.293" x2="425.251" y2="775.957" gradientUnits="userSpaceOnUse"><stop stop-color="#fff"/><stop offset="1" stop-color="#EEE"/></linearGradient></defs></svg>