<svg width="900" height="600" viewBox="0 0 900 600" fill="none" xmlns="http://www.w3.org/2000/svg"><path fill="transparent" d="M0 0h900v600H0z"/><path fill-rule="evenodd" clip-rule="evenodd" d="M279.457 345.206v-90.36c0-30.398 16.166-58.5 42.428-73.794l85.388-49.696a85.412 85.412 0 0 1 85.9 0l85.388 49.696c26.281 15.294 42.447 43.396 42.447 73.794v90.36c0 30.398-16.166 58.5-42.428 73.794l-85.388 49.696a85.416 85.416 0 0 1-85.9 0L321.904 419c-26.281-15.294-42.447-43.396-42.447-73.794z" fill="#a9a9ab"/><path fill-rule="evenodd" clip-rule="evenodd" d="M459.481 207.761c.568-4.09-4.68-6.255-7.16-2.953l-84.628 112.669c-1.98 2.636-.099 6.402 3.198 6.402h74.506a4 4 0 0 1 3.962 4.55l-8.859 63.773c-.568 4.091 4.681 6.255 7.161 2.953l84.627-112.669c1.981-2.636.1-6.402-3.198-6.402h-74.505a4 4 0 0 1-3.962-4.55l8.858-63.773z" fill="#fff"/><path fill-rule="evenodd" clip-rule="evenodd" d="M665.486 434.276h5.305a2.318 2.318 0 0 1 2.316 2.316v5.305a2.317 2.317 0 0 1-2.316 2.315h-5.305a2.323 2.323 0 0 1-2.315-2.315v-5.305c-.011-1.272 1.033-2.316 2.315-2.316zm18.392 0h5.306a2.325 2.325 0 0 1 2.315 2.316v5.305a2.317 2.317 0 0 1-2.315 2.315h-5.306a2.324 2.324 0 0 1-2.315-2.315v-5.305a2.325 2.325 0 0 1 2.315-2.316zm18.406 0h5.305a2.325 2.325 0 0 1 2.316 2.316v5.305a2.317 2.317 0 0 1-2.316 2.315h-5.305a2.323 2.323 0 0 1-2.315-2.315v-5.305c-.011-1.272 1.032-2.316 2.315-2.316zm18.393 0h5.305a2.325 2.325 0 0 1 2.316 2.316v5.305a2.317 2.317 0 0 1-2.316 2.315h-5.305a2.326 2.326 0 0 1-2.326-2.315v-5.305a2.34 2.34 0 0 1 2.326-2.316zm18.394 0h5.305a2.327 2.327 0 0 1 2.327 2.316v5.305a2.32 2.32 0 0 1-2.327 2.315h-5.305a2.323 2.323 0 0 1-2.315-2.315v-5.305a2.324 2.324 0 0 1 2.315-2.316zm-54.518 20.057h5.305a2.325 2.325 0 0 1 2.316 2.316v5.316a2.325 2.325 0 0 1-2.316 2.315h-5.305a2.317 2.317 0 0 1-2.315-2.315v-5.306a2.312 2.312 0 0 1 2.315-2.326zm18.393 0h5.305a2.324 2.324 0 0 1 2.315 2.316v5.316a2.324 2.324 0 0 1-2.315 2.315h-5.305a2.325 2.325 0 0 1-2.316-2.315v-5.306a2.313 2.313 0 0 1 2.316-2.326zm18.394 0h5.305a2.327 2.327 0 0 1 2.326 2.316v5.316a2.326 2.326 0 0 1-2.326 2.315h-5.305a2.325 2.325 0 0 1-2.316-2.315v-5.306a2.327 2.327 0 0 1 2.316-2.326zm-19.056-41.603h5.305a2.324 2.324 0 0 1 2.316 2.315v5.305a2.318 2.318 0 0 1-2.316 2.316h-5.305a2.324 2.324 0 0 1-2.315-2.316v-5.305c-.011-1.272 1.032-2.315 2.315-2.315zm18.393 0h5.305a2.324 2.324 0 0 1 2.316 2.315v5.305a2.318 2.318 0 0 1-2.316 2.316h-5.305a2.327 2.327 0 0 1-2.326-2.316v-5.305a2.34 2.34 0 0 1 2.326-2.315z" fill="#E1E4E5"/><path d="M705.906 321.348c-9.263 10.72-27.928 9.781-27.928 9.781s-3.636-18.32 5.636-29.035c9.262-10.72 27.918-9.787 27.918-9.787s3.636 18.321-5.626 29.041z" fill="url(#a)"/><path d="M170.231 299.913c-13.686 3.242-28.162-8.365-28.162-8.365s7.725-16.857 21.416-20.09c13.686-3.242 28.157 8.355 28.157 8.355s-7.725 16.858-21.411 20.1z" fill="url(#b)"/><path d="M377.117 115.387c13.812-2.792 22.112-19.425 22.112-19.425s-14.1-12.096-27.912-9.293c-13.812 2.793-22.112 19.414-22.112 19.414s14.1 12.096 27.912 9.304z" fill="url(#c)"/><path d="M590.84 520.606c22.282-5.12 35.032-32.453 35.032-32.453s-23.387-19.015-45.669-13.877c-22.282 5.12-35.033 32.435-35.033 32.435s23.387 19.015 45.67 13.895z" fill="url(#d)"/><circle cx="761" cy="361" r="6" transform="rotate(180 761 361)" fill="#a9a9ab"/><circle r="8.223" transform="matrix(-1 0 0 1 228.559 225.966)" fill="#a9a9ab"/><ellipse rx="13.816" ry="14.392" transform="matrix(-1 0 0 1 682.111 151.99)" fill="#a9a9ab"/><circle r="10.938" transform="matrix(-1 0 0 1 224.343 444.268)" fill="#a9a9ab"/><ellipse rx="13.323" ry="12.811" transform="matrix(-1 0 0 1 335.323 487.811)" fill="#E1E4E5"/><circle r="8.761" transform="matrix(-1 0 0 1 220.015 321.647)" fill="#E1E4E5"/><ellipse rx="7.687" ry="8.199" transform="matrix(0 -1 -1 0 449.686 522.199)" fill="#E1E4E5"/><circle r="7.475" transform="matrix(-1 0 0 1 514.475 101.475)" fill="#E1E4E5"/><circle r="7.305" transform="scale(1 -1) rotate(-75 -148.79 -314.306)" fill="#E1E4E5"/><circle r="9.718" transform="matrix(-1 0 0 1 278.718 137.718)" fill="#E1E4E5"/><ellipse rx="7.475" ry="5.98" transform="matrix(-1 0 0 1 728.104 228.79)" fill="#E1E4E5"/><circle r="15.202" transform="scale(1 -1) rotate(-75 211.984 -463.287)" fill="#E1E4E5"/><path d="M673.355 216h.195c1.158 16.407 13.36 16.66 13.36 16.66s-13.455.262-13.455 19.22c0-18.958-13.455-19.22-13.455-19.22s12.197-.253 13.355-16.66zM188 139h.337c1.994 28.712 23.008 29.154 23.008 29.154s-23.172.46-23.172 33.636c0-33.176-23.173-33.636-23.173-33.636s21.006-.442 23-29.154z" fill="#E1E4E5"/><defs><linearGradient id="a" x1="668.58" y1="358.33" x2="733.017" y2="241.446" gradientUnits="userSpaceOnUse"><stop stop-color="#fff"/><stop offset="1" stop-color="#EEE"/></linearGradient><linearGradient id="b" x1="118.692" y1="307.975" x2="238.502" y2="251.372" gradientUnits="userSpaceOnUse"><stop stop-color="#fff"/><stop offset="1" stop-color="#EEE"/></linearGradient><linearGradient id="c" x1="427.388" y1="101.099" x2="294.641" y2="99.868" gradientUnits="userSpaceOnUse"><stop stop-color="#fff"/><stop offset="1" stop-color="#EEE"/></linearGradient><linearGradient id="d" x1="671.765" y1="495.279" x2="456.404" y2="498.965" gradientUnits="userSpaceOnUse"><stop stop-color="#fff"/><stop offset="1" stop-color="#EEE"/></linearGradient></defs></svg>