<?xml version="1.0" encoding="utf-8"?>
<!-- Generator: Adobe Illustrator 27.3.1, SVG Export Plug-In . SVG Version: 6.00 Build 0)  -->
<svg version="1.1" xmlns="http://www.w3.org/2000/svg" xmlns:xlink="http://www.w3.org/1999/xlink" x="0px" y="0px"
	 viewBox="0 0 1284.336 347.633" style="enable-background:new 0 0 1284.336 347.633;" xml:space="preserve">
<g id="LOGOS">
	<g>
		<path d="M106.164,106.163h62.449c32.928,0,51.473,14.004,51.473,38.794c0,22.898-16.085,37.848-43.336,40.876l47.877,55.447v0.189
			h-23.276l-46.553-54.879h-30.089v54.879h-18.545V106.163z M165.585,171.073c23.276,0,36.145-8.894,36.145-25.169
			c0-15.328-11.354-23.655-32.36-23.655h-44.661v48.824H165.585z"/>
		<path d="M247.471,106.163h106.164v16.842h-87.618v40.876h73.993v15.896h-73.993v61.692h-18.545V106.163z"/>
		<path d="M426.01,209.867l16.274-9.651c7.948,18.167,24.791,28.575,47.121,28.575c20.627,0,35.009-9.083,35.009-22.898
			c0-12.301-10.787-20.438-31.603-24.223l-21.952-4.163c-26.304-4.92-40.497-17.789-40.497-36.902
			c0-22.709,20.627-37.659,52.041-37.659c26.683,0,47.499,10.976,57.15,30.278l-15.329,10.03
			c-6.812-15.707-21.952-24.412-42.768-24.412c-20.249,0-32.36,7.759-32.36,20.816c0,11.544,9.083,18.167,30.089,22.141l20.06,3.596
			c28.386,5.299,43.903,19.492,43.903,39.74c0,24.033-21.762,39.551-55.068,39.551C458.37,244.687,435.472,231.818,426.01,209.867z"
			/>
		<path d="M607.87,122.627h-51.284v-16.464H677.51v16.464h-51.284V241.47H607.87V122.627z"/>
		<path d="M699.012,192.078v-85.915h18.545v82.508c0,27.629,17.032,39.551,41.254,39.551c24.601,0,41.443-11.354,41.443-39.362
			v-82.698H818.8v85.725c0,31.792-21.195,52.798-60.557,52.798C719.071,244.687,699.012,223.492,699.012,192.078z"/>
		<path d="M845.675,106.163h49.959c37.848,0,74.75,19.302,74.75,67.369c0,47.878-36.523,67.937-76.074,67.937h-48.635V106.163z
			 M894.121,224.627c33.685,0,57.529-15.707,57.529-51.095c0-35.198-23.276-50.527-57.339-50.527h-30.089v101.622H894.121z"/>
		<path d="M993.286,106.163h18.545V241.47h-18.545V106.163z"/>
		<path d="M1034.728,173.722c0-44.282,33.307-70.776,72.479-70.776c38.416,0,70.965,26.115,70.965,71.154
			c0,44.85-32.549,70.586-70.965,70.586C1068.413,244.687,1034.728,218.95,1034.728,173.722z M1159.059,174.1
			c0-33.495-22.141-54.69-52.041-54.69c-29.71,0-53.176,20.816-53.176,54.312c0,33.495,23.087,54.501,53.366,54.501
			C1138.053,228.223,1159.059,206.65,1159.059,174.1z"/>
	</g>
</g>
<g id="INFOS" style="display:none;">
	<path style="display:inline;opacity:0.2;fill:#E20613;" d="M818.8,106.163h26.875V241.47H818.8V106.163z"/>
	<path style="display:inline;opacity:0.2;fill:#E20613;" d="M543.149,106.163h13.438V241.47h-13.438V106.163z"/>
	<path style="display:inline;opacity:0.2;fill:#E20613;" d="M677.512,106.163h21.5V241.47h-21.5V106.163z"/>
	<path style="display:inline;opacity:0.2;fill:#E20613;" d="M340.009,106.163h21.5V241.47h-21.5V106.163z"/>
	<path style="display:inline;opacity:0.2;fill:#E20613;" d="M361.509,106.163h21.5V241.47h-21.5V106.163z"/>
	<path style="display:inline;opacity:0.2;fill:#E20613;" d="M383.009,106.163h21.5V241.47h-21.5V106.163z"/>
	<path style="display:inline;opacity:0.2;fill:#E20613;" d="M404.509,106.163h21.5V241.47h-21.5V106.163z"/>
	<path style="display:inline;opacity:0.2;fill:#E20613;" d="M970.442,106.163h22.844V241.47h-22.844V106.163z"/>
	<path style="display:inline;opacity:0.2;fill:#E20613;" d="M224.627,106.163h22.844V241.47h-22.844V106.163z"/>
	<path style="display:inline;opacity:0.2;fill:#E20613;" d="M1011.832,106.163h22.844V241.47h-22.844V106.163z"/>
	<rect x="819.299" y="39.908" style="display:inline;fill:none;" width="25.877" height="26.347"/>
	
		<text transform="matrix(1 0 0 1 828.16 48.488)" style="display:inline;fill:#1D1D1B; font-family:'Telka-Regular'; font-size:12px;">X</text>
	<rect x="968.926" y="39.908" style="display:inline;fill:none;" width="25.877" height="26.347"/>
	
		<text transform="matrix(1 0 0 1 969.5963 48.488)" style="display:inline;fill:#1D1D1B; font-family:'Telka-Regular'; font-size:12px;">0,85</text>
	<rect x="223.111" y="39.908" style="display:inline;fill:none;" width="25.877" height="26.347"/>
	
		<text transform="matrix(1 0 0 1 223.7823 48.488)" style="display:inline;fill:#1D1D1B; font-family:'Telka-Regular'; font-size:12px;">0,85</text>
	<rect x="536.929" y="39.908" style="display:inline;fill:none;" width="25.877" height="26.347"/>
	
		<text transform="matrix(1 0 0 1 541.2659 48.488)" style="display:inline;fill:#1D1D1B; font-family:'Telka-Regular'; font-size:12px;">0,5</text>
	<rect x="675.323" y="39.908" style="display:inline;fill:none;" width="25.877" height="26.347"/>
	
		<text transform="matrix(1 0 0 1 679.4857 48.488)" style="display:inline;fill:#1D1D1B; font-family:'Telka-Regular'; font-size:12px;">0,8</text>
	<rect x="369.976" y="39.908" style="display:inline;fill:none;" width="25.877" height="26.347"/>
	
		<text transform="matrix(1 0 0 1 374.1392 48.488)" style="display:inline;fill:#1D1D1B; font-family:'Telka-Regular'; font-size:12px;">0,8</text>
	<rect x="1010.315" y="39.908" style="display:inline;fill:none;" width="25.877" height="26.347"/>
	
		<text transform="matrix(1 0 0 1 1010.9859 48.488)" style="display:inline;fill:#1D1D1B; font-family:'Telka-Regular'; font-size:12px;">0,85</text>
	<path style="display:inline;opacity:0.2;fill:#E20613;" d="M1178.172,106.163h106.164v16.842h-87.618v40.876h73.993v15.896h-73.993
		v61.692h-18.545V106.163z"/>
	<path style="display:inline;opacity:0.2;fill:#E20613;" d="M106.164,106.164V0h16.842v87.618h40.876V13.625h15.896v73.993h61.692
		v18.545H106.164z"/>
	<path style="display:inline;opacity:0.2;fill:#E20613;" d="M106.164,347.633V241.47h16.842v87.618h40.876v-73.993h15.896v73.993
		h61.692v18.545H106.164z"/>
	<path style="display:inline;opacity:0.2;fill:#E20613;" d="M0,106.163h106.164v16.842H18.545v40.876h73.993v15.896H18.545v61.692H0
		V106.163z"/>
</g>
</svg>
