<?xml version="1.0" encoding="UTF-8"?><svg id="LOGOS" xmlns="http://www.w3.org/2000/svg" viewBox="0 0 1284.34 347.63"><defs><style>.cls-1{fill:#fff;}</style></defs><path class="cls-1" d="m106.16,106.16h62.45c32.93,0,51.47,14,51.47,38.79,0,22.9-16.09,37.85-43.34,40.88l47.88,55.45v.19h-23.28l-46.55-54.88h-30.09v54.88h-18.55V106.16Zm59.42,64.91c23.28,0,36.14-8.89,36.14-25.17,0-15.33-11.35-23.66-32.36-23.66h-44.66v48.82h40.88Z"/><path class="cls-1" d="m247.47,106.16h106.16v16.84h-87.62v40.88h73.99v15.9h-73.99v61.69h-18.55V106.16Z"/><path class="cls-1" d="m426.01,209.87l16.27-9.65c7.95,18.17,24.79,28.58,47.12,28.58,20.63,0,35.01-9.08,35.01-22.9,0-12.3-10.79-20.44-31.6-24.22l-21.95-4.16c-26.3-4.92-40.5-17.79-40.5-36.9,0-22.71,20.63-37.66,52.04-37.66,26.68,0,47.5,10.98,57.15,30.28l-15.33,10.03c-6.81-15.71-21.95-24.41-42.77-24.41s-32.36,7.76-32.36,20.82c0,11.54,9.08,18.17,30.09,22.14l20.06,3.6c28.39,5.3,43.9,19.49,43.9,39.74,0,24.03-21.76,39.55-55.07,39.55-29.71,0-52.61-12.87-62.07-34.82Z"/><path class="cls-1" d="m607.87,122.63h-51.28v-16.46h120.92v16.46h-51.28v118.84h-18.36v-118.84Z"/><path class="cls-1" d="m699.01,192.08v-85.91h18.55v82.51c0,27.63,17.03,39.55,41.25,39.55s41.44-11.35,41.44-39.36v-82.7h18.55v85.73c0,31.79-21.19,52.8-60.56,52.8s-59.23-21.19-59.23-52.61Z"/><path class="cls-1" d="m845.68,106.16h49.96c37.85,0,74.75,19.3,74.75,67.37s-36.52,67.94-76.07,67.94h-48.63V106.16Zm48.45,118.46c33.68,0,57.53-15.71,57.53-51.09s-23.28-50.53-57.34-50.53h-30.09v101.62h29.9Z"/><path class="cls-1" d="m993.29,106.16h18.55v135.31h-18.55V106.16Z"/><path class="cls-1" d="m1034.73,173.72c0-44.28,33.31-70.78,72.48-70.78s70.96,26.12,70.96,71.15-32.55,70.59-70.96,70.59-72.48-25.74-72.48-70.96Zm124.33.38c0-33.5-22.14-54.69-52.04-54.69s-53.18,20.82-53.18,54.31,23.09,54.5,53.37,54.5,51.85-21.57,51.85-54.12Z"/></svg>