<svg xmlns="http://www.w3.org/2000/svg" viewBox="0 0 400 300" data-imageid="settings-outline" imageName="Settings" class="illustrations_image" style="width: 191px;"><g id="_485_settings_storage_outline" data-name="#485_settings_storage_outline"><rect x="105.65" y="85.6" width="189.88" height="129.76" fill="#fff"/><path d="M295.53,216.36H105.65a1,1,0,0,1-1-1V85.6a1,1,0,0,1,1-1H295.53a1,1,0,0,1,1,1V215.36A1,1,0,0,1,295.53,216.36Zm-188.88-2H294.53V86.6H106.65Z" fill="#093f68"/><rect x="105.65" y="85.6" width="189.88" height="17.05" fill="#accfe2" class="target-color"/><path d="M295.53,103.64H105.65a1,1,0,0,1-1-1v-17a1,1,0,0,1,1-1H295.53a1,1,0,0,1,1,1v17A1,1,0,0,1,295.53,103.64Zm-188.88-2H294.53v-15H106.65Z" fill="#093f68"/><circle cx="121.16" cy="94.12" r="2.82" fill="#f56132"/><path d="M121.16,97.94A3.82,3.82,0,1,1,125,94.12,3.82,3.82,0,0,1,121.16,97.94Zm0-5.64A1.82,1.82,0,1,0,123,94.12,1.83,1.83,0,0,0,121.16,92.3Z" fill="#093f68"/><circle cx="131.84" cy="94.12" r="2.82" fill="#ffbc0e"/><path d="M131.84,97.94a3.82,3.82,0,1,1,3.82-3.82A3.83,3.83,0,0,1,131.84,97.94Zm0-5.64a1.82,1.82,0,1,0,1.82,1.82A1.83,1.83,0,0,0,131.84,92.3Z" fill="#093f68"/><circle cx="142.52" cy="94.12" r="2.82" fill="#70cc40"/><path d="M142.52,97.94a3.82,3.82,0,1,1,3.82-3.82A3.82,3.82,0,0,1,142.52,97.94Zm0-5.64a1.82,1.82,0,1,0,1.82,1.82A1.82,1.82,0,0,0,142.52,92.3Z" fill="#093f68"/><rect x="121.16" y="114.99" width="72.18" height="6.57" fill="#093f68"/><path d="M193.34,122.56H121.16a1,1,0,0,1-1-1V115a1,1,0,0,1,1-1h72.18a1,1,0,0,1,1,1v6.57A1,1,0,0,1,193.34,122.56Zm-71.18-2h70.18V116H122.16Z" fill="#093f68"/><rect x="121.16" y="130.87" width="72.18" height="6.57" fill="#093f68"/><path d="M193.34,138.44H121.16a1,1,0,0,1-1-1v-6.57a1,1,0,0,1,1-1h72.18a1,1,0,0,1,1,1v6.57A1,1,0,0,1,193.34,138.44Zm-71.18-2h70.18v-4.57H122.16Z" fill="#093f68"/><rect x="121.16" y="146.75" width="30.27" height="6.57" fill="#093f68"/><path d="M151.43,154.33H121.16a1,1,0,0,1-1-1v-6.58a1,1,0,0,1,1-1h30.27a1,1,0,0,1,1,1v6.58A1,1,0,0,1,151.43,154.33Zm-29.27-2h28.27v-4.58H122.16Z" fill="#093f68"/><g id="ahcQ9Z"><path d="M215.27,195.46a4.29,4.29,0,0,0-2.21-4.71c-1.46-.73-3-1.39-4.47-2a1.08,1.08,0,0,1-.73-1c-.15-1.36-.35-2.73-.58-4.09a.83.83,0,0,1,.33-.91c1.28-1.06,2.57-2.1,3.79-3.22a4.24,4.24,0,0,0,.94-5.11c-1-2-2.18-3.82-3.3-5.72a4.54,4.54,0,0,0-5.85-2.1c-1.39.52-2.77,1-4.14,1.59a.86.86,0,0,1-1-.14q-1.76-1.4-3.59-2.7a.84.84,0,0,1-.41-.88c.14-1.49.28-3,.39-4.48a4.47,4.47,0,0,0-3.18-4.79q-3.3-.93-6.63-1.71a4.33,4.33,0,0,0-4.85,2.24c-.77,1.52-1.44,3.08-2.13,4.63a.85.85,0,0,1-.79.58c-1.42.17-2.84.39-4.26.63a.78.78,0,0,1-.87-.3c-1-1.27-2.06-2.55-3.16-3.77a4.27,4.27,0,0,0-5.15-1c-2.08,1.11-4.13,2.29-6.12,3.56a4.39,4.39,0,0,0-1.74,5.57c.55,1.46,1.13,2.91,1.66,4.37a.85.85,0,0,1-.1.68c-.89,1.25-1.81,2.49-2.74,3.71a.87.87,0,0,1-.64.29c-1.49-.1-3-.24-4.48-.38a4.47,4.47,0,0,0-4.88,3c-.67,2.28-1.26,4.59-1.79,6.91a4.27,4.27,0,0,0,2.19,4.66c1.55.8,3.15,1.48,4.74,2.19a.81.81,0,0,1,.54.74c.18,1.45.4,2.89.64,4.33a.73.73,0,0,1-.29.81c-1.18,1-2.35,1.92-3.5,2.92a4.5,4.5,0,0,0-1,5.95q1.51,2.66,3.11,5.27a4.5,4.5,0,0,0,5.84,2c1.42-.53,2.84-1.07,4.25-1.63a.7.7,0,0,1,.8.14c1.09.84,2.18,1.69,3.31,2.47a1,1,0,0,1,.46,1c-.15,1.47-.28,3-.4,4.42a4.42,4.42,0,0,0,3,4.73c2.3.68,4.63,1.28,7,1.81a4.31,4.31,0,0,0,4.7-2.25c.74-1.48,1.39-3,2.06-4.52a1,1,0,0,1,.87-.66c1.43-.16,2.85-.36,4.27-.6a.78.78,0,0,1,.82.31c1,1.17,1.95,2.32,2.92,3.49a4.72,4.72,0,0,0,2.66,1.63,3.91,3.91,0,0,0,2.85-.39c1.89-1,3.74-2.15,5.61-3.24a4.56,4.56,0,0,0,2.11-6c-.51-1.39-1-2.77-1.59-4.15a.77.77,0,0,1,.13-.86q1.35-1.71,2.63-3.49a.87.87,0,0,1,.9-.4c1.49.16,3,.29,4.48.41a4.47,4.47,0,0,0,4.82-3.13Q214.48,198.89,215.27,195.46ZM175,205a15.79,15.79,0,1,1,19.27-11.31A15.81,15.81,0,0,1,175,205Z" fill="#accfe2" stroke="#093f68" stroke-linecap="round" stroke-linejoin="round" stroke-width="2" class="target-color"/></g><g id="ahcQ9Z-2" data-name="ahcQ9Z"><path d="M316.51,178.57a5.74,5.74,0,0,0-4.45-5.38c-2.15-.46-4.33-.81-6.5-1.15a1.44,1.44,0,0,1-1.29-1.06c-.65-1.74-1.37-3.44-2.12-5.13a1.11,1.11,0,0,1,.11-1.3c1.31-1.8,2.65-3.59,3.86-5.47a5.7,5.7,0,0,0-.51-7c-2-2.18-4.12-4.23-6.2-6.32a6.08,6.08,0,0,0-8.31-.76q-2.46,1.69-4.86,3.45a1.11,1.11,0,0,1-1.3.14q-2.76-1.22-5.58-2.3a1.14,1.14,0,0,1-.84-1c-.3-2-.63-4-1-6a6,6,0,0,0-5.75-5.15q-4.6-.11-9.19,0a5.8,5.8,0,0,0-5.56,4.55c-.5,2.22-.84,4.48-1.21,6.73a1.14,1.14,0,0,1-.84,1c-1.79.71-3.57,1.47-5.33,2.26a1,1,0,0,1-1.23-.1c-1.77-1.31-3.54-2.62-5.37-3.84a5.74,5.74,0,0,0-7,.46c-2.33,2.14-4.6,4.36-6.75,6.68a5.89,5.89,0,0,0-.39,7.83c1.19,1.72,2.44,3.4,3.62,5.13a1.18,1.18,0,0,1,.1.92c-.74,1.92-1.52,3.84-2.33,5.73a1.16,1.16,0,0,1-.72.6c-2,.37-4,.69-6,1a6,6,0,0,0-5.33,5.59c-.1,3.19-.09,6.39,0,9.59a5.74,5.74,0,0,0,4.42,5.33c2.28.51,4.59.86,6.89,1.25a1.1,1.1,0,0,1,1,.79c.71,1.82,1.49,3.62,2.29,5.4a1,1,0,0,1-.11,1.16c-1.21,1.64-2.41,3.29-3.57,5a6,6,0,0,0,.7,8.07q2.86,2.94,5.81,5.81a6,6,0,0,0,8.26.63c1.67-1.17,3.34-2.34,5-3.55a1,1,0,0,1,1.09-.09c1.7.73,3.4,1.47,5.13,2.11a1.29,1.29,0,0,1,.95,1.2c.3,2,.63,3.92,1,5.88a5.94,5.94,0,0,0,5.49,5.14c3.22.12,6.45.1,9.67,0a5.78,5.78,0,0,0,5.35-4.5c.48-2.17.81-4.38,1.17-6.58a1.27,1.27,0,0,1,.91-1.14c1.8-.69,3.58-1.44,5.35-2.21a1,1,0,0,1,1.16.11c1.65,1.21,3.32,2.38,5,3.57a6.36,6.36,0,0,0,4,1.22,5.21,5.21,0,0,0,3.57-1.46c2.11-2,4.15-4.06,6.2-6.1a6.12,6.12,0,0,0,.75-8.45c-1.13-1.63-2.29-3.25-3.46-4.86a1,1,0,0,1-.11-1.16c.78-1.79,1.54-3.59,2.24-5.42a1.15,1.15,0,0,1,1-.82c2-.3,4-.63,6-1a6,6,0,0,0,5.21-5.7C316.6,184.85,316.59,181.71,316.51,178.57Zm-49.16,26a21.21,21.21,0,1,1,21.26-21.17A21.22,21.22,0,0,1,267.35,204.54Z" fill="#accfe2" stroke="#093f68" stroke-linecap="round" stroke-linejoin="round" stroke-width="2" class="target-color"/></g><path d="M280,126.41H206.5a1,1,0,0,1-1-1V115a1,1,0,0,1,1-1H280a1,1,0,0,1,1,1v10.42A1,1,0,0,1,280,126.41Zm-72.48-2H279V116H207.5Z" fill="#dfeaef"/></g></svg>