<svg width="120" height="40" viewBox="0 0 120 40" fill="none" xmlns="http://www.w3.org/2000/svg">
<rect x="0.5" y="0.5" width="119" height="39" rx="5.5" fill="black" stroke="#959797"/>
<path d="M39.576 16V10.08H41.704C42.184 10.08 42.6027 10.1653 42.96 10.336C43.3227 10.5013 43.624 10.7253 43.864 11.008C44.104 11.2907 44.2827 11.608 44.4 11.96C44.5227 12.312 44.584 12.672 44.584 13.04C44.584 13.408 44.5227 13.768 44.4 14.12C44.2827 14.472 44.104 14.7893 43.864 15.072C43.624 15.3547 43.3227 15.5813 42.96 15.752C42.6027 15.9173 42.184 16 41.704 16H39.576ZM41.656 11.032H40.664V15.04H41.656C42.072 15.04 42.416 14.944 42.688 14.752C42.96 14.5547 43.1627 14.304 43.296 14C43.4293 13.6907 43.496 13.368 43.496 13.032C43.496 12.7013 43.4293 12.384 43.296 12.08C43.1627 11.7707 42.96 11.52 42.688 11.328C42.416 11.1307 42.072 11.032 41.656 11.032ZM47.5533 16.08C47.0893 16.08 46.6946 15.976 46.3693 15.768C46.044 15.56 45.796 15.2907 45.6253 14.96C45.46 14.624 45.3773 14.264 45.3773 13.88C45.3773 13.496 45.46 13.1387 45.6253 12.808C45.796 12.472 46.044 12.2 46.3693 11.992C46.6946 11.784 47.0893 11.68 47.5533 11.68C48.0226 11.68 48.4173 11.784 48.7373 11.992C49.0626 12.2 49.308 12.472 49.4733 12.808C49.644 13.1387 49.7293 13.496 49.7293 13.88C49.7293 14.264 49.644 14.624 49.4733 14.96C49.308 15.2907 49.0626 15.56 48.7373 15.768C48.4173 15.976 48.0226 16.08 47.5533 16.08ZM47.5533 15.192C47.7933 15.192 47.9933 15.1307 48.1533 15.008C48.3186 14.8853 48.444 14.7253 48.5293 14.528C48.6146 14.3253 48.6573 14.1093 48.6573 13.88C48.6573 13.6453 48.6146 13.4293 48.5293 13.232C48.444 13.0347 48.3186 12.8747 48.1533 12.752C47.9933 12.6293 47.7933 12.568 47.5533 12.568C47.3186 12.568 47.1186 12.6293 46.9533 12.752C46.788 12.8747 46.6626 13.0347 46.5773 13.232C46.492 13.4293 46.4493 13.6453 46.4493 13.88C46.4493 14.1093 46.492 14.3253 46.5773 14.528C46.6626 14.7253 46.788 14.8853 46.9533 15.008C47.1186 15.1307 47.3186 15.192 47.5533 15.192ZM51.5128 16L50.1848 11.76H51.2488L52.0968 14.672L53.0008 11.76H53.9688L54.8728 14.672L55.7208 11.76H56.7848L55.4488 16H54.3208L53.4888 13.304L52.6488 16H51.5128ZM57.496 16V11.76H58.56V12.368H58.608C58.6507 12.2933 58.7173 12.2027 58.808 12.096C58.8987 11.984 59.024 11.888 59.184 11.808C59.344 11.7227 59.5467 11.68 59.792 11.68C60.1173 11.68 60.384 11.7547 60.592 11.904C60.8053 12.048 60.9627 12.24 61.064 12.48C61.1707 12.72 61.224 12.9787 61.224 13.256V16H60.16V13.4C60.16 13.1707 60.096 12.9733 59.968 12.808C59.84 12.6427 59.648 12.56 59.392 12.56C59.1947 12.56 59.0347 12.6107 58.912 12.712C58.7893 12.808 58.6987 12.9333 58.64 13.088C58.5867 13.2427 58.56 13.4053 58.56 13.576V16H57.496ZM62.2948 16L62.3028 9.92H63.3588V16H62.2948ZM66.5143 16.08C66.0503 16.08 65.6556 15.976 65.3303 15.768C65.0049 15.56 64.7569 15.2907 64.5863 14.96C64.4209 14.624 64.3383 14.264 64.3383 13.88C64.3383 13.496 64.4209 13.1387 64.5863 12.808C64.7569 12.472 65.0049 12.2 65.3303 11.992C65.6556 11.784 66.0503 11.68 66.5143 11.68C66.9836 11.68 67.3783 11.784 67.6983 11.992C68.0236 12.2 68.2689 12.472 68.4343 12.808C68.6049 13.1387 68.6903 13.496 68.6903 13.88C68.6903 14.264 68.6049 14.624 68.4343 14.96C68.2689 15.2907 68.0236 15.56 67.6983 15.768C67.3783 15.976 66.9836 16.08 66.5143 16.08ZM66.5143 15.192C66.7543 15.192 66.9543 15.1307 67.1143 15.008C67.2796 14.8853 67.4049 14.7253 67.4903 14.528C67.5756 14.3253 67.6183 14.1093 67.6183 13.88C67.6183 13.6453 67.5756 13.4293 67.4903 13.232C67.4049 13.0347 67.2796 12.8747 67.1143 12.752C66.9543 12.6293 66.7543 12.568 66.5143 12.568C66.2796 12.568 66.0796 12.6293 65.9143 12.752C65.7489 12.8747 65.6236 13.0347 65.5383 13.232C65.4529 13.4293 65.4103 13.6453 65.4103 13.88C65.4103 14.1093 65.4529 14.3253 65.5383 14.528C65.6236 14.7253 65.7489 14.8853 65.9143 15.008C66.0796 15.1307 66.2796 15.192 66.5143 15.192ZM71.3979 11.68C71.6699 11.68 71.8939 11.7253 72.0699 11.816C72.2459 11.9013 72.3846 11.9973 72.4859 12.104C72.5873 12.2053 72.6566 12.288 72.6939 12.352H72.7419V11.76H73.8059V16H72.7419V15.408H72.6939C72.6566 15.472 72.5873 15.5573 72.4859 15.664C72.3846 15.7707 72.2459 15.8667 72.0699 15.952C71.8939 16.0373 71.6699 16.08 71.3979 16.08C71.0833 16.08 70.8086 16.0187 70.5739 15.896C70.3393 15.768 70.1419 15.6 69.9819 15.392C69.8273 15.1787 69.7099 14.9413 69.6299 14.68C69.5553 14.4187 69.5179 14.152 69.5179 13.88C69.5179 13.608 69.5553 13.3413 69.6299 13.08C69.7099 12.8187 69.8273 12.584 69.9819 12.376C70.1419 12.1627 70.3393 11.9947 70.5739 11.872C70.8086 11.744 71.0833 11.68 71.3979 11.68ZM71.6779 12.552C71.4379 12.552 71.2353 12.6187 71.0699 12.752C70.9099 12.88 70.7899 13.0453 70.7099 13.248C70.6299 13.4507 70.5899 13.6613 70.5899 13.88C70.5899 14.0987 70.6299 14.3093 70.7099 14.512C70.7899 14.7147 70.9099 14.8827 71.0699 15.016C71.2353 15.144 71.4379 15.208 71.6779 15.208C71.9179 15.208 72.1179 15.144 72.2779 15.016C72.4379 14.8827 72.5579 14.7147 72.6379 14.512C72.7179 14.3093 72.7579 14.0987 72.7579 13.88C72.7579 13.6613 72.7179 13.4507 72.6379 13.248C72.5579 13.0453 72.4379 12.88 72.2779 12.752C72.1179 12.6187 71.9179 12.552 71.6779 12.552ZM76.6479 16.08C76.3333 16.08 76.0586 16.0187 75.8239 15.896C75.5893 15.768 75.3919 15.6 75.2319 15.392C75.0773 15.1787 74.9599 14.9413 74.8799 14.68C74.8053 14.4187 74.7679 14.152 74.7679 13.88C74.7679 13.608 74.8053 13.3413 74.8799 13.08C74.9599 12.8187 75.0773 12.584 75.2319 12.376C75.3919 12.1627 75.5893 11.9947 75.8239 11.872C76.0586 11.744 76.3333 11.68 76.6479 11.68C76.9199 11.68 77.1439 11.7253 77.3199 11.816C77.4959 11.9013 77.6346 11.9973 77.7359 12.104C77.8373 12.2053 77.9066 12.288 77.9439 12.352H77.9919V9.92H79.0559V16H77.9919V15.408H77.9439C77.9066 15.472 77.8373 15.5573 77.7359 15.664C77.6346 15.7707 77.4959 15.8667 77.3199 15.952C77.1439 16.0373 76.9199 16.08 76.6479 16.08ZM76.9279 15.208C77.1679 15.208 77.3679 15.144 77.5279 15.016C77.6879 14.8827 77.8079 14.7147 77.8879 14.512C77.9679 14.3093 78.0079 14.0987 78.0079 13.88C78.0079 13.6613 77.9679 13.4507 77.8879 13.248C77.8079 13.0453 77.6879 12.88 77.5279 12.752C77.3679 12.6187 77.1679 12.552 76.9279 12.552C76.6879 12.552 76.4853 12.6187 76.3199 12.752C76.1599 12.88 76.0399 13.0453 75.9599 13.248C75.8799 13.4507 75.8399 13.6613 75.8399 13.88C75.8399 14.0987 75.8799 14.3093 75.9599 14.512C76.0399 14.7147 76.1599 14.8827 76.3199 15.016C76.4853 15.144 76.6879 15.208 76.9279 15.208ZM81.7566 16L83.7966 10.08H85.2126L87.2606 16H86.1246L85.7006 14.752H83.3166L82.8926 16H81.7566ZM83.6286 13.808H85.3886L84.5086 11.192L83.6286 13.808ZM88.1151 16V10.08H90.4511C90.9257 10.08 91.3204 10.176 91.6351 10.368C91.9497 10.5547 92.1844 10.8 92.3391 11.104C92.4991 11.4027 92.5791 11.7147 92.5791 12.04C92.5791 12.3653 92.4991 12.68 92.3391 12.984C92.1844 13.2827 91.9497 13.528 91.6351 13.72C91.3204 13.912 90.9257 14.008 90.4511 14.008H89.2031V16H88.1151ZM90.4431 11.024H89.2031V13.064H90.4431C90.6777 13.064 90.8724 13.016 91.0271 12.92C91.1817 12.8187 91.2964 12.6907 91.3711 12.536C91.4511 12.376 91.4911 12.2133 91.4911 12.048C91.4911 11.8773 91.4511 11.7147 91.3711 11.56C91.2964 11.4053 91.1817 11.2773 91.0271 11.176C90.8724 11.0747 90.6777 11.024 90.4431 11.024ZM93.451 16V10.08H94.539V12.648L96.795 10.088H98.155L95.587 12.928L98.259 16H96.851L94.539 13.296V16H93.451ZM102.952 16.08C102.488 16.08 102.093 15.976 101.768 15.768C101.442 15.56 101.194 15.2907 101.024 14.96C100.858 14.624 100.776 14.264 100.776 13.88C100.776 13.496 100.858 13.1387 101.024 12.808C101.194 12.472 101.442 12.2 101.768 11.992C102.093 11.784 102.488 11.68 102.952 11.68C103.421 11.68 103.816 11.784 104.136 11.992C104.461 12.2 104.706 12.472 104.872 12.808C105.042 13.1387 105.128 13.496 105.128 13.88C105.128 14.264 105.042 14.624 104.872 14.96C104.706 15.2907 104.461 15.56 104.136 15.768C103.816 15.976 103.421 16.08 102.952 16.08ZM102.952 15.192C103.192 15.192 103.392 15.1307 103.552 15.008C103.717 14.8853 103.842 14.7253 103.928 14.528C104.013 14.3253 104.056 14.1093 104.056 13.88C104.056 13.6453 104.013 13.4293 103.928 13.232C103.842 13.0347 103.717 12.8747 103.552 12.752C103.392 12.6293 103.192 12.568 102.952 12.568C102.717 12.568 102.517 12.6293 102.352 12.752C102.186 12.8747 102.061 13.0347 101.976 13.232C101.89 13.4293 101.848 13.6453 101.848 13.88C101.848 14.1093 101.89 14.3253 101.976 14.528C102.061 14.7253 102.186 14.8853 102.352 15.008C102.517 15.1307 102.717 15.192 102.952 15.192ZM106.027 16V11.76H107.091V12.368H107.139C107.182 12.2933 107.249 12.2027 107.339 12.096C107.43 11.984 107.555 11.888 107.715 11.808C107.875 11.7227 108.078 11.68 108.323 11.68C108.649 11.68 108.915 11.7547 109.123 11.904C109.337 12.048 109.494 12.24 109.595 12.48C109.702 12.72 109.755 12.9787 109.755 13.256V16H108.691V13.4C108.691 13.1707 108.627 12.9733 108.499 12.808C108.371 12.6427 108.179 12.56 107.923 12.56C107.726 12.56 107.566 12.6107 107.443 12.712C107.321 12.808 107.23 12.9333 107.171 13.088C107.118 13.2427 107.091 13.4053 107.091 13.576V16H106.027Z" fill="white"/>
<path d="M59.944 30.12C59.2 30.12 58.552 29.992 58 29.736C57.448 29.48 56.988 29.136 56.62 28.704C56.26 28.264 55.988 27.776 55.804 27.24C55.628 26.696 55.54 26.14 55.54 25.572C55.54 25.004 55.628 24.448 55.804 23.904C55.988 23.36 56.264 22.872 56.632 22.44C57 22 57.464 21.652 58.024 21.396C58.584 21.132 59.236 21 59.98 21C60.564 21 61.064 21.076 61.48 21.228C61.904 21.372 62.256 21.56 62.536 21.792C62.824 22.024 63.052 22.272 63.22 22.536C63.396 22.792 63.528 23.036 63.616 23.268C63.704 23.5 63.764 23.692 63.796 23.844C63.828 23.988 63.844 24.06 63.844 24.06H62.212C62.212 24.06 62.196 24.008 62.164 23.904C62.14 23.792 62.084 23.656 61.996 23.496C61.908 23.336 61.78 23.176 61.612 23.016C61.452 22.856 61.24 22.724 60.976 22.62C60.712 22.508 60.384 22.452 59.992 22.452C59.52 22.452 59.108 22.54 58.756 22.716C58.412 22.892 58.124 23.128 57.892 23.424C57.66 23.72 57.488 24.052 57.376 24.42C57.264 24.788 57.208 25.164 57.208 25.548C57.208 26.068 57.312 26.568 57.52 27.048C57.728 27.528 58.036 27.92 58.444 28.224C58.86 28.528 59.372 28.68 59.98 28.68C60.684 28.68 61.24 28.488 61.648 28.104C62.064 27.72 62.3 27.208 62.356 26.568H59.932V25.272H63.94V25.932C63.94 26.852 63.764 27.624 63.412 28.248C63.06 28.864 62.58 29.332 61.972 29.652C61.372 29.964 60.696 30.12 59.944 30.12ZM66.401 22.656C66.121 22.656 65.889 22.564 65.705 22.38C65.529 22.196 65.441 21.976 65.441 21.72C65.441 21.464 65.529 21.244 65.705 21.06C65.889 20.876 66.121 20.784 66.401 20.784C66.681 20.784 66.913 20.876 67.097 21.06C67.281 21.244 67.373 21.464 67.373 21.72C67.373 21.976 67.281 22.196 67.097 22.38C66.913 22.564 66.681 22.656 66.401 22.656ZM65.609 30V23.64H67.205V30H65.609ZM71.9709 30.12C71.5389 30.12 71.1829 30.056 70.9029 29.928C70.6229 29.8 70.4029 29.632 70.2429 29.424C70.0909 29.216 69.9829 28.988 69.9189 28.74C69.8549 28.492 69.8229 28.248 69.8229 28.008V24.924H68.7309V23.64H69.8229V22.056H71.4189V23.64H72.8469V24.924H71.4189V27.972C71.4189 28.54 71.7389 28.824 72.3789 28.824C72.5309 28.824 72.6709 28.816 72.7989 28.8C72.9349 28.776 73.0029 28.764 73.0029 28.764V30.012C73.0029 30.012 72.8989 30.028 72.6909 30.06C72.4909 30.1 72.2509 30.12 71.9709 30.12ZM74.666 30V21.12H76.298V24.768H80.006V21.12H81.638V30H80.006V26.184H76.298V30H74.666ZM85.4973 30.12C84.8333 30.12 84.3293 29.916 83.9853 29.508C83.6493 29.1 83.4813 28.576 83.4813 27.936V23.64H85.0653V27.672C85.0653 28.016 85.1573 28.292 85.3413 28.5C85.5253 28.7 85.7853 28.8 86.1213 28.8C86.4173 28.8 86.6573 28.724 86.8413 28.572C87.0253 28.42 87.1573 28.224 87.2373 27.984C87.3253 27.744 87.3693 27.496 87.3693 27.24V23.64H88.9653V30H87.3693V29.088H87.2973C87.2173 29.232 87.1013 29.384 86.9493 29.544C86.8053 29.704 86.6133 29.84 86.3733 29.952C86.1413 30.064 85.8493 30.12 85.4973 30.12ZM94.426 30.12C94.018 30.12 93.682 30.056 93.418 29.928C93.154 29.792 92.946 29.644 92.794 29.484C92.65 29.324 92.55 29.2 92.494 29.112H92.41V30H90.814V20.88H92.41V24.528H92.494C92.55 24.432 92.65 24.304 92.794 24.144C92.946 23.984 93.154 23.84 93.418 23.712C93.682 23.584 94.018 23.52 94.426 23.52C94.906 23.52 95.322 23.616 95.674 23.808C96.026 23.992 96.318 24.244 96.55 24.564C96.782 24.876 96.954 25.228 97.066 25.62C97.186 26.012 97.246 26.412 97.246 26.82C97.246 27.228 97.186 27.628 97.066 28.02C96.954 28.412 96.782 28.768 96.55 29.088C96.318 29.4 96.026 29.652 95.674 29.844C95.322 30.028 94.906 30.12 94.426 30.12ZM94.006 28.812C94.374 28.812 94.678 28.716 94.918 28.524C95.158 28.324 95.338 28.072 95.458 27.768C95.578 27.464 95.638 27.148 95.638 26.82C95.638 26.492 95.578 26.176 95.458 25.872C95.338 25.568 95.158 25.32 94.918 25.128C94.678 24.928 94.374 24.828 94.006 24.828C93.646 24.828 93.346 24.928 93.106 25.128C92.866 25.32 92.686 25.568 92.566 25.872C92.446 26.176 92.386 26.492 92.386 26.82C92.386 27.148 92.446 27.464 92.566 27.768C92.686 28.072 92.866 28.324 93.106 28.524C93.346 28.716 93.646 28.812 94.006 28.812Z" fill="white"/>
<g clip-path="url(#clip0_10_61)">
<path d="M19.5 8.98957C16.799 8.95068 14.1741 9.88499 12.1051 11.6218C10.0361 13.3585 8.66106 15.7818 8.23132 18.4487C7.80158 21.1156 8.3458 23.8481 9.76454 26.1469C11.1833 28.4457 13.3818 30.1572 15.9583 30.9687C16.4792 31.0729 16.8958 30.5 16.8958 30.0312V28.5208C13.7708 29.1979 12.7812 27.0104 12.7812 27.0104C12.5781 26.3511 12.1783 25.7696 11.6354 25.3437C10.5937 24.6146 11.6875 24.6667 11.6875 24.6667C12.0353 24.6944 12.3719 24.803 12.6703 24.9839C12.9687 25.1647 13.2207 25.4128 13.4062 25.7083C14.2917 27.2187 16.2708 27.0625 16.8958 26.8021C16.8411 26.2842 16.9313 25.7613 17.1562 25.2917C13.6146 24.6667 11.6875 22.5833 11.6875 19.7708C11.6502 18.304 12.193 16.8816 13.1979 15.8125C12.918 15.2953 12.7846 14.7115 12.8121 14.1241C12.8396 13.5366 13.0271 12.9679 13.3542 12.4792C13.9832 12.4915 14.6031 12.6318 15.1762 12.8915C15.7493 13.1512 16.2635 13.5248 16.6875 13.9896C17.5919 13.681 18.545 13.5398 19.5 13.5729C20.451 13.5434 21.4005 13.6665 22.3125 13.9375C22.7429 13.4845 23.2595 13.1222 23.8319 12.8717C24.4043 12.6213 25.0211 12.4878 25.6458 12.4792C25.9658 12.9693 26.1531 13.5341 26.1897 14.1183C26.2262 14.7026 26.1106 15.2863 25.8542 15.8125C26.8402 16.8899 27.3638 18.3113 27.3125 19.7708C27.3125 22.5833 25.3854 24.6667 21.8437 25.2917C22.0687 25.7613 22.1589 26.2842 22.1042 26.8021V30.0312C22.104 30.1589 22.1298 30.2852 22.1802 30.4025C22.2305 30.5197 22.3043 30.6255 22.3969 30.7133C22.4896 30.801 22.5991 30.869 22.719 30.9129C22.8388 30.9568 22.9663 30.9758 23.0937 30.9687C25.6089 30.0961 27.7353 28.3635 29.0981 26.0765C30.4609 23.7894 30.9725 21.0947 30.5429 18.4674C30.1133 15.84 28.7701 13.4486 26.7498 11.7147C24.7296 9.9808 22.1621 9.01572 19.5 8.98957Z" fill="white"/>
</g>
<defs>
<clipPath id="clip0_10_61">
<rect width="25" height="25" fill="white" transform="translate(7 8)"/>
</clipPath>
</defs>
</svg>
