<svg width="96" height="96" viewBox="0 0 96 96" fill="none" xmlns="http://www.w3.org/2000/svg">
<rect x="0.5" y="0.5" width="95" height="95" rx="47.5" fill="#070915"/>
<rect x="0.5" y="0.5" width="95" height="95" rx="47.5" stroke="#222326"/>
<path d="M45.4161 33.5746C50.122 37.7636 53.9145 42.2527 56.3552 46.4834C60.5471 38.9453 63.3483 29.988 63.3836 24.283C63.3836 24.2426 63.3836 24.2059 63.3836 24.1716C63.3836 15.7298 55.0082 12.4445 47.7934 12.4445C40.5786 12.4445 32.2032 15.7298 32.2032 24.1716C32.2032 24.2867 32.2032 24.441 32.2032 24.6271C36.2247 26.4247 40.9915 29.6366 45.4161 33.5746Z" fill="#E93832"/>
<path d="M19.7453 56.5954C22.6865 53.3052 27.1988 49.7394 32.2908 46.7247C37.708 43.5189 43.1264 41.2793 47.8822 40.2543C42.0473 33.9163 34.4404 28.4697 29.0536 26.6733C29.0159 26.6611 28.9806 26.6501 28.9489 26.639C20.9632 24.0308 15.2671 31.024 13.0384 37.9229C10.8096 44.8218 11.3285 53.8464 19.3142 56.4546C19.4226 56.4901 19.5687 56.5379 19.7453 56.5954Z" fill="#ED79B5"/>
<path d="M82.6335 37.8066C80.4047 30.9077 74.7086 23.9145 66.7229 26.5227C66.6133 26.5582 66.4672 26.606 66.2918 26.6635C65.8351 31.0632 64.2701 36.6151 61.9123 42.063C59.4046 47.8573 56.3295 52.8717 53.0814 56.5122C61.5067 58.1922 70.8455 58.1016 76.2529 56.3726C76.2907 56.3603 76.326 56.3481 76.3577 56.3383C84.3434 53.7289 84.8622 44.7042 82.6335 37.8066Z" fill="#E8AB17"/>
<path d="M40.6736 63.34C39.3157 57.1697 38.8712 51.2958 39.3705 46.432C31.5723 50.0529 24.0701 55.644 20.7051 60.2396C20.682 60.2714 20.6601 60.302 20.6406 60.329C15.7057 67.1593 20.5602 74.7672 26.3975 79.0297C32.2337 83.2934 40.9306 85.5857 45.8667 78.7554C45.9349 78.6623 46.0251 78.5374 46.1334 78.3868C43.9303 74.5578 41.95 69.1405 40.6736 63.34Z" fill="#2383F2"/>
<path d="M74.8999 59.888C70.5971 60.8113 64.862 61.0305 58.9796 60.4587C52.7233 59.8513 47.0309 58.4603 42.5832 56.479C43.5977 65.0542 46.5693 73.9564 49.8759 78.5936C49.8991 78.6255 49.921 78.6561 49.9405 78.683C54.8754 85.5133 63.5723 83.2211 69.4096 78.9573C75.2458 74.6936 80.1015 67.0857 75.1666 60.2566C75.0984 60.1636 75.0083 60.0387 74.8999 59.888Z" fill="#1FBB4C"/>
</svg>
