<svg width="96" height="96" viewBox="0 0 96 96" fill="none" xmlns="http://www.w3.org/2000/svg">
<rect x="0.417391" y="0.417391" width="95.1652" height="95.1652" rx="47.5826" fill="white"/>
<rect x="0.417391" y="0.417391" width="95.1652" height="95.1652" rx="47.5826" stroke="#E9EAEC" stroke-width="0.834783"/>
<path d="M45.416 33.5745C50.1219 37.7635 53.9144 42.2526 56.3551 46.4832C60.5471 38.9452 63.3482 29.9879 63.3835 24.2829C63.3835 24.2425 63.3835 24.2057 63.3835 24.1715C63.3835 15.7297 55.0081 12.4443 47.7933 12.4443C40.5786 12.4443 32.2031 15.7297 32.2031 24.1715C32.2031 24.2866 32.2031 24.4409 32.2031 24.627C36.2246 26.4246 40.9914 29.6364 45.416 33.5745Z" fill="#FA2921"/>
<path d="M19.7443 56.5951C22.6855 53.3048 27.1978 49.739 32.2898 46.7243C37.707 43.5185 43.1254 41.2789 47.8812 40.254C42.0463 33.9159 34.4394 28.4693 29.0527 26.673C29.0149 26.6607 28.9796 26.6497 28.9479 26.6387C20.9622 24.0305 15.2661 31.0236 13.0374 37.9225C10.8087 44.8214 11.3275 53.846 19.3132 56.4542C19.4216 56.4897 19.5677 56.5375 19.7443 56.5951Z" fill="#ED79B5"/>
<path d="M82.6341 37.8063C80.4054 30.9074 74.7093 23.9143 66.7236 26.5225C66.614 26.558 66.4679 26.6057 66.2925 26.6633C65.8358 31.0629 64.2708 36.6149 61.9129 42.0627C59.4053 47.8571 56.3301 52.8715 53.082 56.5119C61.5074 58.1919 70.8462 58.1013 76.2536 56.3723C76.2914 56.3601 76.3267 56.3478 76.3583 56.338C84.344 53.7286 84.8629 44.704 82.6341 37.8063Z" fill="#FFB400"/>
<path d="M40.6729 63.3397C39.315 57.1694 38.8704 51.2954 39.3698 46.4316C31.5716 50.0525 24.0694 55.6436 20.7044 60.2392C20.6812 60.271 20.6593 60.3017 20.6398 60.3286C15.7049 67.1589 20.5595 74.7668 26.3968 79.0293C32.2329 83.293 40.9299 85.5853 45.866 78.755C45.9342 78.6619 46.0243 78.537 46.1327 78.3864C43.9295 74.5574 41.9493 69.1402 40.6729 63.3397Z" fill="#1E83F7"/>
<path d="M74.9007 59.8885C70.5979 60.8118 64.8628 61.031 58.9804 60.4591C52.7241 59.8518 47.0317 58.4607 42.584 56.4795C43.5985 65.0547 46.5701 73.9569 49.8767 78.5941C49.8998 78.626 49.9218 78.6566 49.9413 78.6835C54.8761 85.5138 63.5731 83.2215 69.4104 78.9578C75.2466 74.6941 80.1023 67.0862 75.1674 60.2571C75.0992 60.164 75.0091 60.0391 74.9007 59.8885Z" fill="#18C249"/>
</svg>
