<?xml version="1.0" encoding="utf-8"?>
<svg xmlns="http://www.w3.org/2000/svg" width="984" height="328" viewBox="108 286 984 328" role="img" shape-rendering="geometricPrecision" aria-label="Noodle Gallery inline lockup light, 4:3, transparent background">
  <g transform="matrix(1, 0, 0, 1, -0.191795, 0.000031)">
    <g transform="matrix(0.753667, 0, 0, 0.753667, -113.268486, 132.029953)" style="">
      <g transform="matrix(1.171334, 0, 0, 1.171334, 216.909439, 110.888733)" style="">
        <g>
          <g transform="matrix(1, 0, 0, 1, -20.332947, -27.285006)">
            <title>Frame_TopRight</title>
            <path d="M 345.332 139.968 L 366.332 172.635 L 268.333 172.635 L 268.333 107.302 L 314.999 107.302 C 324.332 107.302 331.332 118.968 331.332 118.968 L 345.332 139.968 Z" style="fill: rgb(144, 179, 71);">
              <title>GreenTop</title>
            </path>
            <path d="M 410.666 140 C 410.666 140 412.583 140 373.333 140 L 345.333 139.968 L 366.333 172.635 C 366.333 172.635 369.216 172.667 382.666 172.667 C 405.666 172.667 410.666 172.667 410.666 172.667 C 420 172.667 424.666 175 424.666 186.667 L 424.666 231 L 424.666 326.635 L 457.333 326.635 L 457.333 231 L 457.333 186.667 L 457.333 172.667 C 457.333 147 448 140 424.666 140 L 410.666 140 Z" style="stroke-width: 1; transform-origin: 392px 193.699px; fill: rgb(231, 200, 88);">
              <title>YellowRight</title>
            </path>
          </g>
          <g transform="matrix(1, 0, 0, 1, -4, -27.317019)">
            <title>Frame_TopLeft</title>
            <path d="M 161 172.666 L 182 139.999 L 196 118.999 C 196 118.999 203 107.333 210 107.333 L 259 107.334 L 259.001 172.666 L 161 172.666 Z" style="fill: rgb(144, 179, 71);">
              <title>GreenTop</title>
            </path>
            <path d="M 116.667 140 C 116.667 140 114.75 140 154 140 L 182 140 L 161 172.667 C 161 172.667 158.117 172.667 144.667 172.667 C 121.667 172.667 116.667 172.667 116.667 172.667 C 107.333 172.667 102.667 175 102.667 186.667 L 102.667 231 L 102.667 324.334 L 70 324.334 L 70 231 L 70 186.667 L 70 172.667 C 70 147 79.333 140 102.667 140 L 116.667 140 Z" style="fill: rgb(228, 90, 69);">
              <title>RedLeft</title>
            </path>
          </g>
          <g transform="matrix(1, 0, 0, 1, -3.499985, 26.317017)">
            <title>Frame_Bottom</title>
            <path d="M 393.833 424.668 C 393.833 424.668 395.75 424.668 356.5 424.668 L 237.5 424.7 L 237.5 392.033 C 237.5 392.033 352.383 392.001 365.833 392.001 C 388.833 392.001 393.833 392.001 393.833 392.001 C 403.167 392.001 407.833 389.668 407.833 378.001 L 407.833 333.668 L 407.833 270.7 L 440.5 270.7 L 440.5 333.668 L 440.5 378.001 L 440.5 392.001 C 440.5 417.668 431.167 424.668 407.833 424.668 L 393.833 424.668 Z" style="stroke-width: 1; fill: rgb(80, 127, 222);">
              <title>BlueBottomRight</title>
            </path>
            <path d="M 116.167 424.667 C 116.167 424.667 114.25 424.667 153.5 424.667 L 244.5 424.7 L 244.5 392.033 C 244.5 392.033 157.617 392 144.167 392 C 121.167 392 116.167 392 116.167 392 C 106.833 392 102.167 389.667 102.167 378 L 102.167 333.667 L 102.167 268.367 L 69.5 268.367 L 69.5 333.667 L 69.5 378 L 69.5 392 C 69.5 417.667 78.833 424.667 102.167 424.667 L 116.167 424.667 Z" style="fill: rgb(80, 127, 222);">
              <title>BlueBottomLeft</title>
            </path>
          </g>
          <g transform="matrix(1, 0, 0, 1, -4.324997, -3.067994)">
            <title>Lens</title>
            <path d="M 168.574 282.334 C 168.574 258.058 178.432 236.085 194.362 220.198 L 217.344 241.507 C 206.582 251.786 199.877 266.277 199.877 282.334 C 199.877 297.989 206.25 312.157 216.544 322.382 L 194.426 344.534 C 178.458 328.643 168.574 306.643 168.574 282.334 Z" style="fill: rgb(228, 90, 69);"/>
            <path d="M 256.325 370.085 C 232.17 370.085 210.294 360.325 194.426 344.534 L 216.544 322.382 C 226.748 332.519 240.805 338.782 256.325 338.782 C 273.914 338.782 289.624 330.737 299.977 318.126 L 322.958 339.435 C 306.864 358.198 282.983 370.085 256.325 370.085 Z" style="fill: rgb(80, 127, 222);"/>
            <path d="M 344.076 282.334 C 344.076 304.14 336.122 324.088 322.958 339.435 L 299.977 318.126 C 307.973 308.385 312.773 295.92 312.773 282.334 C 312.773 266.784 306.485 252.702 296.313 242.493 L 318.431 220.341 C 334.277 236.216 344.076 258.131 344.076 282.334 Z" style="fill: rgb(231, 200, 88);"/>
            <path d="M 194.362 220.198 C 210.235 204.369 232.137 194.583 256.325 194.583 C 280.586 194.583 302.547 204.428 318.431 220.341 L 296.313 242.493 C 286.092 232.235 271.95 225.886 256.325 225.886 C 241.207 225.886 227.477 231.829 217.344 241.507 Z" style="fill: rgb(54, 179, 72);"/>
            <path d="M 194.362 220.199 C 210.234 204.37 232.136 194.584 256.323 194.584 C 280.583 194.584 302.544 204.429 318.427 220.342 L 296.31 242.493 C 286.089 232.235 271.948 225.887 256.323 225.887 C 241.206 225.887 227.476 231.829 217.343 241.507 L 194.362 220.199 Z" style="fill: rgb(144, 179, 71);"/>
          </g>
          <rect x="79.5" y="84.183" width="91" height="21" style="fill: rgb(228, 90, 69);" rx="10.5" ry="10.5"/>
        </g>
      </g>
    </g>
    <path d="M 552.607 533.445 C 532.433 533.12 515.333 525.912 501.311 511.823 C 487.286 497.735 480.274 480.504 480.274 460.135 C 480.274 439.637 487.318 422.424 501.408 408.497 C 515.496 394.571 532.562 387.607 552.607 387.607 C 564.06 387.607 574.147 389.544 582.868 393.414 C 591.588 397.287 598.811 402.51 604.539 409.082 C 604.539 409.082 604.539 409.082 604.539 409.082 C 604.539 409.082 604.539 409.082 604.539 409.082 L 593.02 420.796 C 593.02 420.796 593.02 420.796 593.02 420.796 C 593.02 420.796 593.02 420.796 593.02 420.796 C 586.448 413.702 579.874 409.001 573.302 406.69 C 566.729 404.381 559.96 403.225 552.997 403.225 C 537.248 403.225 523.972 408.514 513.17 419.088 C 502.367 429.663 496.966 443.314 496.966 460.038 C 496.966 476.762 502.367 490.575 513.17 501.475 C 523.972 512.377 537.184 517.826 552.802 517.826 C 567.509 517.826 579.532 513.744 588.872 505.575 C 598.21 497.408 603.466 486.004 604.637 471.361 L 552.997 471.361 C 552.997 471.361 552.997 471.361 552.997 471.361 C 552.997 471.361 552.997 471.361 552.997 471.361 L 552.997 456.035 C 552.997 456.035 552.997 456.035 552.997 456.035 C 552.997 456.035 552.997 456.035 552.997 456.035 L 620.157 456.035 C 620.157 456.035 620.157 456.035 620.157 456.035 C 620.157 456.035 620.157 456.035 620.157 456.035 C 620.482 458.443 620.71 460.396 620.841 461.892 C 620.971 463.39 621.036 464.756 621.036 465.992 C 621.036 485.905 614.642 502.142 601.855 514.703 C 589.067 527.263 572.65 533.511 552.607 533.445 Z M 669.343 533.445 C 658.279 533.445 649.267 530.321 642.304 524.074 C 635.34 517.826 631.858 509.758 631.858 499.865 C 631.858 489.908 635.763 481.904 643.572 475.852 C 651.381 469.799 661.435 466.773 673.736 466.773 C 679.267 466.773 684.652 467.391 689.892 468.628 C 695.13 469.865 699.279 471.394 702.337 473.215 L 702.337 466.968 C 702.337 459.68 699.766 453.758 694.626 449.202 C 689.484 444.647 682.878 442.369 674.809 442.369 C 669.018 442.369 664.089 443.443 660.022 445.591 C 655.953 447.738 651.934 451.187 647.966 455.938 C 647.966 455.938 647.966 455.938 647.966 455.938 C 647.966 455.938 647.966 455.938 647.966 455.938 L 635.471 446.664 C 635.471 446.664 635.471 446.664 635.471 446.664 C 635.471 446.664 635.471 446.664 635.471 446.664 C 641.587 439.506 647.558 434.544 653.384 431.778 C 659.206 429.013 666.382 427.629 674.908 427.629 C 688.183 427.629 698.693 431.176 706.437 438.269 C 714.181 445.363 718.054 454.995 718.054 467.163 L 718.054 530.418 C 718.054 530.418 718.054 530.418 718.054 530.418 C 718.054 530.418 718.054 530.418 718.054 530.418 L 702.337 530.418 C 702.337 530.418 702.337 530.418 702.337 530.418 C 702.337 530.418 702.337 530.418 702.337 530.418 L 702.337 506.503 L 708.097 515.971 L 701.751 515.971 C 698.628 521.178 694.137 525.392 688.28 528.613 C 682.423 531.835 676.11 533.445 669.343 533.445 Z M 670.808 518.803 C 679.462 518.803 686.881 515.744 693.064 509.627 C 699.246 503.51 702.337 496.059 702.337 487.272 C 699.082 485.06 695.162 483.336 690.575 482.099 C 685.986 480.862 681.186 480.244 676.176 480.244 C 667.715 480.244 661.029 481.904 656.117 485.223 C 651.203 488.542 648.747 493.519 648.747 500.157 C 648.747 505.689 650.829 510.18 654.994 513.628 C 659.158 517.078 664.429 518.803 670.808 518.803 Z M 741.559 530.418 C 741.559 530.418 741.559 530.418 741.559 530.418 C 741.559 530.418 741.559 530.418 741.559 530.418 L 741.559 390.632 C 741.559 390.632 741.559 390.632 741.559 390.632 C 741.559 390.632 741.559 390.632 741.559 390.632 L 757.958 390.632 C 757.958 390.632 757.958 390.632 757.958 390.632 C 757.958 390.632 757.958 390.632 757.958 390.632 L 757.958 530.418 C 757.958 530.418 757.958 530.418 757.958 530.418 C 757.958 530.418 757.958 530.418 757.958 530.418 L 741.559 530.418 Z M 782.363 530.418 C 782.363 530.418 782.363 530.418 782.363 530.418 C 782.363 530.418 782.363 530.418 782.363 530.418 L 782.363 390.632 C 782.363 390.632 782.363 390.632 782.363 390.632 C 782.363 390.632 782.363 390.632 782.363 390.632 L 798.763 390.632 C 798.763 390.632 798.763 390.632 798.763 390.632 C 798.763 390.632 798.763 390.632 798.763 390.632 L 798.763 530.418 C 798.763 530.418 798.763 530.418 798.763 530.418 C 798.763 530.418 798.763 530.418 798.763 530.418 L 782.363 530.418 Z M 867.486 533.445 C 852.973 533.445 841.08 528.467 831.807 518.509 C 822.533 508.554 817.897 495.831 817.897 480.342 C 817.897 465.179 822.452 452.602 831.563 442.612 C 840.674 432.624 852.192 427.629 866.119 427.629 C 880.306 427.629 891.743 432.315 900.432 441.686 C 909.119 451.057 913.462 463.227 913.462 478.194 C 913.462 479.366 913.43 480.278 913.365 480.928 C 913.3 481.579 913.202 482.522 913.072 483.758 C 913.072 483.758 913.072 483.758 913.072 483.758 C 913.072 483.758 913.072 483.758 913.072 483.758 L 827.56 483.758 L 827.56 470.092 L 896.185 470.092 C 895.598 462.348 892.654 455.824 887.351 450.52 C 882.047 445.216 874.969 442.564 866.119 442.564 C 856.683 442.564 849.019 445.997 843.13 452.863 C 837.241 459.729 834.297 468.889 834.297 480.342 C 834.297 491.99 837.55 501.265 844.058 508.162 C 850.565 515.06 858.635 518.509 868.267 518.509 C 874.708 518.509 880.224 517.127 884.813 514.361 C 889.4 511.596 893.647 506.959 897.552 500.451 C 897.552 500.451 897.552 500.451 897.552 500.451 C 897.552 500.451 897.552 500.451 897.552 500.451 L 911.413 507.186 C 911.413 507.186 911.413 507.186 911.413 507.186 C 911.413 507.186 911.413 507.186 911.413 507.186 C 907.248 516.102 901.488 522.707 894.134 527.002 C 886.781 531.297 877.897 533.445 867.486 533.445 Z M 932.703 530.418 C 932.703 530.418 932.703 530.418 932.703 530.418 C 932.703 530.418 932.703 530.418 932.703 530.418 L 932.703 430.753 C 932.703 430.753 932.703 430.753 932.703 430.753 C 932.703 430.753 932.703 430.753 932.703 430.753 L 948.322 430.753 C 948.322 430.753 948.322 430.753 948.322 430.753 C 948.322 430.753 948.322 430.753 948.322 430.753 L 948.322 448.616 L 945.881 446.762 L 948.911 446.762 C 950.863 441.361 954.623 436.821 960.183 433.144 C 965.753 429.468 971.523 427.629 977.513 427.629 C 979.143 427.629 980.86 427.761 982.68 428.02 C 984.5 428.281 986.81 428.834 989.61 429.679 C 989.61 429.679 989.61 429.679 989.61 429.679 C 989.61 429.679 989.61 429.679 989.61 429.679 L 989.61 447.054 C 989.61 447.054 989.61 447.054 989.61 447.054 C 989.61 447.054 989.61 447.054 989.61 447.054 C 985.71 445.883 982.73 445.167 980.68 444.907 C 978.633 444.647 977.023 444.516 975.853 444.516 C 968.493 444.516 962.203 447.413 956.963 453.205 C 951.723 458.996 949.101 466.025 949.101 474.29 L 949.101 530.418 C 949.101 530.418 949.101 530.418 949.101 530.418 C 949.101 530.418 949.101 530.418 949.101 530.418 L 932.703 530.418 Z M 1013.71 572.393 C 1013.71 572.393 1013.71 572.393 1013.71 572.393 C 1013.71 572.393 1013.71 572.393 1013.71 572.393 L 1038.51 518.119 L 1039.09 530.418 L 994.67 430.753 C 994.67 430.753 994.67 430.753 994.67 430.753 C 994.67 430.753 994.67 430.753 994.67 430.753 L 1012.44 430.753 C 1012.44 430.753 1012.44 430.753 1012.44 430.753 C 1012.44 430.753 1012.44 430.753 1012.44 430.753 L 1041.43 498.4 L 1043.78 505.038 L 1044.36 505.038 L 1046.9 498.205 L 1074.23 430.753 C 1074.23 430.753 1074.23 430.753 1074.23 430.753 C 1074.23 430.753 1074.23 430.753 1074.23 430.753 L 1091.91 430.753 C 1091.91 430.753 1091.91 430.753 1091.91 430.753 C 1091.91 430.753 1091.91 430.753 1091.91 430.753 L 1030.79 572.393 C 1030.79 572.393 1030.79 572.393 1030.79 572.393 C 1030.79 572.393 1030.79 572.393 1030.79 572.393 L 1013.71 572.393 Z" style="fill: rgb(114, 114, 110); stroke-miterlimit: 1; text-wrap-mode: nowrap; stroke-width: 1; transform-box: fill-box; transform-origin: 50% 50%;"/>
  </g>
</svg>