<?xml version="1.0" encoding="utf-8"?>
<!-- Generator: Adobe Illustrator 28.3.0, SVG Export Plug-In . SVG Version: 6.00 Build 0)  -->
<svg version="1.1" id="Router_Medium_x5F_Black_00000159464448132936669960000002337362428709113490_"
	 xmlns="http://www.w3.org/2000/svg" xmlns:xlink="http://www.w3.org/1999/xlink" x="0px" y="0px" viewBox="0 0 792 266.25"
	 style="enable-background:new 0 0 792 266.25;" xml:space="preserve">
<style type="text/css">
	.st0{fill:#ACCBFA;}
	.st1{fill:#FA2921;}
	.st2{fill:#ED79B5;}
	.st3{fill:#FFB400;}
	.st4{fill:#1E83F7;}
	.st5{fill:#18C249;}
</style>
<g>
	<path class="st0" d="M268.73,63.18c6.34,0,11.52,5.18,11.52,11.35c0,6.34-5.18,11.35-11.52,11.35s-11.69-5.01-11.69-11.35
		C257.04,68.36,262.39,63.18,268.73,63.18z M258.88,122.45c0-3.01-0.67-7.85-0.67-10.68c0-6.01,4.67-10.68,10.52-10.68
		c5.84,0,10.52,4.67,10.52,10.68c0,2.84-0.83,7.68-0.83,10.68v38.73c0,3.01,0.83,7.85,0.83,10.68c0,6.01-4.67,10.68-10.52,10.68
		c-5.84,0-10.52-4.67-10.52-10.68c0-2.84,0.67-7.68,0.67-10.68V122.45z"/>
	<path class="st0" d="M394.28,171.87c0-2.84,0.83-7.68,0.83-10.68V132.3c0-10.18-5.34-16.86-14.52-16.86c-6.01,0-11.35,3-14.86,8.85
		c0.33,1.84,0.5,3.67,0.5,5.68v31.22c0,3.01,0.83,7.85,0.83,10.68c0,6.01-4.67,10.68-10.68,10.68c-5.51,0-10.35-4.67-10.35-10.68
		c0-2.84,0.83-7.68,0.83-10.68V131.8c0-3.17-0.5-6.01-1.67-8.51c-2.17-4.84-6.51-7.85-12.52-7.85c-6.18,0-11.19,3.17-14.86,8.85
		v36.9c0,3.01,0.83,7.85,0.83,10.68c0,6.01-4.84,10.68-10.52,10.68c-5.84,0-10.52-4.67-10.52-10.68c0-2.84,0.67-7.68,0.67-10.68
		v-38.57c0-3.01-1.5-8.35-1.5-10.85c0-6.01,4.34-10.68,10.18-10.68c5.51,0,8.68,3.67,9.68,8.51c5.01-6.68,12.02-10.85,21.2-10.85
		c10.85,0,18.7,5.18,23.54,13.52c5.51-8.68,13.52-13.52,23.54-13.52c16.86,0,29.72,12.19,29.72,31.72v30.72
		c0,3.01,0.67,7.85,0.67,10.68c0,6.01-4.51,10.68-10.52,10.68C399.12,182.55,394.28,177.88,394.28,171.87z"/>
	<path class="st0" d="M528.5,171.87c0-2.84,0.83-7.68,0.83-10.68V132.3c0-10.18-5.34-16.86-14.52-16.86c-6.01,0-11.35,3-14.86,8.85
		c0.33,1.84,0.5,3.67,0.5,5.68v31.22c0,3.01,0.84,7.85,0.84,10.68c0,6.01-4.67,10.68-10.68,10.68c-5.51,0-10.35-4.67-10.35-10.68
		c0-2.84,0.84-7.68,0.84-10.68V131.8c0-3.17-0.5-6.01-1.67-8.51c-2.17-4.84-6.51-7.85-12.52-7.85c-6.18,0-11.19,3.17-14.86,8.85
		v36.9c0,3.01,0.83,7.85,0.83,10.68c0,6.01-4.84,10.68-10.52,10.68c-5.84,0-10.52-4.67-10.52-10.68c0-2.84,0.67-7.68,0.67-10.68
		v-38.57c0-3.01-1.5-8.35-1.5-10.85c0-6.01,4.34-10.68,10.18-10.68c5.51,0,8.68,3.67,9.68,8.51c5.01-6.68,12.02-10.85,21.2-10.85
		c10.85,0,18.7,5.18,23.54,13.52c5.51-8.68,13.52-13.52,23.54-13.52c16.86,0,29.72,12.19,29.72,31.72v30.72
		c0,3.01,0.67,7.85,0.67,10.68c0,6.01-4.51,10.68-10.52,10.68C533.35,182.55,528.5,177.88,528.5,171.87z"/>
	<path class="st0" d="M576.92,63.18c6.34,0,11.52,5.18,11.52,11.35c0,6.34-5.18,11.35-11.52,11.35s-11.69-5.01-11.69-11.35
		C565.23,68.36,570.57,63.18,576.92,63.18z M567.07,122.45c0-3.01-0.67-7.85-0.67-10.68c0-6.01,4.67-10.68,10.52-10.68
		s10.52,4.67,10.52,10.68c0,2.84-0.84,7.68-0.84,10.68v38.73c0,3.01,0.84,7.85,0.84,10.68c0,6.01-4.67,10.68-10.52,10.68
		s-10.52-4.67-10.52-10.68c0-2.84,0.67-7.68,0.67-10.68V122.45z"/>
	<path class="st0" d="M601.79,141.31c0-23.54,14.69-42.57,39.07-42.57c12.86,0,24.71,5.84,30.05,14.53c2,3.17,2.34,5.01,2.34,6.51
		c0,5.18-4.01,9.52-9.85,9.52c-3.84,0-7.34-2.17-8.85-6.01c-2.34-5.18-6.85-8.18-13.69-8.18c-12.86,0-20.03,11.52-20.03,26.04
		c0,14.69,7.51,26.04,20.53,26.04c7.01,0,12.02-2.5,14.36-7.68c1.67-3.51,4.84-6.51,9.18-6.51c6.01,0,9.68,4.17,9.68,9.35
		c0,2.5-1,5.51-3.17,8.35c-5.51,7.35-15.86,13.19-30.05,13.19C616.32,183.89,601.79,165.19,601.79,141.31z"/>
	<path class="st0" d="M737.69,171.87c0-2.84,0.67-7.68,0.67-10.68v-28.55c0-10.18-5.68-17.2-15.36-17.2
		c-6.68,0-12.35,3.17-16.03,8.35v37.4c0,3.01,0.67,7.85,0.67,10.68c0,6.01-4.67,10.68-10.52,10.68s-10.52-4.67-10.52-10.68
		c0-2.84,0.84-7.68,0.84-10.68v-80.8c0-3.01-0.84-7.85-0.84-10.68c0-6.01,4.84-10.68,10.52-10.68c5.84,0,10.52,4.67,10.52,10.68
		c0,2.84-0.67,7.68-0.67,10.68v27.21c5.01-5.51,12.19-8.85,21.37-8.85c17.2,0,29.55,12.86,29.55,31.22v31.22
		c0,3.01,0.83,7.85,0.83,10.68c0,6.01-4.84,10.68-10.52,10.68C742.36,182.55,737.69,177.88,737.69,171.87z"/>
</g>
<g>
	<path class="st1" d="M114.82,96.21c11.92,10.55,21.52,21.86,27.7,32.52c10.62-18.99,17.71-41.55,17.8-55.92c0-0.1,0-0.19,0-0.28
		c0-21.26-21.21-29.54-39.48-29.54s-39.48,8.28-39.48,29.54c0,0.29,0,0.68,0,1.15C91.54,78.2,103.61,86.29,114.82,96.21z"/>
	<path class="st2" d="M49.8,154.19c7.45-8.29,18.88-17.27,31.77-24.86c13.72-8.07,27.44-13.71,39.49-16.3
		c-14.78-15.96-34.04-29.68-47.68-34.21c-0.1-0.03-0.18-0.06-0.27-0.09c-20.22-6.57-34.65,11.05-40.3,28.42s-4.33,40.11,15.89,46.68
		C48.99,153.93,49.35,154.05,49.8,154.19z"/>
	<path class="st3" d="M209.07,106.86c-5.65-17.38-20.07-34.99-40.3-28.42c-0.28,0.09-0.65,0.21-1.09,0.35
		c-1.16,11.08-5.12,25.07-11.09,38.79c-6.35,14.6-14.14,27.23-22.36,36.39c21.34,4.23,44.99,4,58.68-0.35
		c0.1-0.03,0.19-0.06,0.27-0.09C213.4,146.97,214.71,124.24,209.07,106.86z"/>
	<path class="st4" d="M102.8,171.18c-3.44-15.54-4.56-30.34-3.3-42.59c-19.75,9.12-38.75,23.2-47.27,34.78
		c-0.06,0.08-0.11,0.16-0.16,0.23c-12.5,17.2-0.2,36.37,14.58,47.11s36.81,16.51,49.31-0.69c0.17-0.24,0.4-0.55,0.68-0.93
		C111.05,199.44,106.04,185.79,102.8,171.18z"/>
	<path class="st5" d="M189.48,162.49c-10.9,2.33-25.42,2.88-40.32,1.44c-15.84-1.53-30.26-5.03-41.52-10.02
		c2.57,21.6,10.09,44.02,18.47,55.7c0.06,0.08,0.11,0.16,0.16,0.23c12.5,17.2,34.52,11.43,49.31,0.69
		c14.78-10.74,27.08-29.9,14.58-47.11C189.99,163.18,189.76,162.86,189.48,162.49z"/>
</g>
</svg>
