<?xml version="1.0" encoding="UTF-8" standalone="no"?>
<!DOCTYPE svg PUBLIC "-//W3C//DTD SVG 1.1//EN" "http://www.w3.org/Graphics/SVG/1.1/DTD/svg11.dtd">
<svg width="100%" height="100%" viewBox="0 0 792 792" version="1.1" xmlns="http://www.w3.org/2000/svg" xmlns:xlink="http://www.w3.org/1999/xlink" xml:space="preserve" xmlns:serif="http://www.serif.com/" style="fill-rule:evenodd;clip-rule:evenodd;">
    <g id="e.svg" transform="matrix(0.462707,0,0,0.462707,382.879,307.807)">
        <g transform="matrix(1,0,0,1,-500,-500)">
            <path d="M947.22,500.14C951.88,737.52 754.39,948.4 500.06,948.22C251.47,948.04 51.77,747.58 51.89,498.1C52,251.31 253.42,51.2 501.86,51.78C755.85,52.37 952.01,263.37 947.22,500.14ZM500.3,928.95C737.47,928.78 929.68,736.37 929.14,499.66C928.61,262.43 736.62,70.55 500.16,70.93C262.63,71.3 71.05,262.92 71.13,500.04C71.21,737.28 263.17,929.12 500.3,928.95Z" style="fill-rule:nonzero;stroke:black;stroke-width:1px;"/>
            <path d="M831.16,499.78C830.63,682.62 684.05,830.84 500.04,830.89C317.69,830.93 169.4,684.28 169.2,500.19C169,317.83 315.49,169.11 500.15,169.06C683.06,169.02 830.26,316.04 831.16,499.78ZM499.9,823.04C677.81,822.1 822.68,680.81 822.91,500.22C823.13,321.6 680.4,177.39 500.31,177.16C322.23,176.93 177.6,319.26 177.29,499.75C176.98,677.16 318.9,821.6 499.9,823.04Z" style="fill-rule:nonzero;stroke:black;stroke-width:1px;"/>
            <path d="M653.85,182.02C649.46,180.33 645.49,179.08 641.83,177.24C640.5,176.57 639.43,174.58 639.04,173C637.08,165.09 635.39,157.1 633.58,149.15C633.3,147.93 632.87,146.74 632.03,143.97C628.8,151.86 625.84,158.26 623.6,164.89C622.25,168.88 620.5,169.31 617.09,167.57C614.3,166.15 611.31,165.14 607.75,163.68C614.13,147.7 620.42,131.91 626.94,115.57C631.38,117.38 635.41,118.84 639.24,120.71C640.29,121.22 641.06,122.91 641.37,124.2C643.61,133.54 645.7,142.91 649.04,152.63C652.3,144.72 655.57,136.8 659.01,128.47C663.1,130.06 666.86,131.31 670.37,133.05C671.25,133.49 672.08,135.78 671.71,136.75C666,151.62 660.06,166.42 653.85,182.02Z" style="fill-rule:nonzero;stroke:black;stroke-width:1px;"/>
            <path d="M118.14,640.38C116.33,635.66 114.64,631.25 112.76,626.36C129.03,620.25 144.81,614.31 161.11,608.19C162.86,612.59 164.71,616.47 165.86,620.54C166.25,621.91 165.18,624 164.24,625.39C159.47,632.4 154.5,639.28 149.63,646.22C149.01,647.1 148.55,648.09 147.45,650.04C156.49,646.68 164.5,643.7 173.24,640.45C174.9,644.64 176.68,648.67 177.95,652.86C178.15,653.53 176.23,655.38 174.97,655.87C160.42,661.48 145.81,666.93 131.24,672.41C125.27,665.85 124.63,659.01 129.32,652.27C133.87,645.72 138.42,639.17 142.95,632.61C143.02,632.51 142.92,632.29 142.81,631.35C134.69,634.32 126.72,637.24 118.14,640.38Z" style="fill-rule:nonzero;stroke:black;stroke-width:1px;"/>
            <path d="M404.12,869.36C406.19,862.02 408.38,854.72 410.26,847.33C410.97,844.57 412.17,843.74 414.83,844.6C418.27,845.7 421.76,846.66 425.77,847.85C424,854.45 422.38,860.67 420.66,866.86C418.22,875.67 415.56,884.41 413.28,893.26C412.35,896.89 410.81,897.22 407.26,896.63C399.65,895.35 395.54,891.57 393.85,883.88C392.31,876.87 389.37,870.17 385.9,863.32C383.51,871.5 381.12,879.69 378.6,888.33C373.79,886.99 369.38,885.77 364.28,884.35C365.61,879.45 366.83,874.86 368.11,870.3C371.11,859.58 374.26,848.89 377.08,838.13C377.81,835.35 378.93,834.46 381.56,835.34C382.03,835.5 382.52,835.65 383.01,835.7C390.3,836.5 394.2,840.3 395.84,847.71C397.47,855.09 400.59,862.14 403.06,869.34C403.43,869.34 403.78,869.35 404.12,869.36Z" style="fill-rule:nonzero;stroke:black;stroke-width:1px;"/>
            <path d="M708.01,214.64C719.19,201.36 730.08,188.43 741.32,175.09C744.84,178.01 748.3,180.55 751.28,183.55C752.31,184.59 752.59,186.86 752.45,188.5C751.7,197.28 750.69,206.04 749.8,214.81C749.72,215.56 749.79,216.32 749.79,218.42C756.22,210.86 761.84,204.24 767.33,197.77C768.09,197.98 768.46,197.99 768.71,198.17C779.86,206.18 779.89,206.21 771.08,216.74C762.87,226.55 754.59,236.3 745.94,246.55C742.27,243.51 738.72,240.86 735.59,237.78C734.66,236.87 734.57,234.7 734.7,233.17C735.4,225.38 736.31,217.62 737.12,209.84C737.3,208.12 737.38,206.38 736.56,204.32C731.02,210.82 725.47,217.33 719.45,224.39C715.57,221.1 711.99,218.04 708.01,214.64Z" style="fill-rule:nonzero;stroke:black;stroke-width:1px;"/>
            <path d="M335.76,835.29C341.72,832.58 347.59,829.63 353.69,827.3C355.87,826.47 358.86,826.44 361.05,827.23C365.98,829.01 370.64,831.53 376.61,834.3C368.68,837.46 362.05,840.29 355.27,842.72C352.33,843.77 351.5,845.26 351.9,848.27C353.34,858.95 354.56,869.66 356.02,881.66C349.8,878.85 344.41,876.59 339.22,873.92C338.35,873.47 338.13,871.31 338.02,869.91C337.53,863.5 337.18,857.08 336.78,850.68C327.01,850.99 323.42,857.48 320.85,865.64C315.73,863.32 311.13,861.23 306.05,858.92C311.47,846.99 316.73,835.41 322,823.82C322.21,823.37 322.48,822.94 322.69,822.49C327.79,811.42 327.73,811.53 338.57,816.73C341.38,818.08 341.9,819.43 340.61,822.09C338.62,826.18 336.83,830.36 334.95,834.5C335.21,834.77 335.49,835.03 335.76,835.29Z" style="fill-rule:nonzero;stroke:black;stroke-width:1px;"/>
            <path d="M452.21,97.82C447.51,105.01 443.74,111.03 439.7,116.86C437.9,119.46 437.81,121.24 440.14,123.68C446.37,130.16 452.31,136.92 458.35,143.59C459.53,144.9 460.63,146.28 462.52,148.52C455.9,149.82 450.32,151.06 444.68,151.87C443.67,152.01 442.15,150.53 441.28,149.46C437.2,144.45 433.26,139.33 429.02,133.92C424.68,138.97 420.78,143.5 423.62,150.47C425.24,154.47 423.85,156.44 419.28,157.01C409.02,158.28 408.92,158.52 406.84,148.25C404.4,136.18 402.3,124.05 399.87,111.98C399.23,108.77 400.01,107.38 403.36,107.05C406.97,106.69 410.54,105.86 414.69,105.13C415.96,111.05 417.16,116.66 418.64,123.57C421.74,118.27 424.73,114.01 426.85,109.35C429.43,103.69 433.12,100.42 439.53,100.06C443.27,99.85 446.97,98.78 452.21,97.82Z" style="fill-rule:nonzero;stroke:black;stroke-width:1px;"/>
            <path d="M561.15,851.05C556.03,857.33 552.02,862.78 547.43,867.69C544.38,870.97 544.78,873.26 547.35,876.52C552.79,883.44 557.85,890.67 563.04,897.79C563.96,899.05 564.76,900.41 566.1,902.46C559.57,903.01 554.02,903.67 548.45,903.81C547.27,903.84 545.72,902.21 544.9,900.98C541.34,895.63 537.99,890.14 534.58,884.74C525.95,889.74 526.15,897.37 527.88,905.63C522.87,906.06 518.61,906.62 514.35,906.65C513.37,906.66 511.61,904.94 511.51,903.89C510.06,888.83 508.77,873.75 507.69,858.66C507.61,857.52 509.27,855.35 510.36,855.18C514.42,854.56 518.58,854.57 523.16,854.32C523.8,860.24 524.42,865.91 525.21,873.16C529.82,866.77 533.69,861.69 537.23,856.39C539.18,853.46 541.55,852.14 545.05,852.07C549.85,851.98 554.65,851.49 561.15,851.05Z" style="fill-rule:nonzero;stroke:black;stroke-width:1px;"/>
            <path d="M869.55,681.07C866.09,686.97 863.45,691.92 860.3,696.51C859.57,697.58 857.09,697.89 855.45,697.83C849.16,697.61 842.89,697.09 836.46,696.68C837.03,703.98 838.98,709.74 846.16,712.29C849.41,713.44 849.95,715.39 847.81,718.37C845.69,721.31 844.07,724.59 841.85,728.37C826.93,719.63 812.26,711.05 797.17,702.21C799.89,697.53 802.37,693.29 805.18,688.46C810.4,691.4 815.37,694.21 821.75,697.81C819.31,690.49 817.53,684.42 815.23,678.55C813.94,675.25 814.12,672.62 816.06,669.69C818.85,665.48 821.28,661.04 824.45,655.71C826.81,663.84 829.06,670.73 830.72,677.76C831.46,680.9 832.77,681.75 835.79,681.65C845.27,681.33 854.75,681.25 864.24,681.09C865.55,681.05 866.84,681.07 869.55,681.07Z" style="fill-rule:nonzero;stroke:black;stroke-width:1px;"/>
            <path d="M675.61,811.14C678.9,818.24 682.04,824.98 685.14,831.75C688.67,839.45 691.99,847.27 695.77,854.85C697.26,857.84 696.54,858.9 693.77,859.98C690.23,861.35 686.84,863.08 682.83,864.91C679.76,858.53 676.84,852.47 673.79,846.13C669.46,848.12 665.48,850.15 661.34,851.77C658.46,852.9 658.53,854.47 659.65,856.8C662.02,861.73 664.26,866.71 666.81,872.22C661.98,874.49 657.4,876.65 652.28,879.06C645.06,863.37 637.95,847.9 630.61,831.94C635.57,829.65 640.02,827.6 645.06,825.28C647.67,830.75 650.14,835.91 652.84,841.57C658.09,839.16 663.01,836.9 668.43,834.41C666,828.9 663.69,823.66 661.19,817.97C665.88,815.75 670.33,813.65 675.61,811.14Z" style="fill-rule:nonzero;stroke:black;stroke-width:1px;"/>
            <path d="M136.41,685.44C139.91,683.39 143.01,681.53 146.14,679.73C156.68,673.69 167.28,667.76 177.74,661.6C180.25,660.12 181.68,659.89 183.23,662.79C186.75,669.39 190.78,675.73 194.21,682.38C198.41,690.51 198.02,703.14 188.85,709.32C183.82,712.71 178.39,715.86 172.69,717.84C164.66,720.63 157.64,717.67 152.08,711.42C150.54,709.69 149.22,707.73 148.05,705.73C144.19,699.14 140.44,692.49 136.41,685.44ZM154.74,693.35C157.3,697.84 158.64,702.75 164.54,703.24C169.6,703.66 180.34,697.28 182.41,692.81C184.14,689.07 182.6,684.04 178.3,679.87C170.64,684.25 162.92,688.67 154.74,693.35Z" style="fill-rule:nonzero;stroke:black;stroke-width:1px;"/>
            <path d="M687.96,814.89C688.06,801.54 702.86,788.27 717.46,788.45C730.53,788.61 743.79,803.38 743.69,817.67C743.6,830.59 728.63,844.29 714.67,844.22C701.26,844.15 687.85,829.43 687.96,814.89ZM729.13,822.05C727.35,813.42 724.22,807.42 717.88,803.5C714.12,801.17 710.53,802.16 707.2,804.55C703.76,807.02 701.7,810.78 703.4,814.49C705.69,819.47 708.89,824.23 712.54,828.33C715.3,831.42 719.74,831.31 723.09,828.8C725.66,826.89 727.47,823.96 729.13,822.05Z" style="fill-rule:nonzero;stroke:black;stroke-width:1px;"/>
            <path d="M859.21,668.08C843.09,667.83 829.86,656.18 830.12,642.46C830.43,626.24 841.98,612.94 855.6,613.13C872.05,613.36 885.53,625.04 885.25,638.83C884.92,655.38 873.41,668.3 859.21,668.08ZM872.07,640.2C871.57,639.3 870.92,636.25 869.14,635.29C864.28,632.67 859.11,630.23 853.77,629.06C848.72,627.96 845.43,631.61 843.78,636.23C842.18,640.71 843.51,644.72 847.42,647.12C851.03,649.34 855.07,651.14 859.16,652.25C866.11,654.14 872.16,648.96 872.07,640.2Z" style="fill-rule:nonzero;stroke:black;stroke-width:1px;"/>
            <path d="M605.05,128.25C605.05,145.85 595.72,157.1 581.04,157.2C563.25,157.32 551.07,147.05 551.14,131.99C551.23,115.03 561.61,102.73 576.26,102.96C590.75,103.2 606.53,110.98 605.05,128.25ZM566.65,133.11C567.15,139.55 569.93,143.37 575.45,144.6C580.74,145.78 585.26,143.23 587.3,137.3C588.52,133.74 589.4,129.92 589.55,126.18C589.76,120.66 586.34,116.87 581.29,115.95C575.85,114.96 571.94,116.87 569.77,122.22C568.36,125.7 567.67,129.47 566.65,133.11Z" style="fill-rule:nonzero;stroke:black;stroke-width:1px;"/>
            <path d="M773.08,753.43C769.77,757.8 767.18,761.41 764.35,764.82C763.8,765.48 762.22,765.75 761.28,765.52C756.66,764.42 753.51,766.64 750.99,769.99C748.3,773.56 748.4,777.61 750.57,781.29C752.24,784.12 754.35,786.82 756.74,789.07C764.68,796.5 774.15,794.09 778.19,783.88C779.28,781.12 779.01,779.07 775.63,777.58C773.43,779.53 771.1,781.59 768.35,784.03C765.98,781.57 763.64,779.13 760.9,776.27C767.04,770.62 772.87,765.26 779.09,759.54C783.61,764.44 788.07,768.9 792.01,773.78C793.14,775.18 793.51,777.97 793.01,779.79C789.7,791.9 782.02,800.57 770.81,805.97C764.54,808.99 758.16,808.11 752.03,805.08C738.81,798.57 731.79,783.82 736.12,771.59C740.1,760.33 755.11,749.45 765.03,750.85C767.5,751.2 769.87,752.38 773.08,753.43Z" style="fill-rule:nonzero;stroke:black;stroke-width:1px;"/>
            <path d="M156.29,587.83C156.73,588.55 156.98,588.8 157.05,589.1C160.36,603.19 160.36,603.19 146.34,605.87C141.28,606.84 136.22,607.85 131.16,608.8C116.32,611.57 107.14,605.95 104.03,591.22C102.82,585.51 102.27,579.09 103.63,573.53C105.76,564.83 113.47,561.54 121.67,559.86C129.65,558.22 137.68,556.83 145.64,555.11C149.47,554.28 150.84,555.37 151.41,559.37C152.92,569.94 153.16,569.96 142.6,572.19C136.09,573.56 129.54,574.73 123.02,576.02C117.03,577.21 114.15,581.23 115.3,586.69C116.4,591.92 120.48,594.41 126.25,593.3C134.57,591.69 142.88,590.01 151.21,588.42C152.95,588.09 154.74,588.01 156.29,587.83Z" style="fill-rule:nonzero;stroke:black;stroke-width:1px;"/>
            <path d="M287.9,786.31C299.42,793.76 311.1,801.32 323.2,809.14C321.2,812.28 319.37,815.13 317.25,818.45C309.64,813.59 302.42,808.98 294.82,804.12C293.33,806.28 292.03,808.15 290.31,810.64C297.18,815.19 303.89,819.63 311.01,824.35C309.14,827.28 307.4,830 305.39,833.15C298.31,828.63 291.63,824.37 284.58,819.88C282.75,822.61 281.03,825.18 279.02,828.18C286.77,833.25 294.24,838.14 302.15,843.31C300.01,846.56 298.06,849.55 295.77,853.03C290.94,849.97 286.34,847.11 281.79,844.17C275.22,839.93 268.62,835.73 262.21,831.27C261.18,830.55 260.13,827.99 260.61,827.24C269.16,813.75 277.94,800.42 286.69,787.06C286.85,786.81 287.24,786.71 287.9,786.31Z" style="fill-rule:nonzero;stroke:black;stroke-width:1px;"/>
            <path d="M385.65,123.38C379.08,125.76 373.02,127.96 366.96,130.17C360.13,132.66 360.13,132.67 363.75,140.03C368.58,138.27 373.49,136.48 378.4,134.68C387.63,131.31 387.63,131.31 389.87,141.76C382.55,144.5 375.14,147.28 367.21,150.26C368.28,153.37 369.27,156.26 370.43,159.64C379.15,156.54 387.51,153.57 396.26,150.46C397.5,153.61 398.94,156.28 399.48,159.12C399.68,160.14 397.99,162.23 396.73,162.71C384.63,167.28 372.44,171.61 359.38,176.33C353.48,160.17 347.61,144.1 341.6,127.67C354.74,122.85 367.16,118.24 379.66,113.81C380.44,113.53 382.28,114.37 382.66,115.16C383.83,117.5 384.51,120.09 385.65,123.38Z" style="fill-rule:nonzero;stroke:black;stroke-width:1px;"/>
            <path d="M278.24,210.55C280.88,213.55 283.23,216.23 285.95,219.32C274.95,228.92 264.32,238.2 253.06,248.03C241.71,235.03 230.5,222.2 218.94,208.97C229.79,199.51 240.4,190.27 251.31,180.76C253.83,183.65 256.07,186.23 258.57,189.1C251.81,195.06 245.35,200.74 238.49,206.78C240.33,208.88 241.92,210.7 243.77,212.81C249.99,207.44 256,202.26 262.44,196.71C264.85,199.35 267.03,201.74 269.56,204.51C263.24,210.04 257.26,215.28 250.88,220.87C253.05,223.39 255.05,225.71 257.41,228.44C264.42,222.4 271.17,216.61 278.24,210.55Z" style="fill-rule:nonzero;stroke:black;stroke-width:1px;"/>
            <path d="M689.92,142.68C701.39,149.59 712.17,156.14 723.03,162.55C725.61,164.07 726.19,165.77 724.62,168.24C723.41,170.15 722.16,172.05 720.78,174.19C713.11,169.61 705.88,165.29 698.09,160.64C696.65,162.95 695.39,164.96 693.86,167.42C701.05,171.82 707.92,176.02 715.05,180.38C713.25,183.41 711.65,186.09 709.72,189.34C702.62,185.16 695.81,181.15 688.53,176.86C686.82,179.47 685.14,182.03 683.06,185.21C690.96,190.02 698.68,194.71 706.79,199.64C704.61,203.16 702.73,206.2 700.63,209.59C688.79,202.49 677.23,195.63 665.81,188.56C664.98,188.04 664.38,185.56 664.88,184.7C673,170.8 681.32,157.02 689.92,142.68Z" style="fill-rule:nonzero;stroke:black;stroke-width:1px;"/>
            <path d="M454.75,887.26C459.18,887.26 463.32,887.03 467.4,887.41C468.52,887.52 469.88,889.3 470.43,890.61C472.33,895.19 475.95,896.89 480.38,896.13C482.27,895.81 484.9,893.76 485.22,892.11C485.52,890.55 483.65,887.89 482.01,886.79C479.74,885.27 476.74,884.87 474.15,883.78C470.64,882.31 467.03,880.95 463.81,878.97C459.4,876.25 457.06,872 457.6,866.73C458.17,861.14 461.3,856.95 466.51,855.03C475.12,851.86 483.86,852.29 492.28,855.92C497.87,858.33 500.2,863.12 500.83,869.89C496.17,869.89 491.77,870.04 487.41,869.76C486.52,869.7 485.84,867.88 484.87,867.14C482.87,865.6 480.87,863.45 478.61,863.06C476.93,862.77 474.84,864.86 472.94,865.88C474.22,867.3 475.23,869.34 476.82,870.04C481.67,872.15 486.9,873.41 491.7,875.61C499.7,879.28 502.09,884.13 500.99,892.89C500.28,898.56 494.5,905.21 487.95,905.71C480.79,906.26 473.33,905.92 466.3,904.5C459.12,903.05 455.24,896.49 454.75,887.26Z" style="fill-rule:nonzero;stroke:black;stroke-width:1px;"/>
            <path d="M332.22,147.8C328.58,150.1 325.03,152.51 321.28,154.58C320.51,155.01 318.82,154.45 317.91,153.83C314.41,151.45 311.17,152.19 308.35,154.71C307.32,155.64 306.3,158.2 306.8,158.87C307.69,160.04 309.87,161.08 311.29,160.85C316.03,160.06 320.65,158.56 325.36,157.56C334.07,155.71 340.72,158.49 344.1,165.2C347.51,171.95 346.33,180.67 339.83,185.55C334.24,189.75 327.73,193.13 321.13,195.49C314.3,197.93 306.99,193.88 302.96,186.72C306.5,184.44 309.98,181.93 313.74,179.97C314.64,179.5 316.67,180.6 317.87,181.42C321.84,184.13 327.17,183.82 329.91,180.08C330.93,178.69 331.6,176.13 331,174.73C330.41,173.36 327.94,171.96 326.36,172.04C322.75,172.22 319.2,173.34 315.61,173.98C313.16,174.41 310.69,174.9 308.22,174.97C300.73,175.2 296.2,172.51 293.74,166.67C291.51,161.37 292.69,154.45 298.06,150.44C303.42,146.44 309.52,143.07 315.8,140.78C322.38,138.39 327.66,141.21 332.22,147.8Z" style="fill-rule:nonzero;stroke:black;stroke-width:1px;"/>
            <path d="M792.46,763.23C795.46,759 798.2,755.12 800.88,751.34C809.02,753.36 813.01,752.26 814.95,747.02C815.58,745.32 815.4,742.38 814.3,741.24C813.22,740.11 810.23,739.82 808.59,740.46C805.87,741.53 803.64,743.77 801.07,745.28C797.51,747.36 794.01,749.83 790.15,751.07C780.05,754.3 770.69,745.53 773.19,735.16C775.48,725.63 781.43,718.54 789.92,713.77C794.34,711.28 799.25,712.03 805.19,715.59C802.71,719.07 800.44,722.66 797.69,725.85C796.91,726.75 794.74,726.78 793.24,726.67C789.3,726.37 786.79,728.32 785.48,731.65C785,732.87 785.42,734.97 786.25,735.99C786.79,736.65 789.15,736.61 790.14,735.99C793.65,733.79 796.78,730.96 800.34,728.86C803.73,726.86 807.33,724.56 811.09,723.97C822.72,722.15 831.64,734.28 827.39,745.93C824.45,753.98 819.11,760.39 811.8,764.85C805.4,768.74 799.14,767.26 792.46,763.23Z" style="fill-rule:nonzero;stroke:black;stroke-width:1px;"/>
            <path d="M624.27,888.92C619.2,890.16 615.06,891.53 610.82,892.02C609.38,892.19 607.01,890.49 606.25,889.03C604.56,885.79 602.71,884.56 599.16,886.1C597.36,886.88 595.33,887.31 593.36,887.49C588.22,887.96 584.88,889.79 585.47,895.79C585.56,896.68 583.99,898.3 582.9,898.63C578.95,899.82 574.87,900.61 569.8,901.79C570.65,894.46 571.37,887.66 572.23,880.87C573.51,870.81 575,860.78 576.13,850.7C576.44,847.91 577.42,846.36 580.17,846C580.33,845.98 580.5,845.96 580.66,845.92C584.87,845 589.91,842.23 593.06,843.65C596.73,845.3 598.85,850.55 601.45,854.37C608.26,864.41 614.96,874.53 621.69,884.63C622.51,885.85 623.2,887.13 624.27,888.92ZM589.43,860.34C588.99,860.41 588.55,860.48 588.11,860.56C587.72,865.98 587.34,871.41 586.9,877.43C591.01,876.36 594.09,875.56 597.73,874.61C594.7,869.41 592.06,864.87 589.43,860.34Z" style="fill-rule:nonzero;stroke:black;stroke-width:1px;"/>
            <path d="M178.51,723.26C181.62,726.76 184.48,729.57 186.78,732.79C187.49,733.78 187.1,736.04 186.5,737.4C184.62,741.66 185.44,746.48 189.38,748.85C190.94,749.78 193.84,750.15 195.19,749.3C196.52,748.46 197.36,745.65 197.15,743.86C196.84,741.31 195.33,738.91 194.42,736.42C193.23,733.15 191.92,729.9 191.02,726.54C189.5,720.85 191.12,715.91 195.69,712.25C200.29,708.56 205.48,708.41 210.71,710.89C220.96,715.76 227.8,727.76 226.41,738.97C226.11,741.4 224.39,743.65 222.85,747.01C219.26,743.03 216.29,739.96 213.64,736.63C213.04,735.88 213.48,734.27 213.51,733.05C213.56,730.99 214.49,728.35 213.54,727.01C212.14,725.03 208.92,722.36 207.37,722.85C203.67,724.01 205.39,727.25 206.53,729.92C208.42,734.34 210.27,738.79 211.9,743.32C214.22,749.78 212.92,755.56 207.61,760.01C202.11,764.63 195.73,765.4 189.43,762.13C180.92,757.71 175.38,750.32 172.49,741.38C170.33,734.63 173.06,728.75 178.51,723.26Z" style="fill-rule:nonzero;stroke:black;stroke-width:1px;"/>
            <path d="M908.19,512.4C907.74,517.61 907.66,522.11 906.8,526.46C906.55,527.74 904.22,529.13 902.62,529.52C899.42,530.29 897.6,531.61 897.76,535.18C897.87,537.5 897.65,539.85 897.33,542.15C896.74,546.5 897.1,550.02 902.5,550.99C903.51,551.17 904.96,552.99 904.97,554.05C904.97,558.47 904.5,562.89 904.15,568.15C900.46,566.53 897.6,565.31 894.78,564.02C882.37,558.37 870.01,552.64 857.55,547.1C854.72,545.84 853.69,544.29 853.87,541.09C854.6,528.14 854.48,528.1 866.66,524.38C879.06,520.59 891.48,516.87 903.91,513.15C904.99,512.82 906.15,512.75 908.19,512.4ZM869.88,537.2C869.85,537.58 869.82,537.96 869.8,538.34C874.94,540.29 880.08,542.24 885.91,544.46C886.12,540.38 886.29,537.2 886.48,533.43C880.43,534.8 875.16,536 869.88,537.2Z" style="fill-rule:nonzero;stroke:black;stroke-width:1px;"/>
            <path d="M263.77,783.35C255.23,793.2 246.98,802.72 238.34,812.69C234.28,809.24 230.44,805.97 226.18,802.33C234.65,792.46 242.84,782.9 251.43,772.9C247.48,769.28 243.64,765.76 239.45,761.92C242.25,758.67 244.8,755.69 247.69,752.34C260.07,763.03 272.1,773.42 284.52,784.14C281.61,787.52 279.06,790.47 276.17,793.82C271.86,790.19 267.98,786.91 263.77,783.35Z" style="fill-rule:nonzero;stroke:black;stroke-width:1px;"/>
            <path d="M496.49,147.55C481.08,149.13 480.97,149.14 480.54,134.38C480.3,126.26 480.5,118.13 480.5,109.7L463.67,109.7L463.67,97.04C479.15,96.52 494.86,95.99 511.03,95.45L511.03,108.29C506.31,108.52 501.57,108.75 496.49,109L496.49,147.55Z" style="fill-rule:nonzero;stroke:black;stroke-width:1px;"/>
            <path d="M885.01,594.91C886.86,586.8 888.59,579.22 890.53,570.71C893.97,571.47 897.4,571.89 900.51,573.13C901.47,573.51 902.18,576.28 901.88,577.73C899.52,589.44 896.9,601.09 894.22,613.34C884.44,611.28 875.08,609.34 865.74,607.32C859.57,605.99 853.45,604.36 847.24,603.23C844.34,602.7 843.87,601.56 844.31,598.85C846.28,586.52 846.19,586.54 858.45,589.23C867.05,591.12 875.66,592.92 885.01,594.91Z" style="fill-rule:nonzero;stroke:black;stroke-width:1px;"/>
            <path d="M147.96,510.72L147.96,526.85C138.81,527.21 129.88,527.63 120.94,527.89C110.26,528.2 110.31,528.14 110.62,538.64C110.76,543.27 110.64,547.91 110.64,553.13L98.53,553.13C97.96,540.09 97.39,526.76 96.79,512.93C114.18,512.18 130.87,511.46 147.96,510.72Z" style="fill-rule:nonzero;stroke:black;stroke-width:1px;"/>
            <path d="M434.34,848.7C439.23,849.45 443.38,849.82 447.36,850.87C448.41,851.15 449.72,853.62 449.53,854.88C447.22,870.47 444.65,886.02 442.02,902.31C436.61,901.46 431.65,900.68 426.15,899.81C428.9,882.66 431.57,866.02 434.34,848.7Z" style="fill-rule:nonzero;stroke:black;stroke-width:1px;"/>
            <path d="M525.49,96.71C530.99,97.22 536.03,97.69 541.54,98.2C540.1,115.4 538.7,132.11 537.23,149.65C532.38,149.25 527.8,148.98 523.27,148.39C522.56,148.3 521.45,146.77 521.51,145.98C522.74,129.76 524.11,113.54 525.49,96.71Z" style="fill-rule:nonzero;stroke:black;stroke-width:1px;"/>
            <path d="M293.29,184.86C301.25,195.37 300.44,193.29 292.1,199.26C289.15,201.37 286.16,203.42 282.76,205.8C280.53,202.67 278.56,199.9 276.27,196.69C282.12,192.63 287.64,188.79 293.29,184.86Z" style="fill-rule:nonzero;stroke:black;stroke-width:1px;"/>
            <path d="M704.84,777.9C706.47,780.25 707.7,782 708.89,783.77C709.06,784.02 709.06,784.39 709.3,785.38C707.17,786.87 704.82,788.5 702.07,790.42C700.37,787.9 698.92,785.75 697.17,783.15C699.72,781.4 702.11,779.76 704.84,777.9Z" style="fill-rule:nonzero;stroke:black;stroke-width:1px;"/>
            <path d="M696.56,793.55C689.58,799.61 689.26,799.56 685.28,791.52C691.91,785.01 692.73,785.16 696.56,793.55Z" style="fill-rule:nonzero;stroke:black;stroke-width:1px;"/>
            <path d="M421.64,282.87C429.27,286.33 432.72,291.88 434.29,298.7C438.99,319.13 424.96,338.26 404.12,341.3C377.67,345.17 363.27,329.57 357.54,307.53C351.04,282.53 369.5,254.87 395.9,250.41C431.71,244.36 460.12,257.58 482.69,284.9C489.76,293.46 496.26,302.5 503.24,311.59C516.49,294.16 532.71,280.14 549.32,266.54C574.24,246.12 602.53,241.12 633.37,248.69C662.37,255.81 685.49,271.6 700.6,297.49C720.72,331.97 711.68,379.31 673.61,398.29C633.06,418.51 589.37,388.27 587.69,349.47C586.82,329.27 592.61,312.62 609.57,301.03C615.07,297.27 621.66,295.12 627.75,292.23C628.03,292.62 628.32,293 628.6,293.39C628.3,294 628.15,294.77 627.69,295.19C615.33,306.14 611.53,320.76 610.03,336.34C609.02,346.87 609.26,357.37 612.62,367.49C617.17,381.18 626.29,390.69 640.78,392.73C652.51,394.38 662.79,390.08 669.8,379.89C675.91,371.01 678.51,360.85 679.63,350.35C681.56,332.35 681.54,314.38 675.68,296.98C668.23,274.87 652.15,262.65 629.76,257.9C615.67,254.92 601.37,253.12 588.29,260.34C579.07,265.44 570.3,271.87 562.55,279.02C540.82,299.08 526.04,324.18 513.11,350.45C500.48,376.12 488.64,402.21 475.11,427.38C461.1,453.44 442.55,476.08 417.98,493.23C417.08,493.86 416.28,494.61 414.55,496.02C417.32,496.15 419.06,496.31 420.81,496.31C458.81,496.32 496.81,496.32 534.81,496.29C549.49,496.28 561.11,484.77 561.21,470.21C561.22,469.04 561.24,467.88 561.23,466.71C561.09,449.89 549.39,441.41 533.32,446.47C525.21,449.03 520.51,455.58 521.08,465.44C521.42,471.27 523.39,477 524.56,482.46C513.87,480.67 509.36,467.82 512.03,457.51C517.29,437.14 543.58,433.51 558.23,442.5C573.74,452.02 576.64,474.32 563.98,488.71C560.3,492.89 555.73,496.3 551.37,500.26C553.79,501.83 556.48,503.39 558.95,505.22C576.36,518.13 576.3,546.28 558.77,557.57C546.31,565.59 524.07,565.06 515.44,550.62C507.2,536.84 510.96,523.25 525.85,517.09C525.34,518.44 525.07,519.43 524.61,520.33C521.07,527.28 519.69,534.6 522.11,542.08C523.13,545.24 525.04,548.58 527.51,550.71C538.96,560.57 556.68,554.89 560.5,540.4C564.79,524.12 556.55,508.94 541.05,504.64C539.63,504.25 538.12,503.98 536.65,503.98C497.15,503.95 457.65,503.95 418.15,503.97C417.38,503.97 416.6,504.1 415.14,504.23C416.26,505.46 416.78,506.27 417.5,506.78C448.77,528.86 469.49,559.32 485.98,593.1C497.65,617.01 508.3,641.46 520.91,664.87C534.2,689.54 549.81,712.7 572.63,730.18C588.27,742.16 605.51,745.68 624.41,742.69C638.7,740.43 652.39,736.61 662.77,725.38C671.07,716.41 676.08,705.76 678.21,694C681.97,673.32 682.32,652.53 676.25,632.16C671.55,616.38 660.34,608.05 645.19,608.11C630.84,608.16 617.19,618.52 612.71,632.69C609.12,644.05 609.07,655.61 610.38,667.3C612.08,682.42 616.77,696.12 628.65,706.73C618.74,705.71 610.35,701.65 603.55,694.9C581.03,672.53 581.51,636.77 604.4,613.66C633.92,583.86 683.29,592.95 702.96,631.78C717.95,661.37 711.55,699.85 682.72,724.48C665.52,739.17 646.08,749.94 623.65,752.85C598.1,756.16 573.4,752.39 552.11,736.11C534.09,722.33 517.38,707.14 503.16,688.83C496.86,697.08 490.69,705.07 484.62,713.15C469.81,732.88 450.61,745.95 426.2,750.2C405.21,753.85 385.14,751.92 369.28,735.38C347.01,712.15 356.06,678.71 374.56,665.03C386.01,656.56 399.21,656.83 412.26,661.3C430.04,667.38 439.62,687.55 433.22,705.06C431.23,710.5 427.94,714.86 421.82,717.34C422.74,713.12 423.72,709.47 424.3,705.76C426.56,691.41 419.65,681.01 409.2,672.54C403.97,668.31 398.08,669.73 392.93,673.22C382.71,680.14 378.72,690.44 377.94,702.3C376.84,719.13 387.13,735.62 402.14,739.65C414.24,742.9 425.81,739.58 437.08,734.8C454.39,727.46 462.03,712.37 469.2,696.46C480.07,672.31 474.46,649.28 465.65,626.27C458.52,607.66 446.44,592.08 434.91,576.2C419.87,555.5 402.9,536.52 382.69,520.66C373.33,513.32 363.17,507.07 351.45,504.47C339.71,501.87 328.21,503.1 317.97,510.2C306.6,518.08 303.92,539.41 313.32,549.54C325.02,562.16 341.3,553.31 345.43,540.8C348.15,532.56 347.83,524.17 343.36,516.34C350.87,517.15 355.18,521.35 356.24,528.93C358.24,543.16 351.59,556.13 339.99,560.61C326.13,565.97 310.1,561.26 301.8,549.18C292.91,536.26 293.13,523.07 301.13,509.8C301.96,508.42 302.78,507.04 303.92,505.14C302.1,504.95 300.86,504.71 299.62,504.71C282.95,504.68 266.29,504.66 249.62,504.7C240.53,504.72 235.78,512.98 240.16,521.01C242,524.38 246.2,525.46 250.17,522.92C252.87,521.19 254.98,518.53 257.3,516.35C258.77,521.24 256.2,526.83 250.65,530.49C246.25,533.39 238.84,532.74 234.27,529.06C227.34,523.48 226.47,511.26 232.49,503.72C233.42,502.56 234.48,501.5 235.47,500.42C227.54,490.22 226.26,481.45 231.56,474.02C234.91,469.33 242.68,466.81 248.13,468.66C254.09,470.68 258.26,477.46 257.78,485.3C256.1,483.24 254.88,481.6 253.53,480.1C250.63,476.87 246.88,474.86 242.86,476.96C238.3,479.34 238.68,484.24 239.25,488.54C239.84,493 242.56,495.81 247.31,495.85C258.14,495.94 268.98,495.89 279.81,495.89L303.09,495.89C300.45,488.79 297.14,482.22 295.59,475.25C292.97,463.42 300.55,448.56 311.45,442.02C321.86,435.77 337.44,436.43 346.38,443.49C354.63,450 358.93,463.86 355.81,473.84C353.92,479.87 349.98,483.27 343.93,483.83C347.16,476.62 347.71,469.22 346.07,461.7C343.95,451.96 334.25,444.19 325.23,444.85C315.75,445.54 309.04,453.49 307.94,464.31C305.88,484.56 318.79,493.9 333.85,496.43C348.78,498.94 361.37,493.64 373.45,486.11C391.19,475.04 405.51,460.12 418.89,444.33C435.38,424.87 451.12,404.7 462.23,381.61C470.49,364.44 477.8,346.1 474.87,326.85C471.1,302.11 462.94,278.61 438.12,266.31C431.54,263.05 424.04,261.03 416.74,259.95C391.55,256.19 377.22,277.46 377.95,297.85C378.31,308.02 381.62,317.11 389.14,324.3C397.97,332.73 407.19,332.2 414.98,322.81C423.6,312.42 427.52,300.96 422.75,287.59C422.37,286.4 422.18,285.12 421.64,282.87Z" style="fill-rule:nonzero;stroke:black;stroke-width:1px;"/>
        </g>
    </g>
    <g transform="matrix(0.268026,0,0,0.268026,-179.095,523.46)">
        <text x="934px" y="579px" style="font-family:'Carlito-Bold', 'Carlito', sans-serif;font-weight:700;font-size:677.082px;">Emmech</text>
    </g>
</svg>
