<?xml version="1.0" encoding="utf-8"?>
<!-- Generator: Adobe Illustrator 28.3.0, SVG Export Plug-In . SVG Version: 6.00 Build 0)  -->
<svg version="1.1" id="Router_Medium_x5F_Black_00000037681990313894948460000012967653829507626171_"
	 xmlns="http://www.w3.org/2000/svg" xmlns:xlink="http://www.w3.org/1999/xlink" x="0px" y="0px" viewBox="0 0 792 792"
	 style="enable-background:new 0 0 792 792;" xml:space="preserve">
<style type="text/css">
	.st0{fill:#ACCBFA;}
	.st1{fill:#FA2921;}
	.st2{fill:#ED79B5;}
	.st3{fill:#FFB400;}
	.st4{fill:#1E83F7;}
	.st5{fill:#18C249;}
</style>
<g>
	<path class="st0" d="M110.16,537.4c7.85,0,14.25,6.4,14.25,14.04c0,7.85-6.4,14.04-14.25,14.04s-14.45-6.19-14.45-14.04
		C95.71,543.8,102.32,537.4,110.16,537.4z M97.98,610.7c0-3.72-0.83-9.71-0.83-13.22c0-7.43,5.78-13.22,13.01-13.22
		s13.01,5.78,13.01,13.22c0,3.51-1.03,9.5-1.03,13.22v47.9c0,3.72,1.03,9.71,1.03,13.22c0,7.43-5.78,13.22-13.01,13.22
		s-13.01-5.78-13.01-13.22c0-3.51,0.83-9.5,0.83-13.22V610.7z"/>
	<path class="st0" d="M265.44,671.82c0-3.51,1.03-9.5,1.03-13.22v-35.72c0-12.6-6.61-20.85-17.96-20.85
		c-7.43,0-14.04,3.72-18.38,10.94c0.41,2.27,0.62,4.54,0.62,7.02v38.61c0,3.72,1.03,9.71,1.03,13.22c0,7.43-5.78,13.22-13.22,13.22
		c-6.81,0-12.8-5.78-12.8-13.22c0-3.51,1.03-9.5,1.03-13.22v-36.34c0-3.92-0.62-7.43-2.06-10.53c-2.69-5.99-8.05-9.71-15.49-9.71
		c-7.64,0-13.83,3.92-18.38,10.94v45.63c0,3.72,1.03,9.71,1.03,13.22c0,7.43-5.99,13.22-13.01,13.22c-7.23,0-13.01-5.78-13.01-13.22
		c0-3.51,0.83-9.5,0.83-13.22v-47.7c0-3.72-1.86-10.32-1.86-13.42c0-7.43,5.37-13.22,12.6-13.22c6.81,0,10.74,4.54,11.98,10.53
		c6.19-8.26,14.87-13.42,26.22-13.42c13.42,0,23.13,6.4,29.11,16.73c6.81-10.74,16.73-16.73,29.11-16.73
		c20.86,0,36.75,15.07,36.75,39.23v37.99c0,3.72,0.83,9.71,0.83,13.22c0,7.43-5.57,13.22-13.01,13.22
		C271.43,685.04,265.44,679.26,265.44,671.82z"/>
	<path class="st0" d="M431.45,671.82c0-3.51,1.03-9.5,1.03-13.22v-35.72c0-12.6-6.61-20.85-17.96-20.85
		c-7.43,0-14.04,3.72-18.38,10.94c0.41,2.27,0.62,4.54,0.62,7.02v38.61c0,3.72,1.03,9.71,1.03,13.22c0,7.43-5.78,13.22-13.22,13.22
		c-6.82,0-12.8-5.78-12.8-13.22c0-3.51,1.03-9.5,1.03-13.22v-36.34c0-3.92-0.62-7.43-2.06-10.53c-2.68-5.99-8.05-9.71-15.49-9.71
		c-7.64,0-13.83,3.92-18.38,10.94v45.63c0,3.72,1.03,9.71,1.03,13.22c0,7.43-5.99,13.22-13.01,13.22c-7.23,0-13.01-5.78-13.01-13.22
		c0-3.51,0.83-9.5,0.83-13.22v-47.7c0-3.72-1.86-10.32-1.86-13.42c0-7.43,5.37-13.22,12.6-13.22c6.82,0,10.74,4.54,11.98,10.53
		c6.2-8.26,14.87-13.42,26.22-13.42c13.42,0,23.13,6.4,29.11,16.73c6.81-10.74,16.72-16.73,29.11-16.73
		c20.86,0,36.75,15.07,36.75,39.23v37.99c0,3.72,0.83,9.71,0.83,13.22c0,7.43-5.57,13.22-13.01,13.22
		C437.44,685.04,431.45,679.26,431.45,671.82z"/>
	<path class="st0" d="M491.33,537.4c7.85,0,14.25,6.4,14.25,14.04c0,7.85-6.4,14.04-14.25,14.04s-14.45-6.19-14.45-14.04
		C476.87,543.8,483.48,537.4,491.33,537.4z M479.15,610.7c0-3.72-0.83-9.71-0.83-13.22c0-7.43,5.78-13.22,13.01-13.22
		s13.01,5.78,13.01,13.22c0,3.51-1.03,9.5-1.03,13.22v47.9c0,3.72,1.03,9.71,1.03,13.22c0,7.43-5.78,13.22-13.01,13.22
		s-13.01-5.78-13.01-13.22c0-3.51,0.83-9.5,0.83-13.22V610.7z"/>
	<path class="st0" d="M522.09,634.04c0-29.11,18.17-52.65,48.32-52.65c15.9,0,30.56,7.23,37.17,17.97c2.48,3.92,2.89,6.19,2.89,8.05
		c0,6.4-4.96,11.77-12.18,11.77c-4.75,0-9.08-2.68-10.94-7.43c-2.89-6.4-8.47-10.12-16.93-10.12c-15.9,0-24.78,14.25-24.78,32.21
		c0,18.17,9.29,32.21,25.4,32.21c8.67,0,14.87-3.1,17.76-9.5c2.06-4.34,5.99-8.05,11.36-8.05c7.43,0,11.98,5.16,11.98,11.56
		c0,3.1-1.24,6.81-3.92,10.32c-6.82,9.09-19.62,16.31-37.17,16.31C540.06,686.69,522.09,663.56,522.09,634.04z"/>
	<path class="st0" d="M690.17,671.82c0-3.51,0.83-9.5,0.83-13.22v-35.3c0-12.6-7.02-21.27-19-21.27c-8.26,0-15.28,3.92-19.82,10.32
		v46.25c0,3.72,0.83,9.71,0.83,13.22c0,7.43-5.78,13.22-13.01,13.22s-13.01-5.78-13.01-13.22c0-3.51,1.03-9.5,1.03-13.22v-99.94
		c0-3.72-1.03-9.71-1.03-13.22c0-7.43,5.99-13.22,13.01-13.22c7.23,0,13.01,5.78,13.01,13.22c0,3.51-0.83,9.5-0.83,13.22v33.66
		c6.2-6.81,15.07-10.94,26.43-10.94c21.27,0,36.55,15.9,36.55,38.61v38.61c0,3.72,1.03,9.71,1.03,13.22
		c0,7.43-5.99,13.22-13.01,13.22C695.95,685.04,690.17,679.26,690.17,671.82z"/>
</g>
<g>
	<path class="st1" d="M376.76,216.42c28.32,25.07,51.15,51.95,65.83,77.27c25.23-45.12,42.08-98.73,42.3-132.88
		c0-0.24,0-0.46,0-0.66c0-50.53-50.41-70.2-93.82-70.2s-93.82,19.66-93.82,70.2c0,0.69,0,1.62,0,2.73
		C321.44,173.62,350.14,192.84,376.76,216.42z"/>
	<path class="st2" d="M222.27,354.21c17.7-19.69,44.85-41.04,75.5-59.08c32.6-19.19,65.21-32.59,93.83-38.73
		c-35.11-37.94-80.89-70.53-113.31-81.29c-0.23-0.07-0.44-0.14-0.63-0.21c-48.06-15.61-82.34,26.25-95.75,67.54
		c-13.42,41.29-10.29,95.31,37.77,110.92C220.33,353.58,221.21,353.86,222.27,354.21z"/>
	<path class="st3" d="M600.73,241.74c-13.42-41.29-47.69-83.15-95.75-67.54c-0.66,0.21-1.54,0.5-2.6,0.84
		c-2.75,26.34-12.16,59.57-26.36,92.17c-15.09,34.68-33.6,64.69-53.14,86.48c50.7,10.05,106.9,9.52,139.45-0.83
		c0.23-0.07,0.44-0.14,0.63-0.21C611.02,337.05,614.15,283.03,600.73,241.74z"/>
	<path class="st4" d="M348.22,394.58c-8.17-36.93-10.84-72.09-7.84-101.2c-46.93,21.67-92.08,55.14-112.33,82.64
		c-0.14,0.19-0.27,0.37-0.39,0.54c-29.7,40.88-0.48,86.42,34.64,111.94s87.46,39.24,117.16-1.64c0.41-0.56,0.95-1.31,1.6-2.21
		C367.81,461.72,355.9,429.3,348.22,394.58z"/>
	<path class="st5" d="M554.19,373.91c-25.9,5.53-60.41,6.84-95.81,3.42c-37.65-3.64-71.91-11.96-98.67-23.82
		c6.11,51.33,23.99,104.61,43.89,132.37c0.14,0.19,0.27,0.37,0.39,0.54c29.7,40.88,82.04,27.16,117.16,1.64S585.5,417,555.8,376.12
		C555.39,375.56,554.85,374.81,554.19,373.91z"/>
</g>
</svg>
